%TF.GenerationSoftware,KiCad,Pcbnew,(5.1.12)-1*%
%TF.CreationDate,2023-01-04T10:21:47+01:00*%
%TF.ProjectId,current3Av2,63757272-656e-4743-9341-76322e6b6963,1.0*%
%TF.SameCoordinates,Original*%
%TF.FileFunction,OtherDrawing,Comment*%
%FSLAX46Y46*%
G04 Gerber Fmt 4.6, Leading zero omitted, Abs format (unit mm)*
G04 Created by KiCad (PCBNEW (5.1.12)-1) date 2023-01-04 10:21:47*
%MOMM*%
%LPD*%
G01*
G04 APERTURE LIST*
%ADD10C,0.150000*%
%ADD11C,0.100000*%
G04 APERTURE END LIST*
D10*
X37755400Y-13752580D02*
X38374447Y-13752580D01*
X38041114Y-14133533D01*
X38183971Y-14133533D01*
X38279209Y-14181152D01*
X38326828Y-14228771D01*
X38374447Y-14324009D01*
X38374447Y-14562104D01*
X38326828Y-14657342D01*
X38279209Y-14704961D01*
X38183971Y-14752580D01*
X37898257Y-14752580D01*
X37803019Y-14704961D01*
X37755400Y-14657342D01*
X39707780Y-14752580D02*
X39612542Y-14704961D01*
X39564923Y-14657342D01*
X39517304Y-14562104D01*
X39517304Y-14276390D01*
X39564923Y-14181152D01*
X39612542Y-14133533D01*
X39707780Y-14085914D01*
X39850638Y-14085914D01*
X39945876Y-14133533D01*
X39993495Y-14181152D01*
X40041114Y-14276390D01*
X40041114Y-14562104D01*
X39993495Y-14657342D01*
X39945876Y-14704961D01*
X39850638Y-14752580D01*
X39707780Y-14752580D01*
X40326828Y-14085914D02*
X40707780Y-14085914D01*
X40469685Y-13752580D02*
X40469685Y-14609723D01*
X40517304Y-14704961D01*
X40612542Y-14752580D01*
X40707780Y-14752580D01*
X40945876Y-14085914D02*
X41136352Y-14752580D01*
X41326828Y-14276390D01*
X41517304Y-14752580D01*
X41707780Y-14085914D01*
X42231590Y-14752580D02*
X42136352Y-14704961D01*
X42088733Y-14657342D01*
X42041114Y-14562104D01*
X42041114Y-14276390D01*
X42088733Y-14181152D01*
X42136352Y-14133533D01*
X42231590Y-14085914D01*
X42374447Y-14085914D01*
X42469685Y-14133533D01*
X42517304Y-14181152D01*
X42564923Y-14276390D01*
X42564923Y-14562104D01*
X42517304Y-14657342D01*
X42469685Y-14704961D01*
X42374447Y-14752580D01*
X42231590Y-14752580D01*
X42993495Y-14752580D02*
X42993495Y-14085914D01*
X42993495Y-14276390D02*
X43041114Y-14181152D01*
X43088733Y-14133533D01*
X43183971Y-14085914D01*
X43279209Y-14085914D01*
X43517304Y-14085914D02*
X43755400Y-14752580D01*
X43993495Y-14085914D02*
X43755400Y-14752580D01*
X43660161Y-14990676D01*
X43612542Y-15038295D01*
X43517304Y-15085914D01*
X45136352Y-14752580D02*
X45136352Y-13752580D01*
X45469685Y-14466866D01*
X45803019Y-13752580D01*
X45803019Y-14752580D01*
X46183971Y-13752580D02*
X46803019Y-13752580D01*
X46469685Y-14133533D01*
X46612542Y-14133533D01*
X46707780Y-14181152D01*
X46755400Y-14228771D01*
X46803019Y-14324009D01*
X46803019Y-14562104D01*
X46755400Y-14657342D01*
X46707780Y-14704961D01*
X46612542Y-14752580D01*
X46326828Y-14752580D01*
X46231590Y-14704961D01*
X46183971Y-14657342D01*
X48422066Y-14752580D02*
X48422066Y-13752580D01*
X48422066Y-14704961D02*
X48326828Y-14752580D01*
X48136352Y-14752580D01*
X48041114Y-14704961D01*
X47993495Y-14657342D01*
X47945876Y-14562104D01*
X47945876Y-14276390D01*
X47993495Y-14181152D01*
X48041114Y-14133533D01*
X48136352Y-14085914D01*
X48326828Y-14085914D01*
X48422066Y-14133533D01*
X49041114Y-14752580D02*
X48945876Y-14704961D01*
X48898257Y-14657342D01*
X48850638Y-14562104D01*
X48850638Y-14276390D01*
X48898257Y-14181152D01*
X48945876Y-14133533D01*
X49041114Y-14085914D01*
X49183971Y-14085914D01*
X49279209Y-14133533D01*
X49326828Y-14181152D01*
X49374447Y-14276390D01*
X49374447Y-14562104D01*
X49326828Y-14657342D01*
X49279209Y-14704961D01*
X49183971Y-14752580D01*
X49041114Y-14752580D01*
X50564923Y-14752580D02*
X50564923Y-14085914D01*
X50564923Y-14181152D02*
X50612542Y-14133533D01*
X50707780Y-14085914D01*
X50850638Y-14085914D01*
X50945876Y-14133533D01*
X50993495Y-14228771D01*
X50993495Y-14752580D01*
X50993495Y-14228771D02*
X51041114Y-14133533D01*
X51136352Y-14085914D01*
X51279209Y-14085914D01*
X51374447Y-14133533D01*
X51422066Y-14228771D01*
X51422066Y-14752580D01*
X52041114Y-14752580D02*
X51945876Y-14704961D01*
X51898257Y-14657342D01*
X51850638Y-14562104D01*
X51850638Y-14276390D01*
X51898257Y-14181152D01*
X51945876Y-14133533D01*
X52041114Y-14085914D01*
X52183971Y-14085914D01*
X52279209Y-14133533D01*
X52326828Y-14181152D01*
X52374447Y-14276390D01*
X52374447Y-14562104D01*
X52326828Y-14657342D01*
X52279209Y-14704961D01*
X52183971Y-14752580D01*
X52041114Y-14752580D01*
X53231590Y-14704961D02*
X53136352Y-14752580D01*
X52945876Y-14752580D01*
X52850638Y-14704961D01*
X52803019Y-14657342D01*
X52755400Y-14562104D01*
X52755400Y-14276390D01*
X52803019Y-14181152D01*
X52850638Y-14133533D01*
X52945876Y-14085914D01*
X53136352Y-14085914D01*
X53231590Y-14133533D01*
X53803019Y-14752580D02*
X53707780Y-14704961D01*
X53660161Y-14657342D01*
X53612542Y-14562104D01*
X53612542Y-14276390D01*
X53660161Y-14181152D01*
X53707780Y-14133533D01*
X53803019Y-14085914D01*
X53945876Y-14085914D01*
X54041114Y-14133533D01*
X54088733Y-14181152D01*
X54136352Y-14276390D01*
X54136352Y-14562104D01*
X54088733Y-14657342D01*
X54041114Y-14704961D01*
X53945876Y-14752580D01*
X53803019Y-14752580D01*
X54469685Y-14085914D02*
X54660161Y-14752580D01*
X54850638Y-14276390D01*
X55041114Y-14752580D01*
X55231590Y-14085914D01*
X56041114Y-14752580D02*
X56041114Y-14228771D01*
X55993495Y-14133533D01*
X55898257Y-14085914D01*
X55707780Y-14085914D01*
X55612542Y-14133533D01*
X56041114Y-14704961D02*
X55945876Y-14752580D01*
X55707780Y-14752580D01*
X55612542Y-14704961D01*
X55564923Y-14609723D01*
X55564923Y-14514485D01*
X55612542Y-14419247D01*
X55707780Y-14371628D01*
X55945876Y-14371628D01*
X56041114Y-14324009D01*
X56517304Y-14085914D02*
X56517304Y-14752580D01*
X56517304Y-14181152D02*
X56564923Y-14133533D01*
X56660161Y-14085914D01*
X56803019Y-14085914D01*
X56898257Y-14133533D01*
X56945876Y-14228771D01*
X56945876Y-14752580D01*
X57422066Y-14752580D02*
X57422066Y-14085914D01*
X57422066Y-13752580D02*
X57374447Y-13800200D01*
X57422066Y-13847819D01*
X57469685Y-13800200D01*
X57422066Y-13752580D01*
X57422066Y-13847819D01*
X58326828Y-14752580D02*
X58326828Y-14228771D01*
X58279209Y-14133533D01*
X58183971Y-14085914D01*
X57993495Y-14085914D01*
X57898257Y-14133533D01*
X58326828Y-14704961D02*
X58231590Y-14752580D01*
X57993495Y-14752580D01*
X57898257Y-14704961D01*
X57850638Y-14609723D01*
X57850638Y-14514485D01*
X57898257Y-14419247D01*
X57993495Y-14371628D01*
X58231590Y-14371628D01*
X58326828Y-14324009D01*
X59564923Y-14752580D02*
X59564923Y-14085914D01*
X59564923Y-14276390D02*
X59612542Y-14181152D01*
X59660161Y-14133533D01*
X59755400Y-14085914D01*
X59850638Y-14085914D01*
X60612542Y-14752580D02*
X60612542Y-14228771D01*
X60564923Y-14133533D01*
X60469685Y-14085914D01*
X60279209Y-14085914D01*
X60183971Y-14133533D01*
X60612542Y-14704961D02*
X60517304Y-14752580D01*
X60279209Y-14752580D01*
X60183971Y-14704961D01*
X60136352Y-14609723D01*
X60136352Y-14514485D01*
X60183971Y-14419247D01*
X60279209Y-14371628D01*
X60517304Y-14371628D01*
X60612542Y-14324009D01*
X61517304Y-14752580D02*
X61517304Y-13752580D01*
X61517304Y-14704961D02*
X61422066Y-14752580D01*
X61231590Y-14752580D01*
X61136352Y-14704961D01*
X61088733Y-14657342D01*
X61041114Y-14562104D01*
X61041114Y-14276390D01*
X61088733Y-14181152D01*
X61136352Y-14133533D01*
X61231590Y-14085914D01*
X61422066Y-14085914D01*
X61517304Y-14133533D01*
X61993495Y-14752580D02*
X61993495Y-14085914D01*
X61993495Y-13752580D02*
X61945876Y-13800200D01*
X61993495Y-13847819D01*
X62041114Y-13800200D01*
X61993495Y-13752580D01*
X61993495Y-13847819D01*
X62898257Y-14752580D02*
X62898257Y-14228771D01*
X62850638Y-14133533D01*
X62755400Y-14085914D01*
X62564923Y-14085914D01*
X62469685Y-14133533D01*
X62898257Y-14704961D02*
X62803019Y-14752580D01*
X62564923Y-14752580D01*
X62469685Y-14704961D01*
X62422066Y-14609723D01*
X62422066Y-14514485D01*
X62469685Y-14419247D01*
X62564923Y-14371628D01*
X62803019Y-14371628D01*
X62898257Y-14324009D01*
X63231590Y-14085914D02*
X63612542Y-14085914D01*
X63374447Y-13752580D02*
X63374447Y-14609723D01*
X63422066Y-14704961D01*
X63517304Y-14752580D01*
X63612542Y-14752580D01*
X64088733Y-14752580D02*
X63993495Y-14704961D01*
X63945876Y-14657342D01*
X63898257Y-14562104D01*
X63898257Y-14276390D01*
X63945876Y-14181152D01*
X63993495Y-14133533D01*
X64088733Y-14085914D01*
X64231590Y-14085914D01*
X64326828Y-14133533D01*
X64374447Y-14181152D01*
X64422066Y-14276390D01*
X64422066Y-14562104D01*
X64374447Y-14657342D01*
X64326828Y-14704961D01*
X64231590Y-14752580D01*
X64088733Y-14752580D01*
X64850638Y-14752580D02*
X64850638Y-14085914D01*
X64850638Y-14276390D02*
X64898257Y-14181152D01*
X64945876Y-14133533D01*
X65041114Y-14085914D01*
X65136352Y-14085914D01*
X65898257Y-14752580D02*
X65898257Y-14228771D01*
X65850638Y-14133533D01*
X65755400Y-14085914D01*
X65564923Y-14085914D01*
X65469685Y-14133533D01*
X65898257Y-14704961D02*
X65803019Y-14752580D01*
X65564923Y-14752580D01*
X65469685Y-14704961D01*
X65422066Y-14609723D01*
X65422066Y-14514485D01*
X65469685Y-14419247D01*
X65564923Y-14371628D01*
X65803019Y-14371628D01*
X65898257Y-14324009D01*
X67422066Y-15133533D02*
X67374447Y-15085914D01*
X67279209Y-14943057D01*
X67231590Y-14847819D01*
X67183971Y-14704961D01*
X67136352Y-14466866D01*
X67136352Y-14276390D01*
X67183971Y-14038295D01*
X67231590Y-13895438D01*
X67279209Y-13800200D01*
X67374447Y-13657342D01*
X67422066Y-13609723D01*
X68183971Y-14704961D02*
X68088733Y-14752580D01*
X67898257Y-14752580D01*
X67803019Y-14704961D01*
X67755400Y-14609723D01*
X67755400Y-14228771D01*
X67803019Y-14133533D01*
X67898257Y-14085914D01*
X68088733Y-14085914D01*
X68183971Y-14133533D01*
X68231590Y-14228771D01*
X68231590Y-14324009D01*
X67755400Y-14419247D01*
X68564923Y-14085914D02*
X68755400Y-14752580D01*
X68945876Y-14276390D01*
X69136352Y-14752580D01*
X69326828Y-14085914D01*
X69707780Y-14657342D02*
X69755400Y-14704961D01*
X69707780Y-14752580D01*
X69660161Y-14704961D01*
X69707780Y-14657342D01*
X69707780Y-14752580D01*
X70945876Y-14752580D02*
X70945876Y-13752580D01*
X70945876Y-14133533D02*
X71041114Y-14085914D01*
X71231590Y-14085914D01*
X71326828Y-14133533D01*
X71374447Y-14181152D01*
X71422066Y-14276390D01*
X71422066Y-14562104D01*
X71374447Y-14657342D01*
X71326828Y-14704961D01*
X71231590Y-14752580D01*
X71041114Y-14752580D01*
X70945876Y-14704961D01*
X71993495Y-14752580D02*
X71898257Y-14704961D01*
X71850638Y-14609723D01*
X71850638Y-13752580D01*
X72803019Y-14752580D02*
X72803019Y-14228771D01*
X72755400Y-14133533D01*
X72660161Y-14085914D01*
X72469685Y-14085914D01*
X72374447Y-14133533D01*
X72803019Y-14704961D02*
X72707780Y-14752580D01*
X72469685Y-14752580D01*
X72374447Y-14704961D01*
X72326828Y-14609723D01*
X72326828Y-14514485D01*
X72374447Y-14419247D01*
X72469685Y-14371628D01*
X72707780Y-14371628D01*
X72803019Y-14324009D01*
X73707780Y-14704961D02*
X73612542Y-14752580D01*
X73422066Y-14752580D01*
X73326828Y-14704961D01*
X73279209Y-14657342D01*
X73231590Y-14562104D01*
X73231590Y-14276390D01*
X73279209Y-14181152D01*
X73326828Y-14133533D01*
X73422066Y-14085914D01*
X73612542Y-14085914D01*
X73707780Y-14133533D01*
X74136352Y-14752580D02*
X74136352Y-13752580D01*
X74564923Y-14752580D02*
X74564923Y-14228771D01*
X74517304Y-14133533D01*
X74422066Y-14085914D01*
X74279209Y-14085914D01*
X74183971Y-14133533D01*
X74136352Y-14181152D01*
X75183971Y-14752580D02*
X75088733Y-14704961D01*
X75041114Y-14657342D01*
X74993495Y-14562104D01*
X74993495Y-14276390D01*
X75041114Y-14181152D01*
X75088733Y-14133533D01*
X75183971Y-14085914D01*
X75326828Y-14085914D01*
X75422066Y-14133533D01*
X75469685Y-14181152D01*
X75517304Y-14276390D01*
X75517304Y-14562104D01*
X75469685Y-14657342D01*
X75422066Y-14704961D01*
X75326828Y-14752580D01*
X75183971Y-14752580D01*
X75850638Y-14085914D02*
X76041114Y-14752580D01*
X76231590Y-14276390D01*
X76422066Y-14752580D01*
X76612542Y-14085914D01*
X76993495Y-14752580D02*
X76993495Y-13752580D01*
X77088733Y-14371628D02*
X77374447Y-14752580D01*
X77374447Y-14085914D02*
X76993495Y-14466866D01*
X77803019Y-14752580D02*
X77803019Y-14085914D01*
X77803019Y-14276390D02*
X77850638Y-14181152D01*
X77898257Y-14133533D01*
X77993495Y-14085914D01*
X78088733Y-14085914D01*
X78803019Y-14704961D02*
X78707780Y-14752580D01*
X78517304Y-14752580D01*
X78422066Y-14704961D01*
X78374447Y-14609723D01*
X78374447Y-14228771D01*
X78422066Y-14133533D01*
X78517304Y-14085914D01*
X78707780Y-14085914D01*
X78803019Y-14133533D01*
X78850638Y-14228771D01*
X78850638Y-14324009D01*
X78374447Y-14419247D01*
X78612542Y-14752580D02*
X78517304Y-14847819D01*
X78469685Y-14943057D01*
X78517304Y-15038295D01*
X78612542Y-15085914D01*
X78707780Y-15085914D01*
X79136352Y-14085914D02*
X79517304Y-14085914D01*
X79279209Y-13752580D02*
X79279209Y-14609723D01*
X79326828Y-14704961D01*
X79422066Y-14752580D01*
X79517304Y-14752580D01*
X79755400Y-14085914D02*
X79993495Y-14752580D01*
X80231590Y-14085914D02*
X79993495Y-14752580D01*
X79898257Y-14990676D01*
X79850638Y-15038295D01*
X79755400Y-15085914D01*
X81326828Y-13847819D02*
X81374447Y-13800200D01*
X81469685Y-13752580D01*
X81707780Y-13752580D01*
X81803019Y-13800200D01*
X81850638Y-13847819D01*
X81898257Y-13943057D01*
X81898257Y-14038295D01*
X81850638Y-14181152D01*
X81279209Y-14752580D01*
X81898257Y-14752580D01*
X82374447Y-14704961D02*
X82374447Y-14752580D01*
X82326828Y-14847819D01*
X82279209Y-14895438D01*
X82850638Y-14752580D02*
X83041114Y-14752580D01*
X83136352Y-14704961D01*
X83183971Y-14657342D01*
X83279209Y-14514485D01*
X83326828Y-14324009D01*
X83326828Y-13943057D01*
X83279209Y-13847819D01*
X83231590Y-13800200D01*
X83136352Y-13752580D01*
X82945876Y-13752580D01*
X82850638Y-13800200D01*
X82803019Y-13847819D01*
X82755400Y-13943057D01*
X82755400Y-14181152D01*
X82803019Y-14276390D01*
X82850638Y-14324009D01*
X82945876Y-14371628D01*
X83136352Y-14371628D01*
X83231590Y-14324009D01*
X83279209Y-14276390D01*
X83326828Y-14181152D01*
X83660161Y-14752580D02*
X84183971Y-14085914D01*
X83660161Y-14085914D02*
X84183971Y-14752580D01*
X85088733Y-14752580D02*
X84517304Y-14752580D01*
X84803019Y-14752580D02*
X84803019Y-13752580D01*
X84707780Y-13895438D01*
X84612542Y-13990676D01*
X84517304Y-14038295D01*
X85707780Y-13752580D02*
X85803019Y-13752580D01*
X85898257Y-13800200D01*
X85945876Y-13847819D01*
X85993495Y-13943057D01*
X86041114Y-14133533D01*
X86041114Y-14371628D01*
X85993495Y-14562104D01*
X85945876Y-14657342D01*
X85898257Y-14704961D01*
X85803019Y-14752580D01*
X85707780Y-14752580D01*
X85612542Y-14704961D01*
X85564923Y-14657342D01*
X85517304Y-14562104D01*
X85469685Y-14371628D01*
X85469685Y-14133533D01*
X85517304Y-13943057D01*
X85564923Y-13847819D01*
X85612542Y-13800200D01*
X85707780Y-13752580D01*
X86374447Y-15133533D02*
X86422066Y-15085914D01*
X86517304Y-14943057D01*
X86564923Y-14847819D01*
X86612542Y-14704961D01*
X86660161Y-14466866D01*
X86660161Y-14276390D01*
X86612542Y-14038295D01*
X86564923Y-13895438D01*
X86517304Y-13800200D01*
X86422066Y-13657342D01*
X86374447Y-13609723D01*
X16680391Y-27940000D02*
G75*
G03*
X16680391Y-27940000I-1694391J0D01*
G01*
X76669470Y-27965400D02*
G75*
G03*
X76669470Y-27965400I-1688670J0D01*
G01*
X136644591Y-27940000D02*
G75*
G03*
X136644591Y-27940000I-1694391J0D01*
G01*
X149910800Y-52959000D02*
X149936200Y-2946400D01*
X-50800Y-52959000D02*
X149910800Y-52959000D01*
X-76200Y-2946400D02*
X-50800Y-52959000D01*
X149936200Y-2946400D02*
X-76200Y-2946400D01*
X5867619Y-17906690D02*
X5820000Y-17859071D01*
X5772380Y-17763833D01*
X5772380Y-17525738D01*
X5820000Y-17430500D01*
X5867619Y-17382880D01*
X5962857Y-17335261D01*
X6058095Y-17335261D01*
X6200952Y-17382880D01*
X6772380Y-17954309D01*
X6772380Y-17335261D01*
X5772380Y-16430500D02*
X5772380Y-16906690D01*
X6248571Y-16954309D01*
X6200952Y-16906690D01*
X6153333Y-16811452D01*
X6153333Y-16573357D01*
X6200952Y-16478119D01*
X6248571Y-16430500D01*
X6343809Y-16382880D01*
X6581904Y-16382880D01*
X6677142Y-16430500D01*
X6724761Y-16478119D01*
X6772380Y-16573357D01*
X6772380Y-16811452D01*
X6724761Y-16906690D01*
X6677142Y-16954309D01*
X6772380Y-15192404D02*
X6105714Y-15192404D01*
X6200952Y-15192404D02*
X6153333Y-15144785D01*
X6105714Y-15049547D01*
X6105714Y-14906690D01*
X6153333Y-14811452D01*
X6248571Y-14763833D01*
X6772380Y-14763833D01*
X6248571Y-14763833D02*
X6153333Y-14716214D01*
X6105714Y-14620976D01*
X6105714Y-14478119D01*
X6153333Y-14382880D01*
X6248571Y-14335261D01*
X6772380Y-14335261D01*
X6772380Y-13859071D02*
X6105714Y-13859071D01*
X6200952Y-13859071D02*
X6153333Y-13811452D01*
X6105714Y-13716214D01*
X6105714Y-13573357D01*
X6153333Y-13478119D01*
X6248571Y-13430500D01*
X6772380Y-13430500D01*
X6248571Y-13430500D02*
X6153333Y-13382880D01*
X6105714Y-13287642D01*
X6105714Y-13144785D01*
X6153333Y-13049547D01*
X6248571Y-13001928D01*
X6772380Y-13001928D01*
X7620000Y-27940000D02*
X7620000Y-2921000D01*
X14986000Y-27940000D02*
X7033579Y-27940000D01*
X14986000Y-2921000D02*
X7033579Y-2921000D01*
X7620000Y-2921000D02*
X8206421Y-4047504D01*
X7620000Y-2921000D02*
X7033579Y-4047504D01*
X7620000Y-27940000D02*
X8206421Y-26813496D01*
X7620000Y-27940000D02*
X7033579Y-26813496D01*
X42958000Y-15528193D02*
X42767523Y-15528193D01*
X42672285Y-15575813D01*
X42624666Y-15623432D01*
X42529428Y-15766289D01*
X42481809Y-15956765D01*
X42481809Y-16337717D01*
X42529428Y-16432955D01*
X42577047Y-16480574D01*
X42672285Y-16528193D01*
X42862761Y-16528193D01*
X42958000Y-16480574D01*
X43005619Y-16432955D01*
X43053238Y-16337717D01*
X43053238Y-16099622D01*
X43005619Y-16004384D01*
X42958000Y-15956765D01*
X42862761Y-15909146D01*
X42672285Y-15909146D01*
X42577047Y-15956765D01*
X42529428Y-16004384D01*
X42481809Y-16099622D01*
X43672285Y-15528193D02*
X43767523Y-15528193D01*
X43862761Y-15575813D01*
X43910380Y-15623432D01*
X43958000Y-15718670D01*
X44005619Y-15909146D01*
X44005619Y-16147241D01*
X43958000Y-16337717D01*
X43910380Y-16432955D01*
X43862761Y-16480574D01*
X43767523Y-16528193D01*
X43672285Y-16528193D01*
X43577047Y-16480574D01*
X43529428Y-16432955D01*
X43481809Y-16337717D01*
X43434190Y-16147241D01*
X43434190Y-15909146D01*
X43481809Y-15718670D01*
X43529428Y-15623432D01*
X43577047Y-15575813D01*
X43672285Y-15528193D01*
X45196095Y-16528193D02*
X45196095Y-15861527D01*
X45196095Y-15956765D02*
X45243714Y-15909146D01*
X45338952Y-15861527D01*
X45481809Y-15861527D01*
X45577047Y-15909146D01*
X45624666Y-16004384D01*
X45624666Y-16528193D01*
X45624666Y-16004384D02*
X45672285Y-15909146D01*
X45767523Y-15861527D01*
X45910380Y-15861527D01*
X46005619Y-15909146D01*
X46053238Y-16004384D01*
X46053238Y-16528193D01*
X46529428Y-16528193D02*
X46529428Y-15861527D01*
X46529428Y-15956765D02*
X46577047Y-15909146D01*
X46672285Y-15861527D01*
X46815142Y-15861527D01*
X46910380Y-15909146D01*
X46958000Y-16004384D01*
X46958000Y-16528193D01*
X46958000Y-16004384D02*
X47005619Y-15909146D01*
X47100857Y-15861527D01*
X47243714Y-15861527D01*
X47338952Y-15909146D01*
X47386571Y-16004384D01*
X47386571Y-16528193D01*
X74930000Y-17375813D02*
X14986000Y-17375813D01*
X74930000Y-27940000D02*
X74930000Y-16789392D01*
X14986000Y-27940000D02*
X14986000Y-16789392D01*
X14986000Y-17375813D02*
X16112504Y-16789392D01*
X14986000Y-17375813D02*
X16112504Y-17962234D01*
X74930000Y-17375813D02*
X73803496Y-16789392D01*
X74930000Y-17375813D02*
X73803496Y-17962234D01*
X102903665Y-15468187D02*
X102713189Y-15468519D01*
X102618034Y-15516305D01*
X102570498Y-15564007D01*
X102475510Y-15707030D01*
X102428223Y-15897589D01*
X102428888Y-16278541D01*
X102476673Y-16373695D01*
X102524375Y-16421231D01*
X102619696Y-16468684D01*
X102810172Y-16468352D01*
X102905327Y-16420566D01*
X102952863Y-16372864D01*
X103000316Y-16277543D01*
X102999900Y-16039448D01*
X102952115Y-15944294D01*
X102904413Y-15896758D01*
X102809092Y-15849305D01*
X102618616Y-15849637D01*
X102523461Y-15897423D01*
X102475925Y-15945125D01*
X102428472Y-16040446D01*
X103617949Y-15466940D02*
X103713187Y-15466774D01*
X103808508Y-15514227D01*
X103856210Y-15561763D01*
X103903996Y-15656918D01*
X103951947Y-15847310D01*
X103952363Y-16085405D01*
X103905076Y-16275964D01*
X103857623Y-16371285D01*
X103810088Y-16418987D01*
X103714933Y-16466773D01*
X103619695Y-16466939D01*
X103524374Y-16419486D01*
X103476672Y-16371950D01*
X103428886Y-16276795D01*
X103380935Y-16086403D01*
X103380519Y-15848308D01*
X103427806Y-15657749D01*
X103475259Y-15562428D01*
X103522795Y-15514725D01*
X103617949Y-15466940D01*
X105143502Y-16464279D02*
X105142338Y-15797614D01*
X105142505Y-15892852D02*
X105190040Y-15845149D01*
X105285195Y-15797364D01*
X105428052Y-15797115D01*
X105523373Y-15844568D01*
X105571158Y-15939722D01*
X105572073Y-16463531D01*
X105571158Y-15939722D02*
X105618611Y-15844401D01*
X105713766Y-15796616D01*
X105856623Y-15796367D01*
X105951944Y-15843820D01*
X105999729Y-15938974D01*
X106000643Y-16462783D01*
X106476833Y-16461952D02*
X106475670Y-15795286D01*
X106475836Y-15890524D02*
X106523372Y-15842822D01*
X106618527Y-15795037D01*
X106761384Y-15794788D01*
X106856705Y-15842241D01*
X106904490Y-15937395D01*
X106905404Y-16461204D01*
X106904490Y-15937395D02*
X106951943Y-15842074D01*
X107047097Y-15794289D01*
X107189954Y-15794040D01*
X107285275Y-15841493D01*
X107333061Y-15936647D01*
X107333975Y-16460456D01*
X134907370Y-17248812D02*
X74907370Y-17375812D01*
X134930000Y-27940000D02*
X134906129Y-16662393D01*
X74930000Y-28067000D02*
X74906129Y-16789393D01*
X74907370Y-17375812D02*
X76032630Y-16787008D01*
X74907370Y-17375812D02*
X76035112Y-17959847D01*
X134907370Y-17248812D02*
X133779628Y-16664777D01*
X134907370Y-17248812D02*
X133782110Y-17837616D01*
X140525238Y-16424380D02*
X139953809Y-16424380D01*
X140239523Y-16424380D02*
X140239523Y-15424380D01*
X140144285Y-15567238D01*
X140049047Y-15662476D01*
X139953809Y-15710095D01*
X141430000Y-15424380D02*
X140953809Y-15424380D01*
X140906190Y-15900571D01*
X140953809Y-15852952D01*
X141049047Y-15805333D01*
X141287142Y-15805333D01*
X141382380Y-15852952D01*
X141430000Y-15900571D01*
X141477619Y-15995809D01*
X141477619Y-16233904D01*
X141430000Y-16329142D01*
X141382380Y-16376761D01*
X141287142Y-16424380D01*
X141049047Y-16424380D01*
X140953809Y-16376761D01*
X140906190Y-16329142D01*
X142668095Y-16424380D02*
X142668095Y-15757714D01*
X142668095Y-15852952D02*
X142715714Y-15805333D01*
X142810952Y-15757714D01*
X142953809Y-15757714D01*
X143049047Y-15805333D01*
X143096666Y-15900571D01*
X143096666Y-16424380D01*
X143096666Y-15900571D02*
X143144285Y-15805333D01*
X143239523Y-15757714D01*
X143382380Y-15757714D01*
X143477619Y-15805333D01*
X143525238Y-15900571D01*
X143525238Y-16424380D01*
X144001428Y-16424380D02*
X144001428Y-15757714D01*
X144001428Y-15852952D02*
X144049047Y-15805333D01*
X144144285Y-15757714D01*
X144287142Y-15757714D01*
X144382380Y-15805333D01*
X144430000Y-15900571D01*
X144430000Y-16424380D01*
X144430000Y-15900571D02*
X144477619Y-15805333D01*
X144572857Y-15757714D01*
X144715714Y-15757714D01*
X144810952Y-15805333D01*
X144858571Y-15900571D01*
X144858571Y-16424380D01*
X149930000Y-17272000D02*
X134930000Y-17272000D01*
X149930000Y-27940000D02*
X149930000Y-16685579D01*
X134930000Y-27940000D02*
X134930000Y-16685579D01*
X134930000Y-17272000D02*
X136056504Y-16685579D01*
X134930000Y-17272000D02*
X136056504Y-17858421D01*
X149930000Y-17272000D02*
X148803496Y-16685579D01*
X149930000Y-17272000D02*
X148803496Y-17858421D01*
D11*
X153740000Y-133803000D02*
X151890000Y-133303000D01*
X151890000Y-133803000D02*
X153740000Y-134303000D01*
X153740000Y-134803000D02*
X151890000Y-134303000D01*
X151890000Y-134803000D02*
X153740000Y-135303000D01*
X153740000Y-135703000D02*
X151890000Y-135303000D01*
X153740000Y-133253000D02*
X151890000Y-133253000D01*
X151890000Y-135753000D02*
X153740000Y-135753000D01*
X156090000Y-137003000D02*
X156090000Y-136503000D01*
X158090000Y-137703000D02*
X156090000Y-137003000D01*
X156090000Y-138003000D02*
X156090000Y-137503000D01*
X158090000Y-138703000D02*
X156090000Y-138003000D01*
X156090000Y-138703000D02*
X158090000Y-138703000D01*
X156090000Y-138703000D02*
X156090000Y-130203000D01*
X153740000Y-133253000D02*
X153740000Y-135753000D01*
X158090000Y-138703000D02*
X158090000Y-130203000D01*
X158090000Y-138203000D02*
X156090000Y-137503000D01*
X158090000Y-137203000D02*
X156090000Y-136503000D01*
X158090000Y-136703000D02*
X156090000Y-136003000D01*
X158090000Y-136203000D02*
X156090000Y-135503000D01*
X158090000Y-135703000D02*
X156090000Y-135003000D01*
X158090000Y-135203000D02*
X156090000Y-134503000D01*
X158090000Y-134703000D02*
X156090000Y-134003000D01*
X158090000Y-134203000D02*
X156090000Y-133503000D01*
X158090000Y-133703000D02*
X156090000Y-133003000D01*
X158090000Y-133203000D02*
X156090000Y-132503000D01*
X158090000Y-132703000D02*
X156090000Y-132003000D01*
X158090000Y-132203000D02*
X156090000Y-131503000D01*
X158090000Y-131703000D02*
X156090000Y-131003000D01*
X158090000Y-131203000D02*
X156090000Y-130503000D01*
X158090000Y-130703000D02*
X156640000Y-130203000D01*
X158090000Y-130203000D02*
X156090000Y-130203000D01*
X151890000Y-133253000D02*
X151890000Y-135753000D01*
M02*
