%TF.GenerationSoftware,KiCad,Pcbnew,(5.1.12)-1*%
%TF.CreationDate,2023-01-04T10:21:47+01:00*%
%TF.ProjectId,current3Av2,63757272-656e-4743-9341-76322e6b6963,1.0*%
%TF.SameCoordinates,Original*%
%TF.FileFunction,AssemblyDrawing,Bot*%
%FSLAX46Y46*%
G04 Gerber Fmt 4.6, Leading zero omitted, Abs format (unit mm)*
G04 Created by KiCad (PCBNEW (5.1.12)-1) date 2023-01-04 10:21:47*
%MOMM*%
%LPD*%
G01*
G04 APERTURE LIST*
%ADD10C,0.150000*%
%ADD11C,0.100000*%
G04 APERTURE END LIST*
D10*
X-15070000Y-52940000D02*
X149930000Y-52940000D01*
X149930000Y-27940000D02*
X149930000Y-40640000D01*
X149930000Y-52940000D02*
X149930000Y-2940000D01*
X-15070000Y-2940000D02*
X149930000Y-2940000D01*
X-15070000Y-52940000D02*
X-15070000Y-2940000D01*
X134930000Y-27940000D02*
X121930000Y-27940000D01*
D11*
X112410000Y-62270000D02*
G75*
G03*
X112410000Y-62270000I-7000000J0D01*
G01*
X105410000Y-67970000D02*
X105410000Y-66170000D01*
X106310000Y-67070000D02*
X104510000Y-67070000D01*
X24522000Y-67070000D02*
X22722000Y-67070000D01*
X23622000Y-67970000D02*
X23622000Y-66170000D01*
X30622000Y-62270000D02*
G75*
G03*
X30622000Y-62270000I-7000000J0D01*
G01*
X65543000Y-67070000D02*
X63743000Y-67070000D01*
X64643000Y-67970000D02*
X64643000Y-66170000D01*
X71643000Y-62270000D02*
G75*
G03*
X71643000Y-62270000I-7000000J0D01*
G01*
X171483000Y-121332000D02*
X172483000Y-111332000D01*
X170483000Y-121332000D02*
X171483000Y-111332000D01*
X169483000Y-121332000D02*
X170483000Y-111332000D01*
X168483000Y-121332000D02*
X169483000Y-111332000D01*
X167483000Y-121332000D02*
X168483000Y-111332000D01*
X166483000Y-121332000D02*
X167483000Y-111332000D01*
X180653000Y-116332000D02*
G75*
G03*
X180653000Y-116332000I-1000000J0D01*
G01*
X172783000Y-111532000D02*
X184883000Y-111532000D01*
X184883000Y-111532000D02*
X184883000Y-121132000D01*
X184883000Y-121132000D02*
X172783000Y-121132000D01*
X164183000Y-109982000D02*
X172783000Y-109982000D01*
X172783000Y-109982000D02*
X172783000Y-122682000D01*
X172783000Y-122682000D02*
X164183000Y-122682000D01*
X148683000Y-123532000D02*
X148683000Y-109132000D01*
X148683000Y-109132000D02*
X164183000Y-109132000D01*
X164183000Y-109132000D02*
X164183000Y-123532000D01*
X164183000Y-123532000D02*
X148683000Y-123532000D01*
X165483000Y-121332000D02*
X166483000Y-111332000D01*
X165483000Y-98218000D02*
X166483000Y-88218000D01*
X164183000Y-100418000D02*
X148683000Y-100418000D01*
X164183000Y-86018000D02*
X164183000Y-100418000D01*
X148683000Y-86018000D02*
X164183000Y-86018000D01*
X148683000Y-100418000D02*
X148683000Y-86018000D01*
X172783000Y-99568000D02*
X164183000Y-99568000D01*
X172783000Y-86868000D02*
X172783000Y-99568000D01*
X164183000Y-86868000D02*
X172783000Y-86868000D01*
X184883000Y-98018000D02*
X172783000Y-98018000D01*
X184883000Y-88418000D02*
X184883000Y-98018000D01*
X172783000Y-88418000D02*
X184883000Y-88418000D01*
X180653000Y-93218000D02*
G75*
G03*
X180653000Y-93218000I-1000000J0D01*
G01*
X166483000Y-98218000D02*
X167483000Y-88218000D01*
X167483000Y-98218000D02*
X168483000Y-88218000D01*
X168483000Y-98218000D02*
X169483000Y-88218000D01*
X169483000Y-98218000D02*
X170483000Y-88218000D01*
X170483000Y-98218000D02*
X171483000Y-88218000D01*
X171483000Y-98218000D02*
X172483000Y-88218000D01*
X149973000Y-73417000D02*
X149973000Y-71617000D01*
X149073000Y-72517000D02*
X150873000Y-72517000D01*
X161773000Y-72517000D02*
G75*
G03*
X161773000Y-72517000I-7000000J0D01*
G01*
X1798000Y-125964000D02*
X1798000Y-146324000D01*
X2348000Y-126504000D02*
X2348000Y-145764000D01*
X10648000Y-125964000D02*
X10648000Y-146324000D01*
X10098000Y-126504000D02*
X10098000Y-133894000D01*
X10098000Y-138394000D02*
X10098000Y-145764000D01*
X10098000Y-133894000D02*
X10648000Y-133894000D01*
X10098000Y-138394000D02*
X10648000Y-138394000D01*
X1798000Y-125964000D02*
X10648000Y-125964000D01*
X2348000Y-126504000D02*
X10098000Y-126504000D01*
X1798000Y-146324000D02*
X10648000Y-146324000D01*
X2348000Y-145764000D02*
X10098000Y-145764000D01*
X1798000Y-125964000D02*
X2348000Y-126504000D01*
X1798000Y-146324000D02*
X2348000Y-145764000D01*
X10648000Y-125964000D02*
X10098000Y-126504000D01*
X10648000Y-146324000D02*
X10098000Y-145764000D01*
X10648000Y-122067000D02*
X10098000Y-121507000D01*
X10648000Y-101707000D02*
X10098000Y-102247000D01*
X1798000Y-122067000D02*
X2348000Y-121507000D01*
X1798000Y-101707000D02*
X2348000Y-102247000D01*
X2348000Y-121507000D02*
X10098000Y-121507000D01*
X1798000Y-122067000D02*
X10648000Y-122067000D01*
X2348000Y-102247000D02*
X10098000Y-102247000D01*
X1798000Y-101707000D02*
X10648000Y-101707000D01*
X10098000Y-114137000D02*
X10648000Y-114137000D01*
X10098000Y-109637000D02*
X10648000Y-109637000D01*
X10098000Y-114137000D02*
X10098000Y-121507000D01*
X10098000Y-102247000D02*
X10098000Y-109637000D01*
X10648000Y-101707000D02*
X10648000Y-122067000D01*
X2348000Y-102247000D02*
X2348000Y-121507000D01*
X1798000Y-101707000D02*
X1798000Y-122067000D01*
X35578000Y-58285000D02*
X35578000Y-62865000D01*
X38978000Y-58285000D02*
X38978000Y-62865000D01*
X42378000Y-58285000D02*
X42378000Y-62865000D01*
X45778000Y-58285000D02*
X45778000Y-62865000D01*
X49178000Y-58285000D02*
X49178000Y-62865000D01*
X52578000Y-58285000D02*
X52578000Y-62865000D01*
X42228000Y-53285000D02*
X42228000Y-54885000D01*
X45928000Y-53285000D02*
X45928000Y-54885000D01*
X54178000Y-54885000D02*
X33978000Y-54885000D01*
X33978000Y-53285000D02*
X54178000Y-53285000D01*
X33978000Y-58285000D02*
X33978000Y-53285000D01*
X54178000Y-58285000D02*
X33978000Y-58285000D01*
X54178000Y-53285000D02*
X54178000Y-58285000D01*
X94945000Y-53285000D02*
X94945000Y-58285000D01*
X94945000Y-58285000D02*
X74745000Y-58285000D01*
X74745000Y-58285000D02*
X74745000Y-53285000D01*
X74745000Y-53285000D02*
X94945000Y-53285000D01*
X94945000Y-54885000D02*
X74745000Y-54885000D01*
X86695000Y-53285000D02*
X86695000Y-54885000D01*
X82995000Y-53285000D02*
X82995000Y-54885000D01*
X93345000Y-58285000D02*
X93345000Y-62865000D01*
X89945000Y-58285000D02*
X89945000Y-62865000D01*
X86545000Y-58285000D02*
X86545000Y-62865000D01*
X83145000Y-58285000D02*
X83145000Y-62865000D01*
X79745000Y-58285000D02*
X79745000Y-62865000D01*
X76345000Y-58285000D02*
X76345000Y-62865000D01*
X117366000Y-58285000D02*
X117366000Y-62865000D01*
X120766000Y-58285000D02*
X120766000Y-62865000D01*
X124166000Y-58285000D02*
X124166000Y-62865000D01*
X127566000Y-58285000D02*
X127566000Y-62865000D01*
X130966000Y-58285000D02*
X130966000Y-62865000D01*
X134366000Y-58285000D02*
X134366000Y-62865000D01*
X124016000Y-53285000D02*
X124016000Y-54885000D01*
X127716000Y-53285000D02*
X127716000Y-54885000D01*
X135966000Y-54885000D02*
X115766000Y-54885000D01*
X115766000Y-53285000D02*
X135966000Y-53285000D01*
X115766000Y-58285000D02*
X115766000Y-53285000D01*
X135966000Y-58285000D02*
X115766000Y-58285000D01*
X135966000Y-53285000D02*
X135966000Y-58285000D01*
D10*
X105767142Y-61627142D02*
X105814761Y-61579523D01*
X105862380Y-61436666D01*
X105862380Y-61341428D01*
X105814761Y-61198571D01*
X105719523Y-61103333D01*
X105624285Y-61055714D01*
X105433809Y-61008095D01*
X105290952Y-61008095D01*
X105100476Y-61055714D01*
X105005238Y-61103333D01*
X104910000Y-61198571D01*
X104862380Y-61341428D01*
X104862380Y-61436666D01*
X104910000Y-61579523D01*
X104957619Y-61627142D01*
X105195714Y-62484285D02*
X105862380Y-62484285D01*
X104814761Y-62246190D02*
X105529047Y-62008095D01*
X105529047Y-62627142D01*
X105290952Y-63150952D02*
X105243333Y-63055714D01*
X105195714Y-63008095D01*
X105100476Y-62960476D01*
X105052857Y-62960476D01*
X104957619Y-63008095D01*
X104910000Y-63055714D01*
X104862380Y-63150952D01*
X104862380Y-63341428D01*
X104910000Y-63436666D01*
X104957619Y-63484285D01*
X105052857Y-63531904D01*
X105100476Y-63531904D01*
X105195714Y-63484285D01*
X105243333Y-63436666D01*
X105290952Y-63341428D01*
X105290952Y-63150952D01*
X105338571Y-63055714D01*
X105386190Y-63008095D01*
X105481428Y-62960476D01*
X105671904Y-62960476D01*
X105767142Y-63008095D01*
X105814761Y-63055714D01*
X105862380Y-63150952D01*
X105862380Y-63341428D01*
X105814761Y-63436666D01*
X105767142Y-63484285D01*
X105671904Y-63531904D01*
X105481428Y-63531904D01*
X105386190Y-63484285D01*
X105338571Y-63436666D01*
X105290952Y-63341428D01*
X23979142Y-62103333D02*
X24026761Y-62055714D01*
X24074380Y-61912857D01*
X24074380Y-61817619D01*
X24026761Y-61674761D01*
X23931523Y-61579523D01*
X23836285Y-61531904D01*
X23645809Y-61484285D01*
X23502952Y-61484285D01*
X23312476Y-61531904D01*
X23217238Y-61579523D01*
X23122000Y-61674761D01*
X23074380Y-61817619D01*
X23074380Y-61912857D01*
X23122000Y-62055714D01*
X23169619Y-62103333D01*
X23407714Y-62960476D02*
X24074380Y-62960476D01*
X23026761Y-62722380D02*
X23741047Y-62484285D01*
X23741047Y-63103333D01*
X65000142Y-61627142D02*
X65047761Y-61579523D01*
X65095380Y-61436666D01*
X65095380Y-61341428D01*
X65047761Y-61198571D01*
X64952523Y-61103333D01*
X64857285Y-61055714D01*
X64666809Y-61008095D01*
X64523952Y-61008095D01*
X64333476Y-61055714D01*
X64238238Y-61103333D01*
X64143000Y-61198571D01*
X64095380Y-61341428D01*
X64095380Y-61436666D01*
X64143000Y-61579523D01*
X64190619Y-61627142D01*
X64190619Y-62008095D02*
X64143000Y-62055714D01*
X64095380Y-62150952D01*
X64095380Y-62389047D01*
X64143000Y-62484285D01*
X64190619Y-62531904D01*
X64285857Y-62579523D01*
X64381095Y-62579523D01*
X64523952Y-62531904D01*
X65095380Y-61960476D01*
X65095380Y-62579523D01*
X64095380Y-63484285D02*
X64095380Y-63008095D01*
X64571571Y-62960476D01*
X64523952Y-63008095D01*
X64476333Y-63103333D01*
X64476333Y-63341428D01*
X64523952Y-63436666D01*
X64571571Y-63484285D01*
X64666809Y-63531904D01*
X64904904Y-63531904D01*
X65000142Y-63484285D01*
X65047761Y-63436666D01*
X65095380Y-63341428D01*
X65095380Y-63103333D01*
X65047761Y-63008095D01*
X65000142Y-62960476D01*
X150280619Y-117093904D02*
X149566333Y-117093904D01*
X149423476Y-117141523D01*
X149328238Y-117236761D01*
X149280619Y-117379619D01*
X149280619Y-117474857D01*
X149804428Y-116284380D02*
X149804428Y-116617714D01*
X149280619Y-116617714D02*
X150280619Y-116617714D01*
X150280619Y-116141523D01*
X149280619Y-115236761D02*
X149280619Y-115808190D01*
X149280619Y-115522476D02*
X150280619Y-115522476D01*
X150137761Y-115617714D01*
X150042523Y-115712952D01*
X149994904Y-115808190D01*
X150280619Y-93979904D02*
X149566333Y-93979904D01*
X149423476Y-94027523D01*
X149328238Y-94122761D01*
X149280619Y-94265619D01*
X149280619Y-94360857D01*
X149804428Y-93170380D02*
X149804428Y-93503714D01*
X149280619Y-93503714D02*
X150280619Y-93503714D01*
X150280619Y-93027523D01*
X150185380Y-92694190D02*
X150233000Y-92646571D01*
X150280619Y-92551333D01*
X150280619Y-92313238D01*
X150233000Y-92218000D01*
X150185380Y-92170380D01*
X150090142Y-92122761D01*
X149994904Y-92122761D01*
X149852047Y-92170380D01*
X149280619Y-92741809D01*
X149280619Y-92122761D01*
X154939666Y-72874142D02*
X154987285Y-72921761D01*
X155130142Y-72969380D01*
X155225380Y-72969380D01*
X155368238Y-72921761D01*
X155463476Y-72826523D01*
X155511095Y-72731285D01*
X155558714Y-72540809D01*
X155558714Y-72397952D01*
X155511095Y-72207476D01*
X155463476Y-72112238D01*
X155368238Y-72017000D01*
X155225380Y-71969380D01*
X155130142Y-71969380D01*
X154987285Y-72017000D01*
X154939666Y-72064619D01*
X154463476Y-72969380D02*
X154273000Y-72969380D01*
X154177761Y-72921761D01*
X154130142Y-72874142D01*
X154034904Y-72731285D01*
X153987285Y-72540809D01*
X153987285Y-72159857D01*
X154034904Y-72064619D01*
X154082523Y-72017000D01*
X154177761Y-71969380D01*
X154368238Y-71969380D01*
X154463476Y-72017000D01*
X154511095Y-72064619D01*
X154558714Y-72159857D01*
X154558714Y-72397952D01*
X154511095Y-72493190D01*
X154463476Y-72540809D01*
X154368238Y-72588428D01*
X154177761Y-72588428D01*
X154082523Y-72540809D01*
X154034904Y-72493190D01*
X153987285Y-72397952D01*
X6556333Y-135596380D02*
X6556333Y-136310666D01*
X6603952Y-136453523D01*
X6699190Y-136548761D01*
X6842047Y-136596380D01*
X6937285Y-136596380D01*
X5651571Y-135596380D02*
X5842047Y-135596380D01*
X5937285Y-135644000D01*
X5984904Y-135691619D01*
X6080142Y-135834476D01*
X6127761Y-136024952D01*
X6127761Y-136405904D01*
X6080142Y-136501142D01*
X6032523Y-136548761D01*
X5937285Y-136596380D01*
X5746809Y-136596380D01*
X5651571Y-136548761D01*
X5603952Y-136501142D01*
X5556333Y-136405904D01*
X5556333Y-136167809D01*
X5603952Y-136072571D01*
X5651571Y-136024952D01*
X5746809Y-135977333D01*
X5937285Y-135977333D01*
X6032523Y-136024952D01*
X6080142Y-136072571D01*
X6127761Y-136167809D01*
X6556333Y-111339380D02*
X6556333Y-112053666D01*
X6603952Y-112196523D01*
X6699190Y-112291761D01*
X6842047Y-112339380D01*
X6937285Y-112339380D01*
X6175380Y-111339380D02*
X5508714Y-111339380D01*
X5937285Y-112339380D01*
X44839904Y-51617380D02*
X44839904Y-52426904D01*
X44792285Y-52522142D01*
X44744666Y-52569761D01*
X44649428Y-52617380D01*
X44458952Y-52617380D01*
X44363714Y-52569761D01*
X44316095Y-52522142D01*
X44268476Y-52426904D01*
X44268476Y-51617380D01*
X43744666Y-52617380D02*
X43554190Y-52617380D01*
X43458952Y-52569761D01*
X43411333Y-52522142D01*
X43316095Y-52379285D01*
X43268476Y-52188809D01*
X43268476Y-51807857D01*
X43316095Y-51712619D01*
X43363714Y-51665000D01*
X43458952Y-51617380D01*
X43649428Y-51617380D01*
X43744666Y-51665000D01*
X43792285Y-51712619D01*
X43839904Y-51807857D01*
X43839904Y-52045952D01*
X43792285Y-52141190D01*
X43744666Y-52188809D01*
X43649428Y-52236428D01*
X43458952Y-52236428D01*
X43363714Y-52188809D01*
X43316095Y-52141190D01*
X43268476Y-52045952D01*
X86083095Y-51617380D02*
X86083095Y-52426904D01*
X86035476Y-52522142D01*
X85987857Y-52569761D01*
X85892619Y-52617380D01*
X85702142Y-52617380D01*
X85606904Y-52569761D01*
X85559285Y-52522142D01*
X85511666Y-52426904D01*
X85511666Y-51617380D01*
X84511666Y-52617380D02*
X85083095Y-52617380D01*
X84797380Y-52617380D02*
X84797380Y-51617380D01*
X84892619Y-51760238D01*
X84987857Y-51855476D01*
X85083095Y-51903095D01*
X83940238Y-52045952D02*
X84035476Y-51998333D01*
X84083095Y-51950714D01*
X84130714Y-51855476D01*
X84130714Y-51807857D01*
X84083095Y-51712619D01*
X84035476Y-51665000D01*
X83940238Y-51617380D01*
X83749761Y-51617380D01*
X83654523Y-51665000D01*
X83606904Y-51712619D01*
X83559285Y-51807857D01*
X83559285Y-51855476D01*
X83606904Y-51950714D01*
X83654523Y-51998333D01*
X83749761Y-52045952D01*
X83940238Y-52045952D01*
X84035476Y-52093571D01*
X84083095Y-52141190D01*
X84130714Y-52236428D01*
X84130714Y-52426904D01*
X84083095Y-52522142D01*
X84035476Y-52569761D01*
X83940238Y-52617380D01*
X83749761Y-52617380D01*
X83654523Y-52569761D01*
X83606904Y-52522142D01*
X83559285Y-52426904D01*
X83559285Y-52236428D01*
X83606904Y-52141190D01*
X83654523Y-52093571D01*
X83749761Y-52045952D01*
X127104095Y-51617380D02*
X127104095Y-52426904D01*
X127056476Y-52522142D01*
X127008857Y-52569761D01*
X126913619Y-52617380D01*
X126723142Y-52617380D01*
X126627904Y-52569761D01*
X126580285Y-52522142D01*
X126532666Y-52426904D01*
X126532666Y-51617380D01*
X126104095Y-51712619D02*
X126056476Y-51665000D01*
X125961238Y-51617380D01*
X125723142Y-51617380D01*
X125627904Y-51665000D01*
X125580285Y-51712619D01*
X125532666Y-51807857D01*
X125532666Y-51903095D01*
X125580285Y-52045952D01*
X126151714Y-52617380D01*
X125532666Y-52617380D01*
X125199333Y-51617380D02*
X124532666Y-51617380D01*
X124961238Y-52617380D01*
M02*
