%TF.GenerationSoftware,KiCad,Pcbnew,(5.1.12)-1*%
%TF.CreationDate,2023-01-04T10:21:47+01:00*%
%TF.ProjectId,current3Av2,63757272-656e-4743-9341-76322e6b6963,1.0*%
%TF.SameCoordinates,Original*%
%TF.FileFunction,Paste,Top*%
%TF.FilePolarity,Positive*%
%FSLAX46Y46*%
G04 Gerber Fmt 4.6, Leading zero omitted, Abs format (unit mm)*
G04 Created by KiCad (PCBNEW (5.1.12)-1) date 2023-01-04 10:21:47*
%MOMM*%
%LPD*%
G01*
G04 APERTURE LIST*
%ADD10R,0.500000X0.750000*%
%ADD11R,1.500000X1.500000*%
%ADD12R,0.400000X0.750000*%
%ADD13R,2.300000X2.500000*%
%ADD14R,0.800000X0.750000*%
%ADD15R,0.800000X0.900000*%
%ADD16R,0.500000X0.900000*%
%ADD17R,1.600000X1.000000*%
%ADD18R,0.650000X1.060000*%
%ADD19R,1.550000X0.600000*%
%ADD20R,0.750000X0.800000*%
%ADD21R,1.250000X1.000000*%
%ADD22R,1.000000X2.500000*%
%ADD23R,1.000000X1.250000*%
%ADD24R,2.500000X2.300000*%
%ADD25R,0.900000X1.200000*%
%ADD26R,1.750000X0.700000*%
%ADD27R,1.500000X1.300000*%
%ADD28R,1.500000X0.800000*%
%ADD29R,1.000000X1.450000*%
%ADD30R,1.400000X0.800000*%
%ADD31R,1.550000X1.000000*%
%ADD32R,3.000000X1.200000*%
%ADD33C,0.100000*%
%ADD34R,3.100000X2.000000*%
%ADD35R,1.300000X2.800000*%
%ADD36R,0.900000X0.500000*%
%ADD37R,0.700000X1.300000*%
%ADD38R,0.900000X0.400000*%
%ADD39R,0.750000X0.400000*%
%ADD40R,0.750000X0.500000*%
%ADD41R,0.650000X1.220000*%
%ADD42R,1.500000X0.450000*%
%ADD43R,1.500000X0.600000*%
%ADD44R,2.500000X1.000000*%
%ADD45R,2.500000X1.800000*%
%ADD46R,2.000000X3.100000*%
%ADD47R,1.300000X0.700000*%
%ADD48R,1.220000X0.650000*%
%ADD49R,0.450000X1.750000*%
%ADD50R,3.800000X2.000000*%
%ADD51R,1.500000X2.000000*%
%ADD52R,1.000000X3.200000*%
%ADD53R,2.200000X1.200000*%
%ADD54R,2.550000X2.700000*%
G04 APERTURE END LIST*
D10*
X143764000Y-42021000D03*
X145034000Y-42021000D03*
X146304000Y-42021000D03*
X147574000Y-42021000D03*
D11*
X144819000Y-38916000D03*
X146519000Y-38916000D03*
X144819000Y-40616000D03*
X146519000Y-40616000D03*
D12*
X143764000Y-36216000D03*
X145034000Y-36216000D03*
X146304000Y-36216000D03*
X147574000Y-36216000D03*
D13*
X151511000Y-53730000D03*
X151511000Y-58030000D03*
X151511000Y-45602000D03*
X151511000Y-49902000D03*
X151511000Y-28838000D03*
X151511000Y-33138000D03*
D14*
X139180000Y-58293000D03*
X137680000Y-58293000D03*
D15*
X138430000Y-60341000D03*
X139380000Y-62341000D03*
X137480000Y-62341000D03*
D16*
X129044000Y-65913000D03*
X130544000Y-65913000D03*
D17*
X136779000Y-68810000D03*
X136779000Y-65810000D03*
D10*
X143764000Y-50657000D03*
X145034000Y-50657000D03*
X146304000Y-50657000D03*
X147574000Y-50657000D03*
D11*
X144819000Y-47552000D03*
X146519000Y-47552000D03*
X144819000Y-49252000D03*
X146519000Y-49252000D03*
D12*
X143764000Y-44852000D03*
X145034000Y-44852000D03*
X146304000Y-44852000D03*
X147574000Y-44852000D03*
D18*
X139385000Y-64559000D03*
X141285000Y-64559000D03*
X141285000Y-66759000D03*
X140335000Y-66759000D03*
X139385000Y-66759000D03*
D14*
X128893000Y-46736000D03*
X127393000Y-46736000D03*
X128893000Y-38862000D03*
X127393000Y-38862000D03*
D16*
X133235000Y-34290000D03*
X134735000Y-34290000D03*
X133235000Y-36830000D03*
X134735000Y-36830000D03*
D19*
X130843000Y-33020000D03*
X130843000Y-34290000D03*
X130843000Y-35560000D03*
X130843000Y-36830000D03*
X125443000Y-36830000D03*
X125443000Y-35560000D03*
X125443000Y-34290000D03*
X125443000Y-33020000D03*
D20*
X32766000Y-62599000D03*
X32766000Y-61099000D03*
D21*
X23876000Y-126857000D03*
X23876000Y-124857000D03*
D14*
X59678000Y-70612000D03*
X58178000Y-70612000D03*
X56146000Y-58293000D03*
X57646000Y-58293000D03*
D21*
X23876000Y-129175000D03*
X23876000Y-131175000D03*
D14*
X22110000Y-87757000D03*
X23610000Y-87757000D03*
X98945000Y-70612000D03*
X100445000Y-70612000D03*
X100445000Y-68961000D03*
X98945000Y-68961000D03*
D17*
X54864000Y-68683000D03*
X54864000Y-65683000D03*
D22*
X19915000Y-83312000D03*
X16915000Y-83312000D03*
D23*
X12462000Y-137160000D03*
X14462000Y-137160000D03*
D14*
X39993000Y-90043000D03*
X38493000Y-90043000D03*
X141339000Y-70612000D03*
X139839000Y-70612000D03*
X141339000Y-68961000D03*
X139839000Y-68961000D03*
D20*
X40132000Y-86753000D03*
X40132000Y-88253000D03*
D14*
X49137000Y-87503000D03*
X47637000Y-87503000D03*
X21221000Y-48514000D03*
X22721000Y-48514000D03*
D17*
X29083000Y-92686000D03*
X29083000Y-89686000D03*
D14*
X71386000Y-48006000D03*
X72886000Y-48006000D03*
D17*
X64897000Y-127103000D03*
X64897000Y-124103000D03*
X62230000Y-127103000D03*
X62230000Y-124103000D03*
D20*
X84328000Y-82689000D03*
X84328000Y-84189000D03*
X71755000Y-79387000D03*
X71755000Y-80887000D03*
X75438000Y-143625000D03*
X75438000Y-142125000D03*
X71755000Y-84189000D03*
X71755000Y-82689000D03*
D14*
X159054000Y-125603000D03*
X160554000Y-125603000D03*
D20*
X14986000Y-120535000D03*
X14986000Y-122035000D03*
D15*
X55946000Y-62341000D03*
X57846000Y-62341000D03*
X56896000Y-60341000D03*
D24*
X47761000Y-28067000D03*
X52061000Y-28067000D03*
D25*
X76201000Y-66294000D03*
X79501000Y-66294000D03*
D24*
X43552000Y-28067000D03*
X39252000Y-28067000D03*
D25*
X38607000Y-66294000D03*
X35307000Y-66294000D03*
D24*
X85480000Y-51943000D03*
X89780000Y-51943000D03*
X129150000Y-51943000D03*
X124850000Y-51943000D03*
X93844000Y-27813000D03*
X89544000Y-27813000D03*
X85716000Y-27813000D03*
X81416000Y-27813000D03*
D13*
X151511000Y-36966000D03*
X151511000Y-41266000D03*
D26*
X162965000Y-138303000D03*
D27*
X162840000Y-139503000D03*
D28*
X155240000Y-139753000D03*
D29*
X153740000Y-139428000D03*
D30*
X154590000Y-127803000D03*
D26*
X162965000Y-137203000D03*
X162965000Y-136103000D03*
X162965000Y-135003000D03*
X162965000Y-133903000D03*
X162965000Y-132803000D03*
X162965000Y-131703000D03*
X162965000Y-130603000D03*
D11*
X162840000Y-128153000D03*
D31*
X152165000Y-128203000D03*
D32*
X127702000Y-101326000D03*
X127702000Y-98826000D03*
X120202000Y-98826000D03*
X120202000Y-101326000D03*
D33*
G36*
X22076000Y-79387000D02*
G01*
X22376000Y-77937000D01*
X25376000Y-77937000D01*
X25676000Y-79387000D01*
X22076000Y-79387000D01*
G37*
G36*
X22376000Y-82337000D02*
G01*
X22076000Y-80887000D01*
X25676000Y-80887000D01*
X25376000Y-82337000D01*
X22376000Y-82337000D01*
G37*
D34*
X37465000Y-98662000D03*
X37465000Y-93362000D03*
D35*
X67253000Y-128016000D03*
X69653000Y-128016000D03*
D16*
X26936000Y-35814000D03*
X28436000Y-35814000D03*
D36*
X56007000Y-54876000D03*
X56007000Y-56376000D03*
D16*
X65544000Y-45974000D03*
X67044000Y-45974000D03*
X40906000Y-67437000D03*
X42406000Y-67437000D03*
X65544000Y-38100000D03*
X67044000Y-38100000D03*
X77228000Y-43434000D03*
X78728000Y-43434000D03*
X88150000Y-67691000D03*
X89650000Y-67691000D03*
D36*
X96647000Y-56376000D03*
X96647000Y-54876000D03*
D16*
X77228000Y-38100000D03*
X78728000Y-38100000D03*
X123051000Y-44704000D03*
X121551000Y-44704000D03*
X83173000Y-67437000D03*
X81673000Y-67437000D03*
X134735000Y-42164000D03*
X133235000Y-42164000D03*
X133235000Y-44704000D03*
X134735000Y-44704000D03*
X122694000Y-67437000D03*
X124194000Y-67437000D03*
D37*
X93406000Y-68199000D03*
X91506000Y-68199000D03*
X132400000Y-68199000D03*
X134300000Y-68199000D03*
X93406000Y-66040000D03*
X91506000Y-66040000D03*
D36*
X38481000Y-88253000D03*
X38481000Y-86753000D03*
X41910000Y-88253000D03*
X41910000Y-86753000D03*
D38*
X140296000Y-118637000D03*
X140296000Y-117837000D03*
X140296000Y-119437000D03*
X140296000Y-117037000D03*
X138596000Y-119437000D03*
X138596000Y-118637000D03*
X138596000Y-117837000D03*
X138596000Y-117037000D03*
X146011000Y-118637000D03*
X146011000Y-117837000D03*
X146011000Y-119437000D03*
X146011000Y-117037000D03*
X144311000Y-119437000D03*
X144311000Y-118637000D03*
X144311000Y-117837000D03*
X144311000Y-117037000D03*
D39*
X55012000Y-32004000D03*
X55012000Y-33274000D03*
X55012000Y-34544000D03*
X55012000Y-35814000D03*
D11*
X59412000Y-33059000D03*
X59412000Y-34759000D03*
X57712000Y-33059000D03*
X57712000Y-34759000D03*
D40*
X60817000Y-32004000D03*
X60817000Y-33274000D03*
X60817000Y-34544000D03*
X60817000Y-35814000D03*
X52816000Y-35814000D03*
X52816000Y-34544000D03*
X52816000Y-33274000D03*
X52816000Y-32004000D03*
D11*
X49711000Y-34759000D03*
X49711000Y-33059000D03*
X51411000Y-34759000D03*
X51411000Y-33059000D03*
D39*
X47011000Y-35814000D03*
X47011000Y-34544000D03*
X47011000Y-33274000D03*
X47011000Y-32004000D03*
X38375000Y-32004000D03*
X38375000Y-33274000D03*
X38375000Y-34544000D03*
X38375000Y-35814000D03*
D11*
X42775000Y-33059000D03*
X42775000Y-34759000D03*
X41075000Y-33059000D03*
X41075000Y-34759000D03*
D40*
X44180000Y-32004000D03*
X44180000Y-33274000D03*
X44180000Y-34544000D03*
X44180000Y-35814000D03*
X36179000Y-35814000D03*
X36179000Y-34544000D03*
X36179000Y-33274000D03*
X36179000Y-32004000D03*
D11*
X33074000Y-34759000D03*
X33074000Y-33059000D03*
X34774000Y-34759000D03*
X34774000Y-33059000D03*
D39*
X30374000Y-35814000D03*
X30374000Y-34544000D03*
X30374000Y-33274000D03*
X30374000Y-32004000D03*
X105558000Y-31623000D03*
X105558000Y-32893000D03*
X105558000Y-34163000D03*
X105558000Y-35433000D03*
D11*
X109958000Y-32678000D03*
X109958000Y-34378000D03*
X108258000Y-32678000D03*
X108258000Y-34378000D03*
D40*
X111363000Y-31623000D03*
X111363000Y-32893000D03*
X111363000Y-34163000D03*
X111363000Y-35433000D03*
X103235000Y-35560000D03*
X103235000Y-34290000D03*
X103235000Y-33020000D03*
X103235000Y-31750000D03*
D11*
X100130000Y-34505000D03*
X100130000Y-32805000D03*
X101830000Y-34505000D03*
X101830000Y-32805000D03*
D39*
X97430000Y-35560000D03*
X97430000Y-34290000D03*
X97430000Y-33020000D03*
X97430000Y-31750000D03*
X88794000Y-31750000D03*
X88794000Y-33020000D03*
X88794000Y-34290000D03*
X88794000Y-35560000D03*
D11*
X93194000Y-32805000D03*
X93194000Y-34505000D03*
X91494000Y-32805000D03*
X91494000Y-34505000D03*
D40*
X94599000Y-31750000D03*
X94599000Y-33020000D03*
X94599000Y-34290000D03*
X94599000Y-35560000D03*
X86471000Y-35560000D03*
X86471000Y-34290000D03*
X86471000Y-33020000D03*
X86471000Y-31750000D03*
D11*
X83366000Y-34505000D03*
X83366000Y-32805000D03*
X85066000Y-34505000D03*
X85066000Y-32805000D03*
D39*
X80666000Y-35560000D03*
X80666000Y-34290000D03*
X80666000Y-33020000D03*
X80666000Y-31750000D03*
D19*
X24671000Y-42418000D03*
X24671000Y-43688000D03*
X24671000Y-44958000D03*
X24671000Y-46228000D03*
X19271000Y-46228000D03*
X19271000Y-44958000D03*
X19271000Y-43688000D03*
X19271000Y-42418000D03*
X74813501Y-42164000D03*
X74813501Y-43434000D03*
X74813501Y-44704000D03*
X74813501Y-45974000D03*
X69413501Y-45974000D03*
X69413501Y-44704000D03*
X69413501Y-43434000D03*
X69413501Y-42164000D03*
D18*
X57851000Y-64559000D03*
X59751000Y-64559000D03*
X59751000Y-66759000D03*
X58801000Y-66759000D03*
X57851000Y-66759000D03*
D41*
X36256000Y-89829000D03*
X35306000Y-89829000D03*
X34356000Y-89829000D03*
X34356000Y-87209000D03*
X35306000Y-87209000D03*
X36256000Y-87209000D03*
D42*
X75917000Y-80148000D03*
X75917000Y-80798000D03*
X75917000Y-81448000D03*
X75917000Y-82098000D03*
X75917000Y-82748000D03*
X75917000Y-83398000D03*
X75917000Y-84048000D03*
X75917000Y-84698000D03*
X81817000Y-84698000D03*
X81817000Y-84048000D03*
X81817000Y-83398000D03*
X81817000Y-82748000D03*
X81817000Y-82098000D03*
X81817000Y-81448000D03*
X81817000Y-80798000D03*
X81817000Y-80148000D03*
D18*
X98618000Y-66759000D03*
X99568000Y-66759000D03*
X100518000Y-66759000D03*
X100518000Y-64559000D03*
X98618000Y-64559000D03*
D43*
X125271000Y-122682000D03*
X125271000Y-121412000D03*
X125271000Y-120142000D03*
X125271000Y-118872000D03*
X125271000Y-117602000D03*
X125271000Y-116332000D03*
X125271000Y-115062000D03*
X125271000Y-113792000D03*
X134571000Y-113792000D03*
X134571000Y-115062000D03*
X134571000Y-116332000D03*
X134571000Y-117602000D03*
X134571000Y-118872000D03*
X134571000Y-120142000D03*
X134571000Y-121412000D03*
X134571000Y-122682000D03*
D14*
X59702000Y-84328000D03*
X61202000Y-84328000D03*
D20*
X73533000Y-62599000D03*
X73533000Y-61099000D03*
D14*
X58178000Y-68961000D03*
X59678000Y-68961000D03*
X42406000Y-65786000D03*
X40906000Y-65786000D03*
D22*
X25249000Y-85090000D03*
X22249000Y-85090000D03*
D14*
X21070000Y-93980000D03*
X19570000Y-93980000D03*
X20816000Y-134747000D03*
X19316000Y-134747000D03*
X24245000Y-95631000D03*
X22745000Y-95631000D03*
D22*
X19915000Y-86868000D03*
X16915000Y-86868000D03*
D44*
X29464000Y-87352000D03*
X29464000Y-84352000D03*
D20*
X32131000Y-85991000D03*
X32131000Y-87491000D03*
D14*
X98286000Y-58293000D03*
X96786000Y-58293000D03*
X83173000Y-65786000D03*
X81673000Y-65786000D03*
D17*
X95758000Y-65810000D03*
X95758000Y-68810000D03*
D20*
X114554000Y-62599000D03*
X114554000Y-61099000D03*
D23*
X18812000Y-136652000D03*
X20812000Y-136652000D03*
D20*
X122809000Y-121424000D03*
X122809000Y-122924000D03*
X11557000Y-122035000D03*
X11557000Y-120535000D03*
X16764000Y-122035000D03*
X16764000Y-120535000D03*
D23*
X14462000Y-135001000D03*
X12462000Y-135001000D03*
D14*
X57392000Y-84328000D03*
X55892000Y-84328000D03*
X122694000Y-65786000D03*
X124194000Y-65786000D03*
D20*
X70104000Y-79387000D03*
X70104000Y-80887000D03*
D44*
X62611000Y-118769000D03*
X62611000Y-121769000D03*
D20*
X65278000Y-121908000D03*
X65278000Y-120408000D03*
D17*
X31750000Y-89686000D03*
X31750000Y-92686000D03*
D14*
X51205000Y-87503000D03*
X52705000Y-87503000D03*
D20*
X137033000Y-122924000D03*
X137033000Y-121424000D03*
D14*
X143395000Y-111252000D03*
X144895000Y-111252000D03*
X21221000Y-40386000D03*
X22721000Y-40386000D03*
D20*
X71628000Y-122948000D03*
X71628000Y-124448000D03*
D14*
X71386000Y-40132000D03*
X72886000Y-40132000D03*
X48883000Y-69342000D03*
X47383000Y-69342000D03*
D20*
X85979000Y-84189000D03*
X85979000Y-82689000D03*
X73406000Y-84189000D03*
X73406000Y-82689000D03*
D14*
X88150000Y-69342000D03*
X89650000Y-69342000D03*
X129044000Y-69342000D03*
X130544000Y-69342000D03*
D20*
X73406000Y-80887000D03*
X73406000Y-79387000D03*
X87630000Y-82689000D03*
X87630000Y-84189000D03*
X70104000Y-82689000D03*
X70104000Y-84189000D03*
X13335000Y-120535000D03*
X13335000Y-122035000D03*
D24*
X44713000Y-51943000D03*
X49013000Y-51943000D03*
X60062000Y-28067000D03*
X55762000Y-28067000D03*
D25*
X117349000Y-66294000D03*
X120649000Y-66294000D03*
D24*
X31124000Y-28067000D03*
X35424000Y-28067000D03*
D15*
X96713000Y-62341000D03*
X98613000Y-62341000D03*
X97663000Y-60341000D03*
D24*
X106308000Y-27813000D03*
X110608000Y-27813000D03*
X102480000Y-27813000D03*
X98180000Y-27813000D03*
D45*
X152305000Y-68072000D03*
X156305000Y-68072000D03*
D46*
X10939000Y-92964000D03*
X16239000Y-92964000D03*
D47*
X55880000Y-89977000D03*
X55880000Y-88077000D03*
D33*
G36*
X27964000Y-82337000D02*
G01*
X27664000Y-80887000D01*
X31264000Y-80887000D01*
X30964000Y-82337000D01*
X27964000Y-82337000D01*
G37*
G36*
X27664000Y-79387000D02*
G01*
X27964000Y-77937000D01*
X30964000Y-77937000D01*
X31264000Y-79387000D01*
X27664000Y-79387000D01*
G37*
G36*
X60811000Y-113931000D02*
G01*
X61111000Y-112481000D01*
X64111000Y-112481000D01*
X64411000Y-113931000D01*
X60811000Y-113931000D01*
G37*
G36*
X61111000Y-116881000D02*
G01*
X60811000Y-115431000D01*
X64411000Y-115431000D01*
X64111000Y-116881000D01*
X61111000Y-116881000D01*
G37*
D16*
X16879000Y-46228000D03*
X15379000Y-46228000D03*
X28436000Y-46228000D03*
X26936000Y-46228000D03*
X48883000Y-65913000D03*
X47383000Y-65913000D03*
X48883000Y-67691000D03*
X47383000Y-67691000D03*
X26936000Y-43688000D03*
X28436000Y-43688000D03*
D36*
X57785000Y-56376000D03*
X57785000Y-54876000D03*
D16*
X28436000Y-38354000D03*
X26936000Y-38354000D03*
X77228000Y-45974000D03*
X78728000Y-45974000D03*
X88150000Y-65913000D03*
X89650000Y-65913000D03*
X78728000Y-35560000D03*
X77228000Y-35560000D03*
D36*
X98425000Y-54876000D03*
X98425000Y-56376000D03*
D16*
X121551000Y-36830000D03*
X123051000Y-36830000D03*
X129044000Y-67691000D03*
X130544000Y-67691000D03*
D36*
X137541000Y-56503000D03*
X137541000Y-55003000D03*
X139319000Y-56503000D03*
X139319000Y-55003000D03*
D37*
X52639000Y-66040000D03*
X50739000Y-66040000D03*
D16*
X22745000Y-93980000D03*
X24245000Y-93980000D03*
X24245000Y-97282000D03*
X22745000Y-97282000D03*
D37*
X50739000Y-68199000D03*
X52639000Y-68199000D03*
X134300000Y-66040000D03*
X132400000Y-66040000D03*
D16*
X15379000Y-38354000D03*
X16879000Y-38354000D03*
D12*
X147574000Y-53107000D03*
X146304000Y-53107000D03*
X145034000Y-53107000D03*
X143764000Y-53107000D03*
D11*
X146519000Y-57507000D03*
X144819000Y-57507000D03*
X146519000Y-55807000D03*
X144819000Y-55807000D03*
D10*
X147574000Y-58912000D03*
X146304000Y-58912000D03*
X145034000Y-58912000D03*
X143764000Y-58912000D03*
D12*
X147574000Y-28088000D03*
X146304000Y-28088000D03*
X145034000Y-28088000D03*
X143764000Y-28088000D03*
D11*
X146519000Y-32488000D03*
X144819000Y-32488000D03*
X146519000Y-30788000D03*
X144819000Y-30788000D03*
D10*
X147574000Y-33893000D03*
X146304000Y-33893000D03*
X145034000Y-33893000D03*
X143764000Y-33893000D03*
D48*
X19772000Y-91755000D03*
X19772000Y-90805000D03*
X19772000Y-89855000D03*
X22392000Y-89855000D03*
X22392000Y-90805000D03*
X22392000Y-91755000D03*
D19*
X19271000Y-34544000D03*
X19271000Y-35814000D03*
X19271000Y-37084000D03*
X19271000Y-38354000D03*
X24671000Y-38354000D03*
X24671000Y-37084000D03*
X24671000Y-35814000D03*
X24671000Y-34544000D03*
X69436000Y-34290000D03*
X69436000Y-35560000D03*
X69436000Y-36830000D03*
X69436000Y-38100000D03*
X74836000Y-38100000D03*
X74836000Y-36830000D03*
X74836000Y-35560000D03*
X74836000Y-34290000D03*
X130843000Y-40894000D03*
X130843000Y-42164000D03*
X130843000Y-43434000D03*
X130843000Y-44704000D03*
X125443000Y-44704000D03*
X125443000Y-43434000D03*
X125443000Y-42164000D03*
X125443000Y-40894000D03*
D49*
X20862000Y-124924000D03*
X20212000Y-124924000D03*
X19562000Y-124924000D03*
X18912000Y-124924000D03*
X18262000Y-124924000D03*
X17612000Y-124924000D03*
X16962000Y-124924000D03*
X16312000Y-124924000D03*
X15662000Y-124924000D03*
X15012000Y-124924000D03*
X14362000Y-124924000D03*
X13712000Y-124924000D03*
X13062000Y-124924000D03*
X12412000Y-124924000D03*
X12412000Y-132124000D03*
X13062000Y-132124000D03*
X13712000Y-132124000D03*
X14362000Y-132124000D03*
X15012000Y-132124000D03*
X15662000Y-132124000D03*
X16312000Y-132124000D03*
X16962000Y-132124000D03*
X17612000Y-132124000D03*
X18262000Y-132124000D03*
X18912000Y-132124000D03*
X19562000Y-132124000D03*
X20212000Y-132124000D03*
X20862000Y-132124000D03*
G36*
G01*
X57002000Y-78509000D02*
X57002000Y-78209000D01*
G75*
G02*
X57152000Y-78059000I150000J0D01*
G01*
X58802000Y-78059000D01*
G75*
G02*
X58952000Y-78209000I0J-150000D01*
G01*
X58952000Y-78509000D01*
G75*
G02*
X58802000Y-78659000I-150000J0D01*
G01*
X57152000Y-78659000D01*
G75*
G02*
X57002000Y-78509000I0J150000D01*
G01*
G37*
G36*
G01*
X57002000Y-79779000D02*
X57002000Y-79479000D01*
G75*
G02*
X57152000Y-79329000I150000J0D01*
G01*
X58802000Y-79329000D01*
G75*
G02*
X58952000Y-79479000I0J-150000D01*
G01*
X58952000Y-79779000D01*
G75*
G02*
X58802000Y-79929000I-150000J0D01*
G01*
X57152000Y-79929000D01*
G75*
G02*
X57002000Y-79779000I0J150000D01*
G01*
G37*
G36*
G01*
X57002000Y-81049000D02*
X57002000Y-80749000D01*
G75*
G02*
X57152000Y-80599000I150000J0D01*
G01*
X58802000Y-80599000D01*
G75*
G02*
X58952000Y-80749000I0J-150000D01*
G01*
X58952000Y-81049000D01*
G75*
G02*
X58802000Y-81199000I-150000J0D01*
G01*
X57152000Y-81199000D01*
G75*
G02*
X57002000Y-81049000I0J150000D01*
G01*
G37*
G36*
G01*
X57002000Y-82319000D02*
X57002000Y-82019000D01*
G75*
G02*
X57152000Y-81869000I150000J0D01*
G01*
X58802000Y-81869000D01*
G75*
G02*
X58952000Y-82019000I0J-150000D01*
G01*
X58952000Y-82319000D01*
G75*
G02*
X58802000Y-82469000I-150000J0D01*
G01*
X57152000Y-82469000D01*
G75*
G02*
X57002000Y-82319000I0J150000D01*
G01*
G37*
G36*
G01*
X61952000Y-82319000D02*
X61952000Y-82019000D01*
G75*
G02*
X62102000Y-81869000I150000J0D01*
G01*
X63752000Y-81869000D01*
G75*
G02*
X63902000Y-82019000I0J-150000D01*
G01*
X63902000Y-82319000D01*
G75*
G02*
X63752000Y-82469000I-150000J0D01*
G01*
X62102000Y-82469000D01*
G75*
G02*
X61952000Y-82319000I0J150000D01*
G01*
G37*
G36*
G01*
X61952000Y-81049000D02*
X61952000Y-80749000D01*
G75*
G02*
X62102000Y-80599000I150000J0D01*
G01*
X63752000Y-80599000D01*
G75*
G02*
X63902000Y-80749000I0J-150000D01*
G01*
X63902000Y-81049000D01*
G75*
G02*
X63752000Y-81199000I-150000J0D01*
G01*
X62102000Y-81199000D01*
G75*
G02*
X61952000Y-81049000I0J150000D01*
G01*
G37*
G36*
G01*
X61952000Y-79779000D02*
X61952000Y-79479000D01*
G75*
G02*
X62102000Y-79329000I150000J0D01*
G01*
X63752000Y-79329000D01*
G75*
G02*
X63902000Y-79479000I0J-150000D01*
G01*
X63902000Y-79779000D01*
G75*
G02*
X63752000Y-79929000I-150000J0D01*
G01*
X62102000Y-79929000D01*
G75*
G02*
X61952000Y-79779000I0J150000D01*
G01*
G37*
G36*
G01*
X61952000Y-78509000D02*
X61952000Y-78209000D01*
G75*
G02*
X62102000Y-78059000I150000J0D01*
G01*
X63752000Y-78059000D01*
G75*
G02*
X63902000Y-78209000I0J-150000D01*
G01*
X63902000Y-78509000D01*
G75*
G02*
X63752000Y-78659000I-150000J0D01*
G01*
X62102000Y-78659000D01*
G75*
G02*
X61952000Y-78509000I0J150000D01*
G01*
G37*
D41*
X69403000Y-121626000D03*
X68453000Y-121626000D03*
X67503000Y-121626000D03*
X67503000Y-124246000D03*
X68453000Y-124246000D03*
X69403000Y-124246000D03*
D50*
X50165000Y-78765000D03*
D51*
X50165000Y-85065000D03*
X52465000Y-85065000D03*
X47865000Y-85065000D03*
D52*
X52780000Y-51943000D03*
X58980000Y-51943000D03*
X99747000Y-51943000D03*
X93547000Y-51943000D03*
X133096000Y-51943000D03*
X139296000Y-51943000D03*
D53*
X144873000Y-98806000D03*
X134273000Y-98806000D03*
X134273000Y-101346000D03*
X144873000Y-106426000D03*
X134273000Y-106426000D03*
D54*
X116332000Y-106807000D03*
X122682000Y-106807000D03*
X52832000Y-96266000D03*
X59182000Y-96266000D03*
D14*
X59678000Y-72263000D03*
X58178000Y-72263000D03*
D20*
X31115000Y-62599000D03*
X31115000Y-61099000D03*
X29464000Y-61099000D03*
X29464000Y-62599000D03*
D14*
X98945000Y-72263000D03*
X100445000Y-72263000D03*
D20*
X71882000Y-61099000D03*
X71882000Y-62599000D03*
X70231000Y-62599000D03*
X70231000Y-61099000D03*
D14*
X141339000Y-72263000D03*
X139839000Y-72263000D03*
D20*
X112903000Y-61099000D03*
X112903000Y-62599000D03*
X111252000Y-61099000D03*
X111252000Y-62599000D03*
X10541000Y-85356000D03*
X10541000Y-86856000D03*
X116840000Y-100826000D03*
X116840000Y-99326000D03*
D14*
X47637000Y-89154000D03*
X49137000Y-89154000D03*
D20*
X131318000Y-99326000D03*
X131318000Y-100826000D03*
D14*
X57392000Y-85979000D03*
X55892000Y-85979000D03*
X144895000Y-112903000D03*
X143395000Y-112903000D03*
X52693000Y-89154000D03*
X51193000Y-89154000D03*
D20*
X73533000Y-143625000D03*
X73533000Y-142125000D03*
M02*
