M48
INCH,TZ
T1C0.0160
T2C0.0197
T3C0.0240
T4C0.0276
T5C0.0323
T6C0.0350
T7C0.0394
T8C0.0400
T9C0.0472
T10C0.0551
T11C0.0791
T12C0.1260
T13C0.1339
%
G90
G05
T1
X4300Y-52600
X5850Y-52600
X5950Y-48500
X6550Y-25150
X6550Y-25850
X6600Y-48500
X7200Y-35350
X7200Y-39250
X7500Y-39550
X7800Y-39850
X8100Y-40150
X16850Y-29000
X16850Y-30700
X17000Y-38550
X17100Y-15700
X17300Y-30700
X17300Y-40450
X17350Y-16000
X17900Y-14900
X18250Y-14600
X22450Y-24950
X23100Y-24950
X24700Y-28700
X25100Y-39550
X25400Y-38250
X26850Y-29000
X26850Y-30700
X29350Y-34100
X30100Y-40150
X30900Y-28500
X31200Y-34700
X31300Y-28500
X31300Y-30900
X31750Y-34400
X32098Y-39848
X32900Y-33800
X34098Y-39248
X34400Y-52800
X34600Y-38550
X36700Y-16300
X36950Y-16600
X37200Y-40450
X37500Y-15500
X37800Y-15200
X37900Y-29150
X37900Y-31400
X38500Y-24950
X39150Y-24950
X40200Y-37800
X45550Y-24200
X45550Y-25300
X46200Y-33800
X46700Y-28650
X46700Y-33800
X47050Y-28650
X47400Y-28650
X48350Y-48900
X49200Y-28650
X54550Y-24950
X54750Y-17650
X55050Y-18000
X55200Y-24950
X56150Y-17650
X56150Y-18000
X59250Y-52800
X60100Y-54900
X60850Y-51000
X60850Y-52800
X61150Y-51300
X61150Y-53100
X63450Y-51450
X63450Y-51850
X63450Y-52300
X63450Y-53150
X63450Y-54000
X63450Y-54450
T2
X8005Y-29000
X8282Y-28332
X8282Y-29668
X8950Y-28055
X8950Y-29945
X9618Y-28332
X9618Y-29668
X9895Y-29000
X53405Y-32850
X53682Y-32182
X53682Y-33518
X54350Y-31905
X54350Y-33795
X55018Y-32182
X55018Y-33518
X55295Y-32850
T3
X3900Y-51300
X4150Y-33000
X4400Y-54000
X4550Y-47000
X5000Y-5000
X5000Y-15000
X5000Y-20000
X5000Y-25000
X5000Y-30000
X5000Y-40000
X5000Y-45000
X6950Y-53800
X7200Y-52650
X7800Y-34950
X7850Y-32000
X8350Y-16350
X8350Y-19550
X8700Y-34950
X8700Y-53800
X8750Y-32750
X9550Y-38750
X10000Y-5000
X10000Y-10000
X10000Y-20000
X10000Y-35000
X10000Y-37650
X10000Y-45000
X10000Y-50000
X10000Y-55000
X10850Y-34400
X10850Y-35300
X11500Y-11050
X11500Y-12600
X11500Y-13100
X11500Y-13600
X11600Y-30000
X11950Y-12200
X12250Y-11750
X13100Y-34450
X13100Y-35300
X15000Y-5000
X15000Y-15000
X15000Y-20000
X15000Y-45000
X15000Y-50000
X15000Y-55000
X15200Y-26650
X16150Y-36200
X16500Y-35150
X18050Y-11050
X18050Y-12600
X18050Y-13100
X18050Y-13600
X18500Y-12200
X18750Y-31000
X18750Y-35600
X18800Y-10350
X18800Y-11750
X19750Y-34450
X19750Y-35100
X20000Y-10000
X20000Y-45000
X20000Y-50000
X20000Y-55000
X20750Y-31000
X21550Y-16250
X22400Y-24200
X22450Y-28450
X22550Y-37900
X23050Y-33200
X23300Y-37100
X23500Y-33700
X23900Y-47950
X23900Y-48850
X23900Y-50050
X23950Y-28450
X24050Y-37900
X24450Y-51950
X25000Y-5000
X25000Y-10000
X25000Y-15000
X25000Y-55000
X25450Y-27100
X25500Y-33500
X26150Y-48000
X26150Y-48850
X27150Y-31250
X27150Y-33150
X27750Y-47900
X28100Y-16250
X28100Y-19350
X28370Y-56550
X28750Y-27100
X30000Y-5000
X30000Y-20000
X30000Y-45000
X30000Y-50000
X31300Y-26600
X31300Y-12500
X31300Y-13000
X31300Y-13500
X31750Y-12100
X32050Y-10250
X32050Y-11650
X34500Y-33600
X34500Y-34500
X35000Y-5000
X35000Y-15000
X35000Y-50000
X35000Y-55000
X35050Y-49450
X36550Y-32750
X37900Y-10950
X37900Y-12500
X37900Y-13000
X37900Y-13500
X38350Y-12100
X38450Y-24200
X38650Y-10250
X38650Y-11650
X38950Y-28850
X39300Y-16450
X40000Y-5000
X40000Y-10000
X40000Y-15000
X40000Y-20000
X40000Y-28450
X40000Y-55000
X44450Y-27100
X45000Y-5000
X45000Y-10000
X45000Y-15000
X45000Y-20000
X45000Y-40000
X45000Y-45000
X45000Y-50000
X45000Y-55000
X45550Y-39100
X45800Y-42900
X46400Y-27100
X47500Y-26650
X47900Y-47800
X48300Y-41250
X48300Y-42850
X48700Y-44800
X49050Y-42050
X49650Y-15300
X49650Y-18400
X50000Y-5000
X50000Y-10000
X50000Y-45000
X50000Y-50000
X50000Y-55000
X54400Y-44800
X54400Y-47800
X54450Y-48400
X54500Y-24200
X54600Y-28550
X55000Y-5000
X55000Y-13650
X55000Y-15000
X55000Y-35000
X55000Y-40000
X55000Y-50000
X55000Y-55000
X56100Y-28450
X57100Y-10600
X57100Y-17200
X57500Y-44500
X57600Y-10600
X57600Y-17200
X58100Y-10600
X58100Y-17200
X58500Y-11050
X58500Y-17650
X58950Y-11350
X58950Y-17950
X59650Y-10600
X59650Y-17200
X60000Y-5000
X60000Y-30000
X60000Y-50000
X60350Y-11350
X60350Y-17950
X61450Y-50300
X63550Y-50450
X63650Y-49450
T4
X3450Y-25500
X5500Y-34300
X11450Y-37600
X17700Y-26150
X17700Y-27550
X20800Y-36250
X25500Y-51150
X26250Y-30900
X33200Y-30900
X33750Y-26150
X33750Y-27550
X49900Y-26150
X49900Y-27550
T5
X25098Y-35300
X25098Y-36300
X26098Y-35300
X26098Y-36300
X27098Y-35300
X27098Y-36300
X28098Y-35300
X28098Y-36300
X28698Y-53300
X28698Y-54300
X29098Y-35300
X29098Y-36300
X29698Y-53300
X29698Y-54300
X30098Y-35300
X30098Y-36300
X30698Y-53300
X30698Y-54300
X31098Y-35300
X31098Y-36300
X31698Y-53300
X31698Y-54300
X32098Y-35300
X32098Y-36300
X32698Y-53300
X32698Y-54300
X33098Y-35300
X33098Y-36300
X33698Y-53300
X33698Y-54300
X34098Y-35300
X34098Y-36300
X34698Y-53300
X34698Y-54300
X35698Y-35300
X35698Y-36300
X35698Y-53300
X35698Y-54300
X36698Y-35300
X36698Y-36300
X37698Y-35300
X37698Y-36300
X37698Y-53300
X37698Y-54300
X38698Y-35300
X38698Y-36300
X38698Y-53300
X38698Y-54300
X39698Y-35300
X39698Y-36300
X39698Y-53300
X39698Y-54300
X40698Y-35300
X40698Y-36300
X40698Y-53300
X40698Y-54300
X41698Y-35300
X41698Y-36300
X41698Y-53300
X41698Y-54300
X42698Y-35300
X42698Y-36300
X42698Y-53300
X42698Y-54300
X43698Y-35300
X43698Y-36300
X43698Y-53300
X43698Y-54300
X44698Y-35300
X44698Y-36300
X44698Y-53300
X44698Y-54300
X45698Y-35300
X45698Y-36300
X45698Y-53300
X45698Y-54300
X46698Y-35300
X46698Y-36300
X46698Y-53300
X46698Y-54300
X47698Y-35300
X47698Y-36300
X47698Y-53300
X47698Y-54300
X48698Y-35300
X48698Y-36300
X48698Y-53300
X48698Y-54300
X49698Y-35300
X49698Y-36300
X49698Y-53300
X49698Y-54300
X50698Y-35300
X50698Y-36300
X50698Y-53300
X50698Y-54300
X51698Y-35300
X51698Y-36300
X51698Y-53300
X51698Y-54300
X59698Y-32300
X59698Y-33300
X59698Y-57300
X59728Y-56300
T6
X58950Y-35700
X58950Y-36700
X58950Y-37700
X58950Y-44800
X58950Y-45800
X58950Y-46800
X59950Y-36700
X59950Y-45800
T7
X2950Y-23500
X3950Y-23500
X14000Y-22080
X14000Y-24750
X14670Y-22750
X15340Y-22080
X15340Y-24750
X16010Y-22750
X16680Y-22080
X16680Y-24750
X17350Y-22750
X18020Y-22080
X18020Y-24750
X18690Y-22750
X19360Y-22080
X19360Y-24750
X20030Y-22750
X20700Y-22080
X20700Y-24750
X30050Y-22080
X30050Y-24750
X30720Y-22750
X31390Y-22080
X31390Y-24750
X32060Y-22750
X32730Y-22080
X32730Y-24750
X33400Y-22750
X34070Y-22080
X34070Y-24750
X34740Y-22750
X35410Y-22080
X35410Y-24750
X36080Y-22750
X36750Y-22080
X36750Y-24750
X46200Y-22080
X46200Y-24750
X46870Y-22750
X47540Y-22080
X47540Y-24750
X48210Y-22750
X48880Y-22080
X48880Y-24750
X49550Y-22750
X50220Y-22080
X50220Y-24750
X50890Y-22750
X51560Y-22080
X51560Y-24750
X52230Y-22750
X52900Y-22080
X52900Y-24750
T8
X1950Y-42050
X1950Y-43050
X1950Y-44050
X1950Y-45050
X1950Y-46050
X1950Y-51600
X1950Y-52600
X1950Y-53600
X1950Y-54600
X1950Y-55600
X2950Y-42050
X2950Y-43050
X2950Y-44050
X2950Y-45050
X2950Y-46050
X2950Y-51600
X2950Y-52600
X2950Y-53600
X2950Y-54600
X2950Y-55600
T9
X1750Y-31850
X1750Y-33228
X1750Y-34606
X9300Y-23531
X9300Y-25500
X25450Y-23531
X25450Y-25500
X41500Y-23531
X41500Y-25500
X59950Y-28550
X61919Y-28550
T10
X62000Y-2800
X62000Y-4800
X62000Y-8800
X62000Y-10800
X62000Y-14800
X62000Y-16800
X62000Y-20800
X62000Y-22800
T11
X62411Y-34700
X62411Y-43800
X62450Y-38700
X62450Y-47800
T12
X8950Y-29000
X54350Y-32850
T13
X5878Y-11000
X29500Y-11000
X53122Y-11000
T0
M30
