%TF.GenerationSoftware,KiCad,Pcbnew,(5.1.12)-1*%
%TF.CreationDate,2023-01-04T10:21:47+01:00*%
%TF.ProjectId,current3Av2,63757272-656e-4743-9341-76322e6b6963,1.0*%
%TF.SameCoordinates,Original*%
%TF.FileFunction,Legend,Bot*%
%TF.FilePolarity,Positive*%
%FSLAX46Y46*%
G04 Gerber Fmt 4.6, Leading zero omitted, Abs format (unit mm)*
G04 Created by KiCad (PCBNEW (5.1.12)-1) date 2023-01-04 10:21:47*
%MOMM*%
%LPD*%
G01*
G04 APERTURE LIST*
%ADD10C,0.150000*%
%ADD11C,0.120000*%
%ADD12C,0.139700*%
%ADD13C,7.400000*%
%ADD14C,2.800000*%
%ADD15C,2.000000*%
%ADD16O,7.400000X3.900000*%
%ADD17C,1.930000*%
%ADD18C,3.600000*%
%ADD19C,1.924000*%
%ADD20C,2.400000*%
%ADD21C,6.800000*%
%ADD22C,1.200000*%
%ADD23O,4.000000X2.480000*%
%ADD24O,2.127200X2.127200*%
%ADD25O,2.200000X2.200000*%
G04 APERTURE END LIST*
D10*
X-15100300Y-52940000D02*
X149899700Y-52940000D01*
X-70000Y-52940000D02*
X-70000Y-2940000D01*
X-70000Y-27940000D02*
X149930000Y-27940000D01*
X149930000Y-52940000D02*
X149930000Y-2940000D01*
X-15070000Y-2940000D02*
X149930000Y-2940000D01*
X-15070000Y-52940000D02*
X-15070000Y-2940000D01*
D11*
X112500000Y-62270000D02*
G75*
G03*
X112500000Y-62270000I-7090000J0D01*
G01*
X112460000Y-62270000D02*
X98360000Y-62270000D01*
X112460000Y-62230000D02*
X98360000Y-62230000D01*
X112460000Y-62190000D02*
X98360000Y-62190000D01*
X112459000Y-62150000D02*
X98361000Y-62150000D01*
X112459000Y-62110000D02*
X98361000Y-62110000D01*
X112458000Y-62070000D02*
X98362000Y-62070000D01*
X112456000Y-62030000D02*
X98364000Y-62030000D01*
X112455000Y-61990000D02*
X98365000Y-61990000D01*
X112453000Y-61950000D02*
X98367000Y-61950000D01*
X112451000Y-61910000D02*
X98369000Y-61910000D01*
X112449000Y-61870000D02*
X98371000Y-61870000D01*
X112447000Y-61830000D02*
X98373000Y-61830000D01*
X112444000Y-61790000D02*
X98376000Y-61790000D01*
X112441000Y-61750000D02*
X98379000Y-61750000D01*
X112438000Y-61710000D02*
X98382000Y-61710000D01*
X112435000Y-61670000D02*
X98385000Y-61670000D01*
X112432000Y-61630000D02*
X98388000Y-61630000D01*
X112428000Y-61590000D02*
X98392000Y-61590000D01*
X112424000Y-61549000D02*
X98396000Y-61549000D01*
X112420000Y-61509000D02*
X98400000Y-61509000D01*
X112415000Y-61469000D02*
X98405000Y-61469000D01*
X112411000Y-61429000D02*
X98409000Y-61429000D01*
X112406000Y-61389000D02*
X98414000Y-61389000D01*
X112401000Y-61349000D02*
X98419000Y-61349000D01*
X112395000Y-61309000D02*
X98425000Y-61309000D01*
X112390000Y-61269000D02*
X98430000Y-61269000D01*
X112384000Y-61229000D02*
X98436000Y-61229000D01*
X112378000Y-61189000D02*
X98442000Y-61189000D01*
X112371000Y-61149000D02*
X106790000Y-61149000D01*
X104030000Y-61149000D02*
X98449000Y-61149000D01*
X112365000Y-61109000D02*
X106790000Y-61109000D01*
X104030000Y-61109000D02*
X98455000Y-61109000D01*
X112358000Y-61069000D02*
X106790000Y-61069000D01*
X104030000Y-61069000D02*
X98462000Y-61069000D01*
X112351000Y-61029000D02*
X106790000Y-61029000D01*
X104030000Y-61029000D02*
X98469000Y-61029000D01*
X112344000Y-60989000D02*
X106790000Y-60989000D01*
X104030000Y-60989000D02*
X98476000Y-60989000D01*
X112337000Y-60949000D02*
X106790000Y-60949000D01*
X104030000Y-60949000D02*
X98483000Y-60949000D01*
X112329000Y-60909000D02*
X106790000Y-60909000D01*
X104030000Y-60909000D02*
X98491000Y-60909000D01*
X112321000Y-60869000D02*
X106790000Y-60869000D01*
X104030000Y-60869000D02*
X98499000Y-60869000D01*
X112313000Y-60829000D02*
X106790000Y-60829000D01*
X104030000Y-60829000D02*
X98507000Y-60829000D01*
X112304000Y-60789000D02*
X106790000Y-60789000D01*
X104030000Y-60789000D02*
X98516000Y-60789000D01*
X112296000Y-60749000D02*
X106790000Y-60749000D01*
X104030000Y-60749000D02*
X98524000Y-60749000D01*
X112287000Y-60709000D02*
X106790000Y-60709000D01*
X104030000Y-60709000D02*
X98533000Y-60709000D01*
X112278000Y-60669000D02*
X106790000Y-60669000D01*
X104030000Y-60669000D02*
X98542000Y-60669000D01*
X112268000Y-60629000D02*
X106790000Y-60629000D01*
X104030000Y-60629000D02*
X98552000Y-60629000D01*
X112259000Y-60589000D02*
X106790000Y-60589000D01*
X104030000Y-60589000D02*
X98561000Y-60589000D01*
X112249000Y-60549000D02*
X106790000Y-60549000D01*
X104030000Y-60549000D02*
X98571000Y-60549000D01*
X112239000Y-60509000D02*
X106790000Y-60509000D01*
X104030000Y-60509000D02*
X98581000Y-60509000D01*
X112228000Y-60469000D02*
X106790000Y-60469000D01*
X104030000Y-60469000D02*
X98592000Y-60469000D01*
X112218000Y-60429000D02*
X106790000Y-60429000D01*
X104030000Y-60429000D02*
X98602000Y-60429000D01*
X112207000Y-60389000D02*
X106790000Y-60389000D01*
X104030000Y-60389000D02*
X98613000Y-60389000D01*
X112196000Y-60349000D02*
X106790000Y-60349000D01*
X104030000Y-60349000D02*
X98624000Y-60349000D01*
X112184000Y-60309000D02*
X106790000Y-60309000D01*
X104030000Y-60309000D02*
X98636000Y-60309000D01*
X112173000Y-60269000D02*
X106790000Y-60269000D01*
X104030000Y-60269000D02*
X98647000Y-60269000D01*
X112161000Y-60229000D02*
X106790000Y-60229000D01*
X104030000Y-60229000D02*
X98659000Y-60229000D01*
X112149000Y-60189000D02*
X106790000Y-60189000D01*
X104030000Y-60189000D02*
X98671000Y-60189000D01*
X112136000Y-60149000D02*
X106790000Y-60149000D01*
X104030000Y-60149000D02*
X98684000Y-60149000D01*
X112123000Y-60109000D02*
X106790000Y-60109000D01*
X104030000Y-60109000D02*
X98697000Y-60109000D01*
X112111000Y-60069000D02*
X106790000Y-60069000D01*
X104030000Y-60069000D02*
X98709000Y-60069000D01*
X112097000Y-60029000D02*
X106790000Y-60029000D01*
X104030000Y-60029000D02*
X98723000Y-60029000D01*
X112084000Y-59989000D02*
X106790000Y-59989000D01*
X104030000Y-59989000D02*
X98736000Y-59989000D01*
X112070000Y-59949000D02*
X106790000Y-59949000D01*
X104030000Y-59949000D02*
X98750000Y-59949000D01*
X112056000Y-59909000D02*
X106790000Y-59909000D01*
X104030000Y-59909000D02*
X98764000Y-59909000D01*
X112042000Y-59869000D02*
X106790000Y-59869000D01*
X104030000Y-59869000D02*
X98778000Y-59869000D01*
X112027000Y-59829000D02*
X106790000Y-59829000D01*
X104030000Y-59829000D02*
X98793000Y-59829000D01*
X112013000Y-59789000D02*
X106790000Y-59789000D01*
X104030000Y-59789000D02*
X98807000Y-59789000D01*
X111998000Y-59749000D02*
X106790000Y-59749000D01*
X104030000Y-59749000D02*
X98822000Y-59749000D01*
X111982000Y-59709000D02*
X106790000Y-59709000D01*
X104030000Y-59709000D02*
X98838000Y-59709000D01*
X111967000Y-59669000D02*
X106790000Y-59669000D01*
X104030000Y-59669000D02*
X98853000Y-59669000D01*
X111951000Y-59629000D02*
X106790000Y-59629000D01*
X104030000Y-59629000D02*
X98869000Y-59629000D01*
X111934000Y-59589000D02*
X106790000Y-59589000D01*
X104030000Y-59589000D02*
X98886000Y-59589000D01*
X111918000Y-59549000D02*
X106790000Y-59549000D01*
X104030000Y-59549000D02*
X98902000Y-59549000D01*
X111901000Y-59509000D02*
X106790000Y-59509000D01*
X104030000Y-59509000D02*
X98919000Y-59509000D01*
X111884000Y-59469000D02*
X106790000Y-59469000D01*
X104030000Y-59469000D02*
X98936000Y-59469000D01*
X111867000Y-59429000D02*
X106790000Y-59429000D01*
X104030000Y-59429000D02*
X98953000Y-59429000D01*
X111849000Y-59389000D02*
X106790000Y-59389000D01*
X104030000Y-59389000D02*
X98971000Y-59389000D01*
X111831000Y-59349000D02*
X106790000Y-59349000D01*
X104030000Y-59349000D02*
X98989000Y-59349000D01*
X111813000Y-59309000D02*
X106790000Y-59309000D01*
X104030000Y-59309000D02*
X99007000Y-59309000D01*
X111795000Y-59269000D02*
X106790000Y-59269000D01*
X104030000Y-59269000D02*
X99025000Y-59269000D01*
X111776000Y-59229000D02*
X106790000Y-59229000D01*
X104030000Y-59229000D02*
X99044000Y-59229000D01*
X111757000Y-59189000D02*
X106790000Y-59189000D01*
X104030000Y-59189000D02*
X99063000Y-59189000D01*
X111737000Y-59149000D02*
X106790000Y-59149000D01*
X104030000Y-59149000D02*
X99083000Y-59149000D01*
X111717000Y-59109000D02*
X106790000Y-59109000D01*
X104030000Y-59109000D02*
X99103000Y-59109000D01*
X111697000Y-59069000D02*
X106790000Y-59069000D01*
X104030000Y-59069000D02*
X99123000Y-59069000D01*
X111677000Y-59029000D02*
X106790000Y-59029000D01*
X104030000Y-59029000D02*
X99143000Y-59029000D01*
X111656000Y-58989000D02*
X106790000Y-58989000D01*
X104030000Y-58989000D02*
X99164000Y-58989000D01*
X111635000Y-58949000D02*
X106790000Y-58949000D01*
X104030000Y-58949000D02*
X99185000Y-58949000D01*
X111614000Y-58909000D02*
X106790000Y-58909000D01*
X104030000Y-58909000D02*
X99206000Y-58909000D01*
X111592000Y-58869000D02*
X106790000Y-58869000D01*
X104030000Y-58869000D02*
X99228000Y-58869000D01*
X111570000Y-58829000D02*
X106790000Y-58829000D01*
X104030000Y-58829000D02*
X99250000Y-58829000D01*
X111548000Y-58789000D02*
X106790000Y-58789000D01*
X104030000Y-58789000D02*
X99272000Y-58789000D01*
X111525000Y-58749000D02*
X106790000Y-58749000D01*
X104030000Y-58749000D02*
X99295000Y-58749000D01*
X111502000Y-58709000D02*
X106790000Y-58709000D01*
X104030000Y-58709000D02*
X99318000Y-58709000D01*
X111479000Y-58669000D02*
X106790000Y-58669000D01*
X104030000Y-58669000D02*
X99341000Y-58669000D01*
X111455000Y-58629000D02*
X106790000Y-58629000D01*
X104030000Y-58629000D02*
X99365000Y-58629000D01*
X111431000Y-58589000D02*
X106790000Y-58589000D01*
X104030000Y-58589000D02*
X99389000Y-58589000D01*
X111406000Y-58549000D02*
X106790000Y-58549000D01*
X104030000Y-58549000D02*
X99414000Y-58549000D01*
X111381000Y-58509000D02*
X106790000Y-58509000D01*
X104030000Y-58509000D02*
X99439000Y-58509000D01*
X111356000Y-58469000D02*
X106790000Y-58469000D01*
X104030000Y-58469000D02*
X99464000Y-58469000D01*
X111331000Y-58429000D02*
X106790000Y-58429000D01*
X104030000Y-58429000D02*
X99489000Y-58429000D01*
X111305000Y-58389000D02*
X99515000Y-58389000D01*
X111278000Y-58349000D02*
X99542000Y-58349000D01*
X111252000Y-58309000D02*
X99568000Y-58309000D01*
X111224000Y-58269000D02*
X99596000Y-58269000D01*
X111197000Y-58229000D02*
X99623000Y-58229000D01*
X111169000Y-58189000D02*
X99651000Y-58189000D01*
X111141000Y-58149000D02*
X99679000Y-58149000D01*
X111112000Y-58109000D02*
X99708000Y-58109000D01*
X111083000Y-58069000D02*
X99737000Y-58069000D01*
X111053000Y-58029000D02*
X99767000Y-58029000D01*
X111023000Y-57989000D02*
X99797000Y-57989000D01*
X110992000Y-57949000D02*
X99828000Y-57949000D01*
X110961000Y-57909000D02*
X99859000Y-57909000D01*
X110930000Y-57869000D02*
X99890000Y-57869000D01*
X110898000Y-57829000D02*
X99922000Y-57829000D01*
X110866000Y-57789000D02*
X99954000Y-57789000D01*
X110833000Y-57749000D02*
X99987000Y-57749000D01*
X110800000Y-57709000D02*
X100020000Y-57709000D01*
X110766000Y-57669000D02*
X100054000Y-57669000D01*
X110731000Y-57629000D02*
X100089000Y-57629000D01*
X110696000Y-57589000D02*
X100124000Y-57589000D01*
X110661000Y-57549000D02*
X100159000Y-57549000D01*
X110625000Y-57509000D02*
X100195000Y-57509000D01*
X110589000Y-57469000D02*
X100231000Y-57469000D01*
X110551000Y-57429000D02*
X100269000Y-57429000D01*
X110514000Y-57389000D02*
X100306000Y-57389000D01*
X110476000Y-57349000D02*
X100344000Y-57349000D01*
X110437000Y-57309000D02*
X100383000Y-57309000D01*
X110397000Y-57269000D02*
X100423000Y-57269000D01*
X110357000Y-57229000D02*
X100463000Y-57229000D01*
X110316000Y-57189000D02*
X100504000Y-57189000D01*
X110275000Y-57149000D02*
X100545000Y-57149000D01*
X110233000Y-57109000D02*
X100587000Y-57109000D01*
X110190000Y-57069000D02*
X100630000Y-57069000D01*
X110147000Y-57029000D02*
X100673000Y-57029000D01*
X110102000Y-56989000D02*
X100718000Y-56989000D01*
X110057000Y-56949000D02*
X100763000Y-56949000D01*
X110011000Y-56909000D02*
X100809000Y-56909000D01*
X109965000Y-56869000D02*
X100855000Y-56869000D01*
X109917000Y-56829000D02*
X100903000Y-56829000D01*
X109869000Y-56789000D02*
X100951000Y-56789000D01*
X109820000Y-56749000D02*
X101000000Y-56749000D01*
X109770000Y-56709000D02*
X101050000Y-56709000D01*
X109719000Y-56669000D02*
X101101000Y-56669000D01*
X109667000Y-56629000D02*
X101153000Y-56629000D01*
X109614000Y-56589000D02*
X101206000Y-56589000D01*
X109560000Y-56549000D02*
X101260000Y-56549000D01*
X109505000Y-56509000D02*
X101315000Y-56509000D01*
X109448000Y-56469000D02*
X101372000Y-56469000D01*
X109391000Y-56429000D02*
X101429000Y-56429000D01*
X109332000Y-56389000D02*
X101488000Y-56389000D01*
X109272000Y-56349000D02*
X101548000Y-56349000D01*
X109211000Y-56309000D02*
X101609000Y-56309000D01*
X109148000Y-56269000D02*
X101672000Y-56269000D01*
X109084000Y-56229000D02*
X101736000Y-56229000D01*
X109018000Y-56189000D02*
X101802000Y-56189000D01*
X108950000Y-56149000D02*
X101870000Y-56149000D01*
X108881000Y-56109000D02*
X101939000Y-56109000D01*
X108810000Y-56069000D02*
X102010000Y-56069000D01*
X108737000Y-56029000D02*
X102083000Y-56029000D01*
X108661000Y-55989000D02*
X102159000Y-55989000D01*
X108584000Y-55949000D02*
X102236000Y-55949000D01*
X108504000Y-55909000D02*
X102316000Y-55909000D01*
X108421000Y-55869000D02*
X102399000Y-55869000D01*
X108336000Y-55829000D02*
X102484000Y-55829000D01*
X108248000Y-55789000D02*
X102572000Y-55789000D01*
X108156000Y-55749000D02*
X102664000Y-55749000D01*
X108060000Y-55709000D02*
X102760000Y-55709000D01*
X107960000Y-55669000D02*
X102860000Y-55669000D01*
X107856000Y-55629000D02*
X102964000Y-55629000D01*
X107747000Y-55589000D02*
X103073000Y-55589000D01*
X107631000Y-55549000D02*
X103189000Y-55549000D01*
X107508000Y-55509000D02*
X103312000Y-55509000D01*
X107378000Y-55469000D02*
X103442000Y-55469000D01*
X107237000Y-55429000D02*
X103583000Y-55429000D01*
X107083000Y-55389000D02*
X103737000Y-55389000D01*
X106914000Y-55349000D02*
X103906000Y-55349000D01*
X106722000Y-55309000D02*
X104098000Y-55309000D01*
X106497000Y-55269000D02*
X104323000Y-55269000D01*
X106211000Y-55229000D02*
X104609000Y-55229000D01*
X105747000Y-55189000D02*
X105073000Y-55189000D01*
X105410000Y-67970000D02*
X105410000Y-66170000D01*
X106310000Y-67070000D02*
X104510000Y-67070000D01*
X24522000Y-67070000D02*
X22722000Y-67070000D01*
X23622000Y-67970000D02*
X23622000Y-66170000D01*
X23959000Y-55189000D02*
X23285000Y-55189000D01*
X24423000Y-55229000D02*
X22821000Y-55229000D01*
X24709000Y-55269000D02*
X22535000Y-55269000D01*
X24934000Y-55309000D02*
X22310000Y-55309000D01*
X25126000Y-55349000D02*
X22118000Y-55349000D01*
X25295000Y-55389000D02*
X21949000Y-55389000D01*
X25449000Y-55429000D02*
X21795000Y-55429000D01*
X25590000Y-55469000D02*
X21654000Y-55469000D01*
X25720000Y-55509000D02*
X21524000Y-55509000D01*
X25843000Y-55549000D02*
X21401000Y-55549000D01*
X25959000Y-55589000D02*
X21285000Y-55589000D01*
X26068000Y-55629000D02*
X21176000Y-55629000D01*
X26172000Y-55669000D02*
X21072000Y-55669000D01*
X26272000Y-55709000D02*
X20972000Y-55709000D01*
X26368000Y-55749000D02*
X20876000Y-55749000D01*
X26460000Y-55789000D02*
X20784000Y-55789000D01*
X26548000Y-55829000D02*
X20696000Y-55829000D01*
X26633000Y-55869000D02*
X20611000Y-55869000D01*
X26716000Y-55909000D02*
X20528000Y-55909000D01*
X26796000Y-55949000D02*
X20448000Y-55949000D01*
X26873000Y-55989000D02*
X20371000Y-55989000D01*
X26949000Y-56029000D02*
X20295000Y-56029000D01*
X27022000Y-56069000D02*
X20222000Y-56069000D01*
X27093000Y-56109000D02*
X20151000Y-56109000D01*
X27162000Y-56149000D02*
X20082000Y-56149000D01*
X27230000Y-56189000D02*
X20014000Y-56189000D01*
X27296000Y-56229000D02*
X19948000Y-56229000D01*
X27360000Y-56269000D02*
X19884000Y-56269000D01*
X27423000Y-56309000D02*
X19821000Y-56309000D01*
X27484000Y-56349000D02*
X19760000Y-56349000D01*
X27544000Y-56389000D02*
X19700000Y-56389000D01*
X27603000Y-56429000D02*
X19641000Y-56429000D01*
X27660000Y-56469000D02*
X19584000Y-56469000D01*
X27717000Y-56509000D02*
X19527000Y-56509000D01*
X27772000Y-56549000D02*
X19472000Y-56549000D01*
X27826000Y-56589000D02*
X19418000Y-56589000D01*
X27879000Y-56629000D02*
X19365000Y-56629000D01*
X27931000Y-56669000D02*
X19313000Y-56669000D01*
X27982000Y-56709000D02*
X19262000Y-56709000D01*
X28032000Y-56749000D02*
X19212000Y-56749000D01*
X28081000Y-56789000D02*
X19163000Y-56789000D01*
X28129000Y-56829000D02*
X19115000Y-56829000D01*
X28177000Y-56869000D02*
X19067000Y-56869000D01*
X28223000Y-56909000D02*
X19021000Y-56909000D01*
X28269000Y-56949000D02*
X18975000Y-56949000D01*
X28314000Y-56989000D02*
X18930000Y-56989000D01*
X28359000Y-57029000D02*
X18885000Y-57029000D01*
X28402000Y-57069000D02*
X18842000Y-57069000D01*
X28445000Y-57109000D02*
X18799000Y-57109000D01*
X28487000Y-57149000D02*
X18757000Y-57149000D01*
X28528000Y-57189000D02*
X18716000Y-57189000D01*
X28569000Y-57229000D02*
X18675000Y-57229000D01*
X28609000Y-57269000D02*
X18635000Y-57269000D01*
X28649000Y-57309000D02*
X18595000Y-57309000D01*
X28688000Y-57349000D02*
X18556000Y-57349000D01*
X28726000Y-57389000D02*
X18518000Y-57389000D01*
X28763000Y-57429000D02*
X18481000Y-57429000D01*
X28801000Y-57469000D02*
X18443000Y-57469000D01*
X28837000Y-57509000D02*
X18407000Y-57509000D01*
X28873000Y-57549000D02*
X18371000Y-57549000D01*
X28908000Y-57589000D02*
X18336000Y-57589000D01*
X28943000Y-57629000D02*
X18301000Y-57629000D01*
X28978000Y-57669000D02*
X18266000Y-57669000D01*
X29012000Y-57709000D02*
X18232000Y-57709000D01*
X29045000Y-57749000D02*
X18199000Y-57749000D01*
X29078000Y-57789000D02*
X18166000Y-57789000D01*
X29110000Y-57829000D02*
X18134000Y-57829000D01*
X29142000Y-57869000D02*
X18102000Y-57869000D01*
X29173000Y-57909000D02*
X18071000Y-57909000D01*
X29204000Y-57949000D02*
X18040000Y-57949000D01*
X29235000Y-57989000D02*
X18009000Y-57989000D01*
X29265000Y-58029000D02*
X17979000Y-58029000D01*
X29295000Y-58069000D02*
X17949000Y-58069000D01*
X29324000Y-58109000D02*
X17920000Y-58109000D01*
X29353000Y-58149000D02*
X17891000Y-58149000D01*
X29381000Y-58189000D02*
X17863000Y-58189000D01*
X29409000Y-58229000D02*
X17835000Y-58229000D01*
X29436000Y-58269000D02*
X17808000Y-58269000D01*
X29464000Y-58309000D02*
X17780000Y-58309000D01*
X29490000Y-58349000D02*
X17754000Y-58349000D01*
X29517000Y-58389000D02*
X17727000Y-58389000D01*
X22242000Y-58429000D02*
X17701000Y-58429000D01*
X29543000Y-58429000D02*
X25002000Y-58429000D01*
X22242000Y-58469000D02*
X17676000Y-58469000D01*
X29568000Y-58469000D02*
X25002000Y-58469000D01*
X22242000Y-58509000D02*
X17651000Y-58509000D01*
X29593000Y-58509000D02*
X25002000Y-58509000D01*
X22242000Y-58549000D02*
X17626000Y-58549000D01*
X29618000Y-58549000D02*
X25002000Y-58549000D01*
X22242000Y-58589000D02*
X17601000Y-58589000D01*
X29643000Y-58589000D02*
X25002000Y-58589000D01*
X22242000Y-58629000D02*
X17577000Y-58629000D01*
X29667000Y-58629000D02*
X25002000Y-58629000D01*
X22242000Y-58669000D02*
X17553000Y-58669000D01*
X29691000Y-58669000D02*
X25002000Y-58669000D01*
X22242000Y-58709000D02*
X17530000Y-58709000D01*
X29714000Y-58709000D02*
X25002000Y-58709000D01*
X22242000Y-58749000D02*
X17507000Y-58749000D01*
X29737000Y-58749000D02*
X25002000Y-58749000D01*
X22242000Y-58789000D02*
X17484000Y-58789000D01*
X29760000Y-58789000D02*
X25002000Y-58789000D01*
X22242000Y-58829000D02*
X17462000Y-58829000D01*
X29782000Y-58829000D02*
X25002000Y-58829000D01*
X22242000Y-58869000D02*
X17440000Y-58869000D01*
X29804000Y-58869000D02*
X25002000Y-58869000D01*
X22242000Y-58909000D02*
X17418000Y-58909000D01*
X29826000Y-58909000D02*
X25002000Y-58909000D01*
X22242000Y-58949000D02*
X17397000Y-58949000D01*
X29847000Y-58949000D02*
X25002000Y-58949000D01*
X22242000Y-58989000D02*
X17376000Y-58989000D01*
X29868000Y-58989000D02*
X25002000Y-58989000D01*
X22242000Y-59029000D02*
X17355000Y-59029000D01*
X29889000Y-59029000D02*
X25002000Y-59029000D01*
X22242000Y-59069000D02*
X17335000Y-59069000D01*
X29909000Y-59069000D02*
X25002000Y-59069000D01*
X22242000Y-59109000D02*
X17315000Y-59109000D01*
X29929000Y-59109000D02*
X25002000Y-59109000D01*
X22242000Y-59149000D02*
X17295000Y-59149000D01*
X29949000Y-59149000D02*
X25002000Y-59149000D01*
X22242000Y-59189000D02*
X17275000Y-59189000D01*
X29969000Y-59189000D02*
X25002000Y-59189000D01*
X22242000Y-59229000D02*
X17256000Y-59229000D01*
X29988000Y-59229000D02*
X25002000Y-59229000D01*
X22242000Y-59269000D02*
X17237000Y-59269000D01*
X30007000Y-59269000D02*
X25002000Y-59269000D01*
X22242000Y-59309000D02*
X17219000Y-59309000D01*
X30025000Y-59309000D02*
X25002000Y-59309000D01*
X22242000Y-59349000D02*
X17201000Y-59349000D01*
X30043000Y-59349000D02*
X25002000Y-59349000D01*
X22242000Y-59389000D02*
X17183000Y-59389000D01*
X30061000Y-59389000D02*
X25002000Y-59389000D01*
X22242000Y-59429000D02*
X17165000Y-59429000D01*
X30079000Y-59429000D02*
X25002000Y-59429000D01*
X22242000Y-59469000D02*
X17148000Y-59469000D01*
X30096000Y-59469000D02*
X25002000Y-59469000D01*
X22242000Y-59509000D02*
X17131000Y-59509000D01*
X30113000Y-59509000D02*
X25002000Y-59509000D01*
X22242000Y-59549000D02*
X17114000Y-59549000D01*
X30130000Y-59549000D02*
X25002000Y-59549000D01*
X22242000Y-59589000D02*
X17098000Y-59589000D01*
X30146000Y-59589000D02*
X25002000Y-59589000D01*
X22242000Y-59629000D02*
X17081000Y-59629000D01*
X30163000Y-59629000D02*
X25002000Y-59629000D01*
X22242000Y-59669000D02*
X17065000Y-59669000D01*
X30179000Y-59669000D02*
X25002000Y-59669000D01*
X22242000Y-59709000D02*
X17050000Y-59709000D01*
X30194000Y-59709000D02*
X25002000Y-59709000D01*
X22242000Y-59749000D02*
X17034000Y-59749000D01*
X30210000Y-59749000D02*
X25002000Y-59749000D01*
X22242000Y-59789000D02*
X17019000Y-59789000D01*
X30225000Y-59789000D02*
X25002000Y-59789000D01*
X22242000Y-59829000D02*
X17005000Y-59829000D01*
X30239000Y-59829000D02*
X25002000Y-59829000D01*
X22242000Y-59869000D02*
X16990000Y-59869000D01*
X30254000Y-59869000D02*
X25002000Y-59869000D01*
X22242000Y-59909000D02*
X16976000Y-59909000D01*
X30268000Y-59909000D02*
X25002000Y-59909000D01*
X22242000Y-59949000D02*
X16962000Y-59949000D01*
X30282000Y-59949000D02*
X25002000Y-59949000D01*
X22242000Y-59989000D02*
X16948000Y-59989000D01*
X30296000Y-59989000D02*
X25002000Y-59989000D01*
X22242000Y-60029000D02*
X16935000Y-60029000D01*
X30309000Y-60029000D02*
X25002000Y-60029000D01*
X22242000Y-60069000D02*
X16921000Y-60069000D01*
X30323000Y-60069000D02*
X25002000Y-60069000D01*
X22242000Y-60109000D02*
X16909000Y-60109000D01*
X30335000Y-60109000D02*
X25002000Y-60109000D01*
X22242000Y-60149000D02*
X16896000Y-60149000D01*
X30348000Y-60149000D02*
X25002000Y-60149000D01*
X22242000Y-60189000D02*
X16883000Y-60189000D01*
X30361000Y-60189000D02*
X25002000Y-60189000D01*
X22242000Y-60229000D02*
X16871000Y-60229000D01*
X30373000Y-60229000D02*
X25002000Y-60229000D01*
X22242000Y-60269000D02*
X16859000Y-60269000D01*
X30385000Y-60269000D02*
X25002000Y-60269000D01*
X22242000Y-60309000D02*
X16848000Y-60309000D01*
X30396000Y-60309000D02*
X25002000Y-60309000D01*
X22242000Y-60349000D02*
X16836000Y-60349000D01*
X30408000Y-60349000D02*
X25002000Y-60349000D01*
X22242000Y-60389000D02*
X16825000Y-60389000D01*
X30419000Y-60389000D02*
X25002000Y-60389000D01*
X22242000Y-60429000D02*
X16814000Y-60429000D01*
X30430000Y-60429000D02*
X25002000Y-60429000D01*
X22242000Y-60469000D02*
X16804000Y-60469000D01*
X30440000Y-60469000D02*
X25002000Y-60469000D01*
X22242000Y-60509000D02*
X16793000Y-60509000D01*
X30451000Y-60509000D02*
X25002000Y-60509000D01*
X22242000Y-60549000D02*
X16783000Y-60549000D01*
X30461000Y-60549000D02*
X25002000Y-60549000D01*
X22242000Y-60589000D02*
X16773000Y-60589000D01*
X30471000Y-60589000D02*
X25002000Y-60589000D01*
X22242000Y-60629000D02*
X16764000Y-60629000D01*
X30480000Y-60629000D02*
X25002000Y-60629000D01*
X22242000Y-60669000D02*
X16754000Y-60669000D01*
X30490000Y-60669000D02*
X25002000Y-60669000D01*
X22242000Y-60709000D02*
X16745000Y-60709000D01*
X30499000Y-60709000D02*
X25002000Y-60709000D01*
X22242000Y-60749000D02*
X16736000Y-60749000D01*
X30508000Y-60749000D02*
X25002000Y-60749000D01*
X22242000Y-60789000D02*
X16728000Y-60789000D01*
X30516000Y-60789000D02*
X25002000Y-60789000D01*
X22242000Y-60829000D02*
X16719000Y-60829000D01*
X30525000Y-60829000D02*
X25002000Y-60829000D01*
X22242000Y-60869000D02*
X16711000Y-60869000D01*
X30533000Y-60869000D02*
X25002000Y-60869000D01*
X22242000Y-60909000D02*
X16703000Y-60909000D01*
X30541000Y-60909000D02*
X25002000Y-60909000D01*
X22242000Y-60949000D02*
X16695000Y-60949000D01*
X30549000Y-60949000D02*
X25002000Y-60949000D01*
X22242000Y-60989000D02*
X16688000Y-60989000D01*
X30556000Y-60989000D02*
X25002000Y-60989000D01*
X22242000Y-61029000D02*
X16681000Y-61029000D01*
X30563000Y-61029000D02*
X25002000Y-61029000D01*
X22242000Y-61069000D02*
X16674000Y-61069000D01*
X30570000Y-61069000D02*
X25002000Y-61069000D01*
X22242000Y-61109000D02*
X16667000Y-61109000D01*
X30577000Y-61109000D02*
X25002000Y-61109000D01*
X22242000Y-61149000D02*
X16661000Y-61149000D01*
X30583000Y-61149000D02*
X25002000Y-61149000D01*
X30590000Y-61189000D02*
X16654000Y-61189000D01*
X30596000Y-61229000D02*
X16648000Y-61229000D01*
X30602000Y-61269000D02*
X16642000Y-61269000D01*
X30607000Y-61309000D02*
X16637000Y-61309000D01*
X30613000Y-61349000D02*
X16631000Y-61349000D01*
X30618000Y-61389000D02*
X16626000Y-61389000D01*
X30623000Y-61429000D02*
X16621000Y-61429000D01*
X30627000Y-61469000D02*
X16617000Y-61469000D01*
X30632000Y-61509000D02*
X16612000Y-61509000D01*
X30636000Y-61549000D02*
X16608000Y-61549000D01*
X30640000Y-61590000D02*
X16604000Y-61590000D01*
X30644000Y-61630000D02*
X16600000Y-61630000D01*
X30647000Y-61670000D02*
X16597000Y-61670000D01*
X30650000Y-61710000D02*
X16594000Y-61710000D01*
X30653000Y-61750000D02*
X16591000Y-61750000D01*
X30656000Y-61790000D02*
X16588000Y-61790000D01*
X30659000Y-61830000D02*
X16585000Y-61830000D01*
X30661000Y-61870000D02*
X16583000Y-61870000D01*
X30663000Y-61910000D02*
X16581000Y-61910000D01*
X30665000Y-61950000D02*
X16579000Y-61950000D01*
X30667000Y-61990000D02*
X16577000Y-61990000D01*
X30668000Y-62030000D02*
X16576000Y-62030000D01*
X30670000Y-62070000D02*
X16574000Y-62070000D01*
X30671000Y-62110000D02*
X16573000Y-62110000D01*
X30671000Y-62150000D02*
X16573000Y-62150000D01*
X30672000Y-62190000D02*
X16572000Y-62190000D01*
X30672000Y-62230000D02*
X16572000Y-62230000D01*
X30672000Y-62270000D02*
X16572000Y-62270000D01*
X30712000Y-62270000D02*
G75*
G03*
X30712000Y-62270000I-7090000J0D01*
G01*
X65543000Y-67070000D02*
X63743000Y-67070000D01*
X64643000Y-67970000D02*
X64643000Y-66170000D01*
X64980000Y-55189000D02*
X64306000Y-55189000D01*
X65444000Y-55229000D02*
X63842000Y-55229000D01*
X65730000Y-55269000D02*
X63556000Y-55269000D01*
X65955000Y-55309000D02*
X63331000Y-55309000D01*
X66147000Y-55349000D02*
X63139000Y-55349000D01*
X66316000Y-55389000D02*
X62970000Y-55389000D01*
X66470000Y-55429000D02*
X62816000Y-55429000D01*
X66611000Y-55469000D02*
X62675000Y-55469000D01*
X66741000Y-55509000D02*
X62545000Y-55509000D01*
X66864000Y-55549000D02*
X62422000Y-55549000D01*
X66980000Y-55589000D02*
X62306000Y-55589000D01*
X67089000Y-55629000D02*
X62197000Y-55629000D01*
X67193000Y-55669000D02*
X62093000Y-55669000D01*
X67293000Y-55709000D02*
X61993000Y-55709000D01*
X67389000Y-55749000D02*
X61897000Y-55749000D01*
X67481000Y-55789000D02*
X61805000Y-55789000D01*
X67569000Y-55829000D02*
X61717000Y-55829000D01*
X67654000Y-55869000D02*
X61632000Y-55869000D01*
X67737000Y-55909000D02*
X61549000Y-55909000D01*
X67817000Y-55949000D02*
X61469000Y-55949000D01*
X67894000Y-55989000D02*
X61392000Y-55989000D01*
X67970000Y-56029000D02*
X61316000Y-56029000D01*
X68043000Y-56069000D02*
X61243000Y-56069000D01*
X68114000Y-56109000D02*
X61172000Y-56109000D01*
X68183000Y-56149000D02*
X61103000Y-56149000D01*
X68251000Y-56189000D02*
X61035000Y-56189000D01*
X68317000Y-56229000D02*
X60969000Y-56229000D01*
X68381000Y-56269000D02*
X60905000Y-56269000D01*
X68444000Y-56309000D02*
X60842000Y-56309000D01*
X68505000Y-56349000D02*
X60781000Y-56349000D01*
X68565000Y-56389000D02*
X60721000Y-56389000D01*
X68624000Y-56429000D02*
X60662000Y-56429000D01*
X68681000Y-56469000D02*
X60605000Y-56469000D01*
X68738000Y-56509000D02*
X60548000Y-56509000D01*
X68793000Y-56549000D02*
X60493000Y-56549000D01*
X68847000Y-56589000D02*
X60439000Y-56589000D01*
X68900000Y-56629000D02*
X60386000Y-56629000D01*
X68952000Y-56669000D02*
X60334000Y-56669000D01*
X69003000Y-56709000D02*
X60283000Y-56709000D01*
X69053000Y-56749000D02*
X60233000Y-56749000D01*
X69102000Y-56789000D02*
X60184000Y-56789000D01*
X69150000Y-56829000D02*
X60136000Y-56829000D01*
X69198000Y-56869000D02*
X60088000Y-56869000D01*
X69244000Y-56909000D02*
X60042000Y-56909000D01*
X69290000Y-56949000D02*
X59996000Y-56949000D01*
X69335000Y-56989000D02*
X59951000Y-56989000D01*
X69380000Y-57029000D02*
X59906000Y-57029000D01*
X69423000Y-57069000D02*
X59863000Y-57069000D01*
X69466000Y-57109000D02*
X59820000Y-57109000D01*
X69508000Y-57149000D02*
X59778000Y-57149000D01*
X69549000Y-57189000D02*
X59737000Y-57189000D01*
X69590000Y-57229000D02*
X59696000Y-57229000D01*
X69630000Y-57269000D02*
X59656000Y-57269000D01*
X69670000Y-57309000D02*
X59616000Y-57309000D01*
X69709000Y-57349000D02*
X59577000Y-57349000D01*
X69747000Y-57389000D02*
X59539000Y-57389000D01*
X69784000Y-57429000D02*
X59502000Y-57429000D01*
X69822000Y-57469000D02*
X59464000Y-57469000D01*
X69858000Y-57509000D02*
X59428000Y-57509000D01*
X69894000Y-57549000D02*
X59392000Y-57549000D01*
X69929000Y-57589000D02*
X59357000Y-57589000D01*
X69964000Y-57629000D02*
X59322000Y-57629000D01*
X69999000Y-57669000D02*
X59287000Y-57669000D01*
X70033000Y-57709000D02*
X59253000Y-57709000D01*
X70066000Y-57749000D02*
X59220000Y-57749000D01*
X70099000Y-57789000D02*
X59187000Y-57789000D01*
X70131000Y-57829000D02*
X59155000Y-57829000D01*
X70163000Y-57869000D02*
X59123000Y-57869000D01*
X70194000Y-57909000D02*
X59092000Y-57909000D01*
X70225000Y-57949000D02*
X59061000Y-57949000D01*
X70256000Y-57989000D02*
X59030000Y-57989000D01*
X70286000Y-58029000D02*
X59000000Y-58029000D01*
X70316000Y-58069000D02*
X58970000Y-58069000D01*
X70345000Y-58109000D02*
X58941000Y-58109000D01*
X70374000Y-58149000D02*
X58912000Y-58149000D01*
X70402000Y-58189000D02*
X58884000Y-58189000D01*
X70430000Y-58229000D02*
X58856000Y-58229000D01*
X70457000Y-58269000D02*
X58829000Y-58269000D01*
X70485000Y-58309000D02*
X58801000Y-58309000D01*
X70511000Y-58349000D02*
X58775000Y-58349000D01*
X70538000Y-58389000D02*
X58748000Y-58389000D01*
X63263000Y-58429000D02*
X58722000Y-58429000D01*
X70564000Y-58429000D02*
X66023000Y-58429000D01*
X63263000Y-58469000D02*
X58697000Y-58469000D01*
X70589000Y-58469000D02*
X66023000Y-58469000D01*
X63263000Y-58509000D02*
X58672000Y-58509000D01*
X70614000Y-58509000D02*
X66023000Y-58509000D01*
X63263000Y-58549000D02*
X58647000Y-58549000D01*
X70639000Y-58549000D02*
X66023000Y-58549000D01*
X63263000Y-58589000D02*
X58622000Y-58589000D01*
X70664000Y-58589000D02*
X66023000Y-58589000D01*
X63263000Y-58629000D02*
X58598000Y-58629000D01*
X70688000Y-58629000D02*
X66023000Y-58629000D01*
X63263000Y-58669000D02*
X58574000Y-58669000D01*
X70712000Y-58669000D02*
X66023000Y-58669000D01*
X63263000Y-58709000D02*
X58551000Y-58709000D01*
X70735000Y-58709000D02*
X66023000Y-58709000D01*
X63263000Y-58749000D02*
X58528000Y-58749000D01*
X70758000Y-58749000D02*
X66023000Y-58749000D01*
X63263000Y-58789000D02*
X58505000Y-58789000D01*
X70781000Y-58789000D02*
X66023000Y-58789000D01*
X63263000Y-58829000D02*
X58483000Y-58829000D01*
X70803000Y-58829000D02*
X66023000Y-58829000D01*
X63263000Y-58869000D02*
X58461000Y-58869000D01*
X70825000Y-58869000D02*
X66023000Y-58869000D01*
X63263000Y-58909000D02*
X58439000Y-58909000D01*
X70847000Y-58909000D02*
X66023000Y-58909000D01*
X63263000Y-58949000D02*
X58418000Y-58949000D01*
X70868000Y-58949000D02*
X66023000Y-58949000D01*
X63263000Y-58989000D02*
X58397000Y-58989000D01*
X70889000Y-58989000D02*
X66023000Y-58989000D01*
X63263000Y-59029000D02*
X58376000Y-59029000D01*
X70910000Y-59029000D02*
X66023000Y-59029000D01*
X63263000Y-59069000D02*
X58356000Y-59069000D01*
X70930000Y-59069000D02*
X66023000Y-59069000D01*
X63263000Y-59109000D02*
X58336000Y-59109000D01*
X70950000Y-59109000D02*
X66023000Y-59109000D01*
X63263000Y-59149000D02*
X58316000Y-59149000D01*
X70970000Y-59149000D02*
X66023000Y-59149000D01*
X63263000Y-59189000D02*
X58296000Y-59189000D01*
X70990000Y-59189000D02*
X66023000Y-59189000D01*
X63263000Y-59229000D02*
X58277000Y-59229000D01*
X71009000Y-59229000D02*
X66023000Y-59229000D01*
X63263000Y-59269000D02*
X58258000Y-59269000D01*
X71028000Y-59269000D02*
X66023000Y-59269000D01*
X63263000Y-59309000D02*
X58240000Y-59309000D01*
X71046000Y-59309000D02*
X66023000Y-59309000D01*
X63263000Y-59349000D02*
X58222000Y-59349000D01*
X71064000Y-59349000D02*
X66023000Y-59349000D01*
X63263000Y-59389000D02*
X58204000Y-59389000D01*
X71082000Y-59389000D02*
X66023000Y-59389000D01*
X63263000Y-59429000D02*
X58186000Y-59429000D01*
X71100000Y-59429000D02*
X66023000Y-59429000D01*
X63263000Y-59469000D02*
X58169000Y-59469000D01*
X71117000Y-59469000D02*
X66023000Y-59469000D01*
X63263000Y-59509000D02*
X58152000Y-59509000D01*
X71134000Y-59509000D02*
X66023000Y-59509000D01*
X63263000Y-59549000D02*
X58135000Y-59549000D01*
X71151000Y-59549000D02*
X66023000Y-59549000D01*
X63263000Y-59589000D02*
X58119000Y-59589000D01*
X71167000Y-59589000D02*
X66023000Y-59589000D01*
X63263000Y-59629000D02*
X58102000Y-59629000D01*
X71184000Y-59629000D02*
X66023000Y-59629000D01*
X63263000Y-59669000D02*
X58086000Y-59669000D01*
X71200000Y-59669000D02*
X66023000Y-59669000D01*
X63263000Y-59709000D02*
X58071000Y-59709000D01*
X71215000Y-59709000D02*
X66023000Y-59709000D01*
X63263000Y-59749000D02*
X58055000Y-59749000D01*
X71231000Y-59749000D02*
X66023000Y-59749000D01*
X63263000Y-59789000D02*
X58040000Y-59789000D01*
X71246000Y-59789000D02*
X66023000Y-59789000D01*
X63263000Y-59829000D02*
X58026000Y-59829000D01*
X71260000Y-59829000D02*
X66023000Y-59829000D01*
X63263000Y-59869000D02*
X58011000Y-59869000D01*
X71275000Y-59869000D02*
X66023000Y-59869000D01*
X63263000Y-59909000D02*
X57997000Y-59909000D01*
X71289000Y-59909000D02*
X66023000Y-59909000D01*
X63263000Y-59949000D02*
X57983000Y-59949000D01*
X71303000Y-59949000D02*
X66023000Y-59949000D01*
X63263000Y-59989000D02*
X57969000Y-59989000D01*
X71317000Y-59989000D02*
X66023000Y-59989000D01*
X63263000Y-60029000D02*
X57956000Y-60029000D01*
X71330000Y-60029000D02*
X66023000Y-60029000D01*
X63263000Y-60069000D02*
X57942000Y-60069000D01*
X71344000Y-60069000D02*
X66023000Y-60069000D01*
X63263000Y-60109000D02*
X57930000Y-60109000D01*
X71356000Y-60109000D02*
X66023000Y-60109000D01*
X63263000Y-60149000D02*
X57917000Y-60149000D01*
X71369000Y-60149000D02*
X66023000Y-60149000D01*
X63263000Y-60189000D02*
X57904000Y-60189000D01*
X71382000Y-60189000D02*
X66023000Y-60189000D01*
X63263000Y-60229000D02*
X57892000Y-60229000D01*
X71394000Y-60229000D02*
X66023000Y-60229000D01*
X63263000Y-60269000D02*
X57880000Y-60269000D01*
X71406000Y-60269000D02*
X66023000Y-60269000D01*
X63263000Y-60309000D02*
X57869000Y-60309000D01*
X71417000Y-60309000D02*
X66023000Y-60309000D01*
X63263000Y-60349000D02*
X57857000Y-60349000D01*
X71429000Y-60349000D02*
X66023000Y-60349000D01*
X63263000Y-60389000D02*
X57846000Y-60389000D01*
X71440000Y-60389000D02*
X66023000Y-60389000D01*
X63263000Y-60429000D02*
X57835000Y-60429000D01*
X71451000Y-60429000D02*
X66023000Y-60429000D01*
X63263000Y-60469000D02*
X57825000Y-60469000D01*
X71461000Y-60469000D02*
X66023000Y-60469000D01*
X63263000Y-60509000D02*
X57814000Y-60509000D01*
X71472000Y-60509000D02*
X66023000Y-60509000D01*
X63263000Y-60549000D02*
X57804000Y-60549000D01*
X71482000Y-60549000D02*
X66023000Y-60549000D01*
X63263000Y-60589000D02*
X57794000Y-60589000D01*
X71492000Y-60589000D02*
X66023000Y-60589000D01*
X63263000Y-60629000D02*
X57785000Y-60629000D01*
X71501000Y-60629000D02*
X66023000Y-60629000D01*
X63263000Y-60669000D02*
X57775000Y-60669000D01*
X71511000Y-60669000D02*
X66023000Y-60669000D01*
X63263000Y-60709000D02*
X57766000Y-60709000D01*
X71520000Y-60709000D02*
X66023000Y-60709000D01*
X63263000Y-60749000D02*
X57757000Y-60749000D01*
X71529000Y-60749000D02*
X66023000Y-60749000D01*
X63263000Y-60789000D02*
X57749000Y-60789000D01*
X71537000Y-60789000D02*
X66023000Y-60789000D01*
X63263000Y-60829000D02*
X57740000Y-60829000D01*
X71546000Y-60829000D02*
X66023000Y-60829000D01*
X63263000Y-60869000D02*
X57732000Y-60869000D01*
X71554000Y-60869000D02*
X66023000Y-60869000D01*
X63263000Y-60909000D02*
X57724000Y-60909000D01*
X71562000Y-60909000D02*
X66023000Y-60909000D01*
X63263000Y-60949000D02*
X57716000Y-60949000D01*
X71570000Y-60949000D02*
X66023000Y-60949000D01*
X63263000Y-60989000D02*
X57709000Y-60989000D01*
X71577000Y-60989000D02*
X66023000Y-60989000D01*
X63263000Y-61029000D02*
X57702000Y-61029000D01*
X71584000Y-61029000D02*
X66023000Y-61029000D01*
X63263000Y-61069000D02*
X57695000Y-61069000D01*
X71591000Y-61069000D02*
X66023000Y-61069000D01*
X63263000Y-61109000D02*
X57688000Y-61109000D01*
X71598000Y-61109000D02*
X66023000Y-61109000D01*
X63263000Y-61149000D02*
X57682000Y-61149000D01*
X71604000Y-61149000D02*
X66023000Y-61149000D01*
X71611000Y-61189000D02*
X57675000Y-61189000D01*
X71617000Y-61229000D02*
X57669000Y-61229000D01*
X71623000Y-61269000D02*
X57663000Y-61269000D01*
X71628000Y-61309000D02*
X57658000Y-61309000D01*
X71634000Y-61349000D02*
X57652000Y-61349000D01*
X71639000Y-61389000D02*
X57647000Y-61389000D01*
X71644000Y-61429000D02*
X57642000Y-61429000D01*
X71648000Y-61469000D02*
X57638000Y-61469000D01*
X71653000Y-61509000D02*
X57633000Y-61509000D01*
X71657000Y-61549000D02*
X57629000Y-61549000D01*
X71661000Y-61590000D02*
X57625000Y-61590000D01*
X71665000Y-61630000D02*
X57621000Y-61630000D01*
X71668000Y-61670000D02*
X57618000Y-61670000D01*
X71671000Y-61710000D02*
X57615000Y-61710000D01*
X71674000Y-61750000D02*
X57612000Y-61750000D01*
X71677000Y-61790000D02*
X57609000Y-61790000D01*
X71680000Y-61830000D02*
X57606000Y-61830000D01*
X71682000Y-61870000D02*
X57604000Y-61870000D01*
X71684000Y-61910000D02*
X57602000Y-61910000D01*
X71686000Y-61950000D02*
X57600000Y-61950000D01*
X71688000Y-61990000D02*
X57598000Y-61990000D01*
X71689000Y-62030000D02*
X57597000Y-62030000D01*
X71691000Y-62070000D02*
X57595000Y-62070000D01*
X71692000Y-62110000D02*
X57594000Y-62110000D01*
X71692000Y-62150000D02*
X57594000Y-62150000D01*
X71693000Y-62190000D02*
X57593000Y-62190000D01*
X71693000Y-62230000D02*
X57593000Y-62230000D01*
X71693000Y-62270000D02*
X57593000Y-62270000D01*
X71733000Y-62270000D02*
G75*
G03*
X71733000Y-62270000I-7090000J0D01*
G01*
X164183000Y-123682000D02*
X164183000Y-108982000D01*
X164183000Y-108982000D02*
X148533000Y-108982000D01*
X148533000Y-108982000D02*
X148533000Y-123682000D01*
X148533000Y-123682000D02*
X164183000Y-123682000D01*
X163983000Y-116332000D02*
X162983000Y-117332000D01*
X163983000Y-116332000D02*
X162983000Y-115332000D01*
X163983000Y-93218000D02*
X162983000Y-92218000D01*
X163983000Y-93218000D02*
X162983000Y-94218000D01*
X148533000Y-100568000D02*
X164183000Y-100568000D01*
X148533000Y-85868000D02*
X148533000Y-100568000D01*
X164183000Y-85868000D02*
X148533000Y-85868000D01*
X164183000Y-100568000D02*
X164183000Y-85868000D01*
X149973000Y-73417000D02*
X149973000Y-71617000D01*
X149073000Y-72517000D02*
X150873000Y-72517000D01*
X161854000Y-72854000D02*
X161854000Y-72180000D01*
X161814000Y-73318000D02*
X161814000Y-71716000D01*
X161774000Y-73604000D02*
X161774000Y-71430000D01*
X161734000Y-73829000D02*
X161734000Y-71205000D01*
X161694000Y-74021000D02*
X161694000Y-71013000D01*
X161654000Y-74190000D02*
X161654000Y-70844000D01*
X161614000Y-74344000D02*
X161614000Y-70690000D01*
X161574000Y-74485000D02*
X161574000Y-70549000D01*
X161534000Y-74615000D02*
X161534000Y-70419000D01*
X161494000Y-74738000D02*
X161494000Y-70296000D01*
X161454000Y-74854000D02*
X161454000Y-70180000D01*
X161414000Y-74963000D02*
X161414000Y-70071000D01*
X161374000Y-75067000D02*
X161374000Y-69967000D01*
X161334000Y-75167000D02*
X161334000Y-69867000D01*
X161294000Y-75263000D02*
X161294000Y-69771000D01*
X161254000Y-75355000D02*
X161254000Y-69679000D01*
X161214000Y-75443000D02*
X161214000Y-69591000D01*
X161174000Y-75528000D02*
X161174000Y-69506000D01*
X161134000Y-75611000D02*
X161134000Y-69423000D01*
X161094000Y-75691000D02*
X161094000Y-69343000D01*
X161054000Y-75768000D02*
X161054000Y-69266000D01*
X161014000Y-75844000D02*
X161014000Y-69190000D01*
X160974000Y-75917000D02*
X160974000Y-69117000D01*
X160934000Y-75988000D02*
X160934000Y-69046000D01*
X160894000Y-76057000D02*
X160894000Y-68977000D01*
X160854000Y-76125000D02*
X160854000Y-68909000D01*
X160814000Y-76191000D02*
X160814000Y-68843000D01*
X160774000Y-76255000D02*
X160774000Y-68779000D01*
X160734000Y-76318000D02*
X160734000Y-68716000D01*
X160694000Y-76379000D02*
X160694000Y-68655000D01*
X160654000Y-76439000D02*
X160654000Y-68595000D01*
X160614000Y-76498000D02*
X160614000Y-68536000D01*
X160574000Y-76555000D02*
X160574000Y-68479000D01*
X160534000Y-76612000D02*
X160534000Y-68422000D01*
X160494000Y-76667000D02*
X160494000Y-68367000D01*
X160454000Y-76721000D02*
X160454000Y-68313000D01*
X160414000Y-76774000D02*
X160414000Y-68260000D01*
X160374000Y-76826000D02*
X160374000Y-68208000D01*
X160334000Y-76877000D02*
X160334000Y-68157000D01*
X160294000Y-76927000D02*
X160294000Y-68107000D01*
X160254000Y-76976000D02*
X160254000Y-68058000D01*
X160214000Y-77024000D02*
X160214000Y-68010000D01*
X160174000Y-77072000D02*
X160174000Y-67962000D01*
X160134000Y-77118000D02*
X160134000Y-67916000D01*
X160094000Y-77164000D02*
X160094000Y-67870000D01*
X160054000Y-77209000D02*
X160054000Y-67825000D01*
X160014000Y-77254000D02*
X160014000Y-67780000D01*
X159974000Y-77297000D02*
X159974000Y-67737000D01*
X159934000Y-77340000D02*
X159934000Y-67694000D01*
X159894000Y-77382000D02*
X159894000Y-67652000D01*
X159854000Y-77423000D02*
X159854000Y-67611000D01*
X159814000Y-77464000D02*
X159814000Y-67570000D01*
X159774000Y-77504000D02*
X159774000Y-67530000D01*
X159734000Y-77544000D02*
X159734000Y-67490000D01*
X159694000Y-77583000D02*
X159694000Y-67451000D01*
X159654000Y-77621000D02*
X159654000Y-67413000D01*
X159614000Y-77658000D02*
X159614000Y-67376000D01*
X159574000Y-77696000D02*
X159574000Y-67338000D01*
X159534000Y-77732000D02*
X159534000Y-67302000D01*
X159494000Y-77768000D02*
X159494000Y-67266000D01*
X159454000Y-77803000D02*
X159454000Y-67231000D01*
X159414000Y-77838000D02*
X159414000Y-67196000D01*
X159374000Y-77873000D02*
X159374000Y-67161000D01*
X159334000Y-77907000D02*
X159334000Y-67127000D01*
X159294000Y-77940000D02*
X159294000Y-67094000D01*
X159254000Y-77973000D02*
X159254000Y-67061000D01*
X159214000Y-78005000D02*
X159214000Y-67029000D01*
X159174000Y-78037000D02*
X159174000Y-66997000D01*
X159134000Y-78068000D02*
X159134000Y-66966000D01*
X159094000Y-78099000D02*
X159094000Y-66935000D01*
X159054000Y-78130000D02*
X159054000Y-66904000D01*
X159014000Y-78160000D02*
X159014000Y-66874000D01*
X158974000Y-78190000D02*
X158974000Y-66844000D01*
X158934000Y-78219000D02*
X158934000Y-66815000D01*
X158894000Y-78248000D02*
X158894000Y-66786000D01*
X158854000Y-78276000D02*
X158854000Y-66758000D01*
X158814000Y-78304000D02*
X158814000Y-66730000D01*
X158774000Y-78331000D02*
X158774000Y-66703000D01*
X158734000Y-78359000D02*
X158734000Y-66675000D01*
X158694000Y-78385000D02*
X158694000Y-66649000D01*
X158654000Y-78412000D02*
X158654000Y-66622000D01*
X158614000Y-71137000D02*
X158614000Y-66596000D01*
X158614000Y-78438000D02*
X158614000Y-73897000D01*
X158574000Y-71137000D02*
X158574000Y-66571000D01*
X158574000Y-78463000D02*
X158574000Y-73897000D01*
X158534000Y-71137000D02*
X158534000Y-66546000D01*
X158534000Y-78488000D02*
X158534000Y-73897000D01*
X158494000Y-71137000D02*
X158494000Y-66521000D01*
X158494000Y-78513000D02*
X158494000Y-73897000D01*
X158454000Y-71137000D02*
X158454000Y-66496000D01*
X158454000Y-78538000D02*
X158454000Y-73897000D01*
X158414000Y-71137000D02*
X158414000Y-66472000D01*
X158414000Y-78562000D02*
X158414000Y-73897000D01*
X158374000Y-71137000D02*
X158374000Y-66448000D01*
X158374000Y-78586000D02*
X158374000Y-73897000D01*
X158334000Y-71137000D02*
X158334000Y-66425000D01*
X158334000Y-78609000D02*
X158334000Y-73897000D01*
X158294000Y-71137000D02*
X158294000Y-66402000D01*
X158294000Y-78632000D02*
X158294000Y-73897000D01*
X158254000Y-71137000D02*
X158254000Y-66379000D01*
X158254000Y-78655000D02*
X158254000Y-73897000D01*
X158214000Y-71137000D02*
X158214000Y-66357000D01*
X158214000Y-78677000D02*
X158214000Y-73897000D01*
X158174000Y-71137000D02*
X158174000Y-66335000D01*
X158174000Y-78699000D02*
X158174000Y-73897000D01*
X158134000Y-71137000D02*
X158134000Y-66313000D01*
X158134000Y-78721000D02*
X158134000Y-73897000D01*
X158094000Y-71137000D02*
X158094000Y-66292000D01*
X158094000Y-78742000D02*
X158094000Y-73897000D01*
X158054000Y-71137000D02*
X158054000Y-66271000D01*
X158054000Y-78763000D02*
X158054000Y-73897000D01*
X158014000Y-71137000D02*
X158014000Y-66250000D01*
X158014000Y-78784000D02*
X158014000Y-73897000D01*
X157974000Y-71137000D02*
X157974000Y-66230000D01*
X157974000Y-78804000D02*
X157974000Y-73897000D01*
X157934000Y-71137000D02*
X157934000Y-66210000D01*
X157934000Y-78824000D02*
X157934000Y-73897000D01*
X157894000Y-71137000D02*
X157894000Y-66190000D01*
X157894000Y-78844000D02*
X157894000Y-73897000D01*
X157854000Y-71137000D02*
X157854000Y-66170000D01*
X157854000Y-78864000D02*
X157854000Y-73897000D01*
X157814000Y-71137000D02*
X157814000Y-66151000D01*
X157814000Y-78883000D02*
X157814000Y-73897000D01*
X157774000Y-71137000D02*
X157774000Y-66132000D01*
X157774000Y-78902000D02*
X157774000Y-73897000D01*
X157734000Y-71137000D02*
X157734000Y-66114000D01*
X157734000Y-78920000D02*
X157734000Y-73897000D01*
X157694000Y-71137000D02*
X157694000Y-66096000D01*
X157694000Y-78938000D02*
X157694000Y-73897000D01*
X157654000Y-71137000D02*
X157654000Y-66078000D01*
X157654000Y-78956000D02*
X157654000Y-73897000D01*
X157614000Y-71137000D02*
X157614000Y-66060000D01*
X157614000Y-78974000D02*
X157614000Y-73897000D01*
X157574000Y-71137000D02*
X157574000Y-66043000D01*
X157574000Y-78991000D02*
X157574000Y-73897000D01*
X157534000Y-71137000D02*
X157534000Y-66026000D01*
X157534000Y-79008000D02*
X157534000Y-73897000D01*
X157494000Y-71137000D02*
X157494000Y-66009000D01*
X157494000Y-79025000D02*
X157494000Y-73897000D01*
X157454000Y-71137000D02*
X157454000Y-65993000D01*
X157454000Y-79041000D02*
X157454000Y-73897000D01*
X157414000Y-71137000D02*
X157414000Y-65976000D01*
X157414000Y-79058000D02*
X157414000Y-73897000D01*
X157374000Y-71137000D02*
X157374000Y-65960000D01*
X157374000Y-79074000D02*
X157374000Y-73897000D01*
X157334000Y-71137000D02*
X157334000Y-65945000D01*
X157334000Y-79089000D02*
X157334000Y-73897000D01*
X157294000Y-71137000D02*
X157294000Y-65929000D01*
X157294000Y-79105000D02*
X157294000Y-73897000D01*
X157254000Y-71137000D02*
X157254000Y-65914000D01*
X157254000Y-79120000D02*
X157254000Y-73897000D01*
X157214000Y-71137000D02*
X157214000Y-65900000D01*
X157214000Y-79134000D02*
X157214000Y-73897000D01*
X157174000Y-71137000D02*
X157174000Y-65885000D01*
X157174000Y-79149000D02*
X157174000Y-73897000D01*
X157134000Y-71137000D02*
X157134000Y-65871000D01*
X157134000Y-79163000D02*
X157134000Y-73897000D01*
X157094000Y-71137000D02*
X157094000Y-65857000D01*
X157094000Y-79177000D02*
X157094000Y-73897000D01*
X157054000Y-71137000D02*
X157054000Y-65843000D01*
X157054000Y-79191000D02*
X157054000Y-73897000D01*
X157014000Y-71137000D02*
X157014000Y-65830000D01*
X157014000Y-79204000D02*
X157014000Y-73897000D01*
X156974000Y-71137000D02*
X156974000Y-65816000D01*
X156974000Y-79218000D02*
X156974000Y-73897000D01*
X156934000Y-71137000D02*
X156934000Y-65804000D01*
X156934000Y-79230000D02*
X156934000Y-73897000D01*
X156894000Y-71137000D02*
X156894000Y-65791000D01*
X156894000Y-79243000D02*
X156894000Y-73897000D01*
X156854000Y-71137000D02*
X156854000Y-65778000D01*
X156854000Y-79256000D02*
X156854000Y-73897000D01*
X156814000Y-71137000D02*
X156814000Y-65766000D01*
X156814000Y-79268000D02*
X156814000Y-73897000D01*
X156774000Y-71137000D02*
X156774000Y-65754000D01*
X156774000Y-79280000D02*
X156774000Y-73897000D01*
X156734000Y-71137000D02*
X156734000Y-65743000D01*
X156734000Y-79291000D02*
X156734000Y-73897000D01*
X156694000Y-71137000D02*
X156694000Y-65731000D01*
X156694000Y-79303000D02*
X156694000Y-73897000D01*
X156654000Y-71137000D02*
X156654000Y-65720000D01*
X156654000Y-79314000D02*
X156654000Y-73897000D01*
X156614000Y-71137000D02*
X156614000Y-65709000D01*
X156614000Y-79325000D02*
X156614000Y-73897000D01*
X156574000Y-71137000D02*
X156574000Y-65699000D01*
X156574000Y-79335000D02*
X156574000Y-73897000D01*
X156534000Y-71137000D02*
X156534000Y-65688000D01*
X156534000Y-79346000D02*
X156534000Y-73897000D01*
X156494000Y-71137000D02*
X156494000Y-65678000D01*
X156494000Y-79356000D02*
X156494000Y-73897000D01*
X156454000Y-71137000D02*
X156454000Y-65668000D01*
X156454000Y-79366000D02*
X156454000Y-73897000D01*
X156414000Y-71137000D02*
X156414000Y-65659000D01*
X156414000Y-79375000D02*
X156414000Y-73897000D01*
X156374000Y-71137000D02*
X156374000Y-65649000D01*
X156374000Y-79385000D02*
X156374000Y-73897000D01*
X156334000Y-71137000D02*
X156334000Y-65640000D01*
X156334000Y-79394000D02*
X156334000Y-73897000D01*
X156294000Y-71137000D02*
X156294000Y-65631000D01*
X156294000Y-79403000D02*
X156294000Y-73897000D01*
X156254000Y-71137000D02*
X156254000Y-65623000D01*
X156254000Y-79411000D02*
X156254000Y-73897000D01*
X156214000Y-71137000D02*
X156214000Y-65614000D01*
X156214000Y-79420000D02*
X156214000Y-73897000D01*
X156174000Y-71137000D02*
X156174000Y-65606000D01*
X156174000Y-79428000D02*
X156174000Y-73897000D01*
X156134000Y-71137000D02*
X156134000Y-65598000D01*
X156134000Y-79436000D02*
X156134000Y-73897000D01*
X156094000Y-71137000D02*
X156094000Y-65590000D01*
X156094000Y-79444000D02*
X156094000Y-73897000D01*
X156054000Y-71137000D02*
X156054000Y-65583000D01*
X156054000Y-79451000D02*
X156054000Y-73897000D01*
X156014000Y-71137000D02*
X156014000Y-65576000D01*
X156014000Y-79458000D02*
X156014000Y-73897000D01*
X155974000Y-71137000D02*
X155974000Y-65569000D01*
X155974000Y-79465000D02*
X155974000Y-73897000D01*
X155934000Y-71137000D02*
X155934000Y-65562000D01*
X155934000Y-79472000D02*
X155934000Y-73897000D01*
X155894000Y-71137000D02*
X155894000Y-65556000D01*
X155894000Y-79478000D02*
X155894000Y-73897000D01*
X155854000Y-79485000D02*
X155854000Y-65549000D01*
X155814000Y-79491000D02*
X155814000Y-65543000D01*
X155774000Y-79497000D02*
X155774000Y-65537000D01*
X155734000Y-79502000D02*
X155734000Y-65532000D01*
X155694000Y-79508000D02*
X155694000Y-65526000D01*
X155654000Y-79513000D02*
X155654000Y-65521000D01*
X155614000Y-79518000D02*
X155614000Y-65516000D01*
X155574000Y-79522000D02*
X155574000Y-65512000D01*
X155534000Y-79527000D02*
X155534000Y-65507000D01*
X155494000Y-79531000D02*
X155494000Y-65503000D01*
X155453000Y-79535000D02*
X155453000Y-65499000D01*
X155413000Y-79539000D02*
X155413000Y-65495000D01*
X155373000Y-79542000D02*
X155373000Y-65492000D01*
X155333000Y-79545000D02*
X155333000Y-65489000D01*
X155293000Y-79548000D02*
X155293000Y-65486000D01*
X155253000Y-79551000D02*
X155253000Y-65483000D01*
X155213000Y-79554000D02*
X155213000Y-65480000D01*
X155173000Y-79556000D02*
X155173000Y-65478000D01*
X155133000Y-79558000D02*
X155133000Y-65476000D01*
X155093000Y-79560000D02*
X155093000Y-65474000D01*
X155053000Y-79562000D02*
X155053000Y-65472000D01*
X155013000Y-79563000D02*
X155013000Y-65471000D01*
X154973000Y-79565000D02*
X154973000Y-65469000D01*
X154933000Y-79566000D02*
X154933000Y-65468000D01*
X154893000Y-79566000D02*
X154893000Y-65468000D01*
X154853000Y-79567000D02*
X154853000Y-65467000D01*
X154813000Y-79567000D02*
X154813000Y-65467000D01*
X154773000Y-79567000D02*
X154773000Y-65467000D01*
X161863000Y-72517000D02*
G75*
G03*
X161863000Y-72517000I-7090000J0D01*
G01*
X1548000Y-125714000D02*
X1548000Y-146574000D01*
X1548000Y-146574000D02*
X10898000Y-146574000D01*
X10898000Y-146574000D02*
X10898000Y-125714000D01*
X10898000Y-125714000D02*
X1548000Y-125714000D01*
X11148000Y-125464000D02*
X11148000Y-128004000D01*
X11148000Y-125464000D02*
X8608000Y-125464000D01*
X11148000Y-101207000D02*
X8608000Y-101207000D01*
X11148000Y-101207000D02*
X11148000Y-103747000D01*
X10898000Y-101457000D02*
X1548000Y-101457000D01*
X10898000Y-122317000D02*
X10898000Y-101457000D01*
X1548000Y-122317000D02*
X10898000Y-122317000D01*
X1548000Y-101457000D02*
X1548000Y-122317000D01*
X35578000Y-58406000D02*
X35578000Y-61800000D01*
X38978000Y-58406000D02*
X38978000Y-61800000D01*
X42378000Y-58406000D02*
X42378000Y-61800000D01*
X45778000Y-58406000D02*
X45778000Y-61800000D01*
X49178000Y-58406000D02*
X49178000Y-61800000D01*
X52578000Y-58406000D02*
X52578000Y-61815000D01*
X42228000Y-53165000D02*
X42228000Y-55005000D01*
X45928000Y-53165000D02*
X45928000Y-55005000D01*
X54298000Y-55005000D02*
X33858000Y-55005000D01*
X33858000Y-53165000D02*
X33858000Y-58406000D01*
X54298000Y-53165000D02*
X54298000Y-58406000D01*
X36353000Y-58406000D02*
X33858000Y-58406000D01*
X39753000Y-58406000D02*
X38202000Y-58406000D01*
X43153000Y-58406000D02*
X41602000Y-58406000D01*
X46553000Y-58406000D02*
X45002000Y-58406000D01*
X49953000Y-58406000D02*
X48402000Y-58406000D01*
X54298000Y-58406000D02*
X51802000Y-58406000D01*
X54298000Y-53165000D02*
X33858000Y-53165000D01*
X95065000Y-53165000D02*
X74625000Y-53165000D01*
X95065000Y-58406000D02*
X92569000Y-58406000D01*
X90720000Y-58406000D02*
X89169000Y-58406000D01*
X87320000Y-58406000D02*
X85769000Y-58406000D01*
X83920000Y-58406000D02*
X82369000Y-58406000D01*
X80520000Y-58406000D02*
X78969000Y-58406000D01*
X77120000Y-58406000D02*
X74625000Y-58406000D01*
X95065000Y-53165000D02*
X95065000Y-58406000D01*
X74625000Y-53165000D02*
X74625000Y-58406000D01*
X95065000Y-55005000D02*
X74625000Y-55005000D01*
X86695000Y-53165000D02*
X86695000Y-55005000D01*
X82995000Y-53165000D02*
X82995000Y-55005000D01*
X93345000Y-58406000D02*
X93345000Y-61815000D01*
X89945000Y-58406000D02*
X89945000Y-61800000D01*
X86545000Y-58406000D02*
X86545000Y-61800000D01*
X83145000Y-58406000D02*
X83145000Y-61800000D01*
X79745000Y-58406000D02*
X79745000Y-61800000D01*
X76345000Y-58406000D02*
X76345000Y-61800000D01*
X117366000Y-58406000D02*
X117366000Y-61800000D01*
X120766000Y-58406000D02*
X120766000Y-61800000D01*
X124166000Y-58406000D02*
X124166000Y-61800000D01*
X127566000Y-58406000D02*
X127566000Y-61800000D01*
X130966000Y-58406000D02*
X130966000Y-61800000D01*
X134366000Y-58406000D02*
X134366000Y-61815000D01*
X124016000Y-53165000D02*
X124016000Y-55005000D01*
X127716000Y-53165000D02*
X127716000Y-55005000D01*
X136086000Y-55005000D02*
X115646000Y-55005000D01*
X115646000Y-53165000D02*
X115646000Y-58406000D01*
X136086000Y-53165000D02*
X136086000Y-58406000D01*
X118141000Y-58406000D02*
X115646000Y-58406000D01*
X121541000Y-58406000D02*
X119990000Y-58406000D01*
X124941000Y-58406000D02*
X123390000Y-58406000D01*
X128341000Y-58406000D02*
X126790000Y-58406000D01*
X131741000Y-58406000D02*
X130190000Y-58406000D01*
X136086000Y-58406000D02*
X133590000Y-58406000D01*
X136086000Y-53165000D02*
X115646000Y-53165000D01*
D12*
X149466904Y-54561619D02*
X149466904Y-53545619D01*
X149079857Y-53545619D01*
X148983095Y-53594000D01*
X148934714Y-53642380D01*
X148886333Y-53739142D01*
X148886333Y-53884285D01*
X148934714Y-53981047D01*
X148983095Y-54029428D01*
X149079857Y-54077809D01*
X149466904Y-54077809D01*
X148450904Y-54561619D02*
X148450904Y-53545619D01*
X148209000Y-53545619D01*
X148063857Y-53594000D01*
X147967095Y-53690761D01*
X147918714Y-53787523D01*
X147870333Y-53981047D01*
X147870333Y-54126190D01*
X147918714Y-54319714D01*
X147967095Y-54416476D01*
X148063857Y-54513238D01*
X148209000Y-54561619D01*
X148450904Y-54561619D01*
X147531666Y-53545619D02*
X146854333Y-53545619D01*
X147289761Y-54561619D01*
D10*
X2841523Y-54157571D02*
X3174857Y-54157571D01*
X3174857Y-54681380D02*
X3174857Y-53681380D01*
X2698666Y-53681380D01*
X2365333Y-54395666D02*
X1889142Y-54395666D01*
X2460571Y-54681380D02*
X2127238Y-53681380D01*
X1793904Y-54681380D01*
X1460571Y-54681380D02*
X1460571Y-53681380D01*
X889142Y-54681380D01*
X889142Y-53681380D01*
X111894857Y-69318142D02*
X111942476Y-69365761D01*
X112085333Y-69413380D01*
X112180571Y-69413380D01*
X112323428Y-69365761D01*
X112418666Y-69270523D01*
X112466285Y-69175285D01*
X112513904Y-68984809D01*
X112513904Y-68841952D01*
X112466285Y-68651476D01*
X112418666Y-68556238D01*
X112323428Y-68461000D01*
X112180571Y-68413380D01*
X112085333Y-68413380D01*
X111942476Y-68461000D01*
X111894857Y-68508619D01*
X111037714Y-68746714D02*
X111037714Y-69413380D01*
X111275809Y-68365761D02*
X111513904Y-69080047D01*
X110894857Y-69080047D01*
X110371047Y-68841952D02*
X110466285Y-68794333D01*
X110513904Y-68746714D01*
X110561523Y-68651476D01*
X110561523Y-68603857D01*
X110513904Y-68508619D01*
X110466285Y-68461000D01*
X110371047Y-68413380D01*
X110180571Y-68413380D01*
X110085333Y-68461000D01*
X110037714Y-68508619D01*
X109990095Y-68603857D01*
X109990095Y-68651476D01*
X110037714Y-68746714D01*
X110085333Y-68794333D01*
X110180571Y-68841952D01*
X110371047Y-68841952D01*
X110466285Y-68889571D01*
X110513904Y-68937190D01*
X110561523Y-69032428D01*
X110561523Y-69222904D01*
X110513904Y-69318142D01*
X110466285Y-69365761D01*
X110371047Y-69413380D01*
X110180571Y-69413380D01*
X110085333Y-69365761D01*
X110037714Y-69318142D01*
X109990095Y-69222904D01*
X109990095Y-69032428D01*
X110037714Y-68937190D01*
X110085333Y-68889571D01*
X110180571Y-68841952D01*
X30011666Y-69318142D02*
X30059285Y-69365761D01*
X30202142Y-69413380D01*
X30297380Y-69413380D01*
X30440238Y-69365761D01*
X30535476Y-69270523D01*
X30583095Y-69175285D01*
X30630714Y-68984809D01*
X30630714Y-68841952D01*
X30583095Y-68651476D01*
X30535476Y-68556238D01*
X30440238Y-68461000D01*
X30297380Y-68413380D01*
X30202142Y-68413380D01*
X30059285Y-68461000D01*
X30011666Y-68508619D01*
X29154523Y-68746714D02*
X29154523Y-69413380D01*
X29392619Y-68365761D02*
X29630714Y-69080047D01*
X29011666Y-69080047D01*
X71127857Y-69318142D02*
X71175476Y-69365761D01*
X71318333Y-69413380D01*
X71413571Y-69413380D01*
X71556428Y-69365761D01*
X71651666Y-69270523D01*
X71699285Y-69175285D01*
X71746904Y-68984809D01*
X71746904Y-68841952D01*
X71699285Y-68651476D01*
X71651666Y-68556238D01*
X71556428Y-68461000D01*
X71413571Y-68413380D01*
X71318333Y-68413380D01*
X71175476Y-68461000D01*
X71127857Y-68508619D01*
X70746904Y-68508619D02*
X70699285Y-68461000D01*
X70604047Y-68413380D01*
X70365952Y-68413380D01*
X70270714Y-68461000D01*
X70223095Y-68508619D01*
X70175476Y-68603857D01*
X70175476Y-68699095D01*
X70223095Y-68841952D01*
X70794523Y-69413380D01*
X70175476Y-69413380D01*
X69270714Y-68413380D02*
X69746904Y-68413380D01*
X69794523Y-68889571D01*
X69746904Y-68841952D01*
X69651666Y-68794333D01*
X69413571Y-68794333D01*
X69318333Y-68841952D01*
X69270714Y-68889571D01*
X69223095Y-68984809D01*
X69223095Y-69222904D01*
X69270714Y-69318142D01*
X69318333Y-69365761D01*
X69413571Y-69413380D01*
X69651666Y-69413380D01*
X69746904Y-69365761D01*
X69794523Y-69318142D01*
X147930619Y-117093904D02*
X147216333Y-117093904D01*
X147073476Y-117141523D01*
X146978238Y-117236761D01*
X146930619Y-117379619D01*
X146930619Y-117474857D01*
X147454428Y-116284380D02*
X147454428Y-116617714D01*
X146930619Y-116617714D02*
X147930619Y-116617714D01*
X147930619Y-116141523D01*
X146930619Y-115236761D02*
X146930619Y-115808190D01*
X146930619Y-115522476D02*
X147930619Y-115522476D01*
X147787761Y-115617714D01*
X147692523Y-115712952D01*
X147644904Y-115808190D01*
X147930619Y-93979904D02*
X147216333Y-93979904D01*
X147073476Y-94027523D01*
X146978238Y-94122761D01*
X146930619Y-94265619D01*
X146930619Y-94360857D01*
X147454428Y-93170380D02*
X147454428Y-93503714D01*
X146930619Y-93503714D02*
X147930619Y-93503714D01*
X147930619Y-93027523D01*
X147835380Y-92694190D02*
X147883000Y-92646571D01*
X147930619Y-92551333D01*
X147930619Y-92313238D01*
X147883000Y-92218000D01*
X147835380Y-92170380D01*
X147740142Y-92122761D01*
X147644904Y-92122761D01*
X147502047Y-92170380D01*
X146930619Y-92741809D01*
X146930619Y-92122761D01*
X148629666Y-79605142D02*
X148677285Y-79652761D01*
X148820142Y-79700380D01*
X148915380Y-79700380D01*
X149058238Y-79652761D01*
X149153476Y-79557523D01*
X149201095Y-79462285D01*
X149248714Y-79271809D01*
X149248714Y-79128952D01*
X149201095Y-78938476D01*
X149153476Y-78843238D01*
X149058238Y-78748000D01*
X148915380Y-78700380D01*
X148820142Y-78700380D01*
X148677285Y-78748000D01*
X148629666Y-78795619D01*
X148153476Y-79700380D02*
X147963000Y-79700380D01*
X147867761Y-79652761D01*
X147820142Y-79605142D01*
X147724904Y-79462285D01*
X147677285Y-79271809D01*
X147677285Y-78890857D01*
X147724904Y-78795619D01*
X147772523Y-78748000D01*
X147867761Y-78700380D01*
X148058238Y-78700380D01*
X148153476Y-78748000D01*
X148201095Y-78795619D01*
X148248714Y-78890857D01*
X148248714Y-79128952D01*
X148201095Y-79224190D01*
X148153476Y-79271809D01*
X148058238Y-79319428D01*
X147867761Y-79319428D01*
X147772523Y-79271809D01*
X147724904Y-79224190D01*
X147677285Y-79128952D01*
X6556333Y-123912380D02*
X6556333Y-124626666D01*
X6603952Y-124769523D01*
X6699190Y-124864761D01*
X6842047Y-124912380D01*
X6937285Y-124912380D01*
X5651571Y-123912380D02*
X5842047Y-123912380D01*
X5937285Y-123960000D01*
X5984904Y-124007619D01*
X6080142Y-124150476D01*
X6127761Y-124340952D01*
X6127761Y-124721904D01*
X6080142Y-124817142D01*
X6032523Y-124864761D01*
X5937285Y-124912380D01*
X5746809Y-124912380D01*
X5651571Y-124864761D01*
X5603952Y-124817142D01*
X5556333Y-124721904D01*
X5556333Y-124483809D01*
X5603952Y-124388571D01*
X5651571Y-124340952D01*
X5746809Y-124293333D01*
X5937285Y-124293333D01*
X6032523Y-124340952D01*
X6080142Y-124388571D01*
X6127761Y-124483809D01*
X6556333Y-99655380D02*
X6556333Y-100369666D01*
X6603952Y-100512523D01*
X6699190Y-100607761D01*
X6842047Y-100655380D01*
X6937285Y-100655380D01*
X6175380Y-99655380D02*
X5508714Y-99655380D01*
X5937285Y-100655380D01*
X53339904Y-64476380D02*
X53339904Y-65285904D01*
X53292285Y-65381142D01*
X53244666Y-65428761D01*
X53149428Y-65476380D01*
X52958952Y-65476380D01*
X52863714Y-65428761D01*
X52816095Y-65381142D01*
X52768476Y-65285904D01*
X52768476Y-64476380D01*
X52244666Y-65476380D02*
X52054190Y-65476380D01*
X51958952Y-65428761D01*
X51911333Y-65381142D01*
X51816095Y-65238285D01*
X51768476Y-65047809D01*
X51768476Y-64666857D01*
X51816095Y-64571619D01*
X51863714Y-64524000D01*
X51958952Y-64476380D01*
X52149428Y-64476380D01*
X52244666Y-64524000D01*
X52292285Y-64571619D01*
X52339904Y-64666857D01*
X52339904Y-64904952D01*
X52292285Y-65000190D01*
X52244666Y-65047809D01*
X52149428Y-65095428D01*
X51958952Y-65095428D01*
X51863714Y-65047809D01*
X51816095Y-65000190D01*
X51768476Y-64904952D01*
X94583095Y-64603380D02*
X94583095Y-65412904D01*
X94535476Y-65508142D01*
X94487857Y-65555761D01*
X94392619Y-65603380D01*
X94202142Y-65603380D01*
X94106904Y-65555761D01*
X94059285Y-65508142D01*
X94011666Y-65412904D01*
X94011666Y-64603380D01*
X93011666Y-65603380D02*
X93583095Y-65603380D01*
X93297380Y-65603380D02*
X93297380Y-64603380D01*
X93392619Y-64746238D01*
X93487857Y-64841476D01*
X93583095Y-64889095D01*
X92440238Y-65031952D02*
X92535476Y-64984333D01*
X92583095Y-64936714D01*
X92630714Y-64841476D01*
X92630714Y-64793857D01*
X92583095Y-64698619D01*
X92535476Y-64651000D01*
X92440238Y-64603380D01*
X92249761Y-64603380D01*
X92154523Y-64651000D01*
X92106904Y-64698619D01*
X92059285Y-64793857D01*
X92059285Y-64841476D01*
X92106904Y-64936714D01*
X92154523Y-64984333D01*
X92249761Y-65031952D01*
X92440238Y-65031952D01*
X92535476Y-65079571D01*
X92583095Y-65127190D01*
X92630714Y-65222428D01*
X92630714Y-65412904D01*
X92583095Y-65508142D01*
X92535476Y-65555761D01*
X92440238Y-65603380D01*
X92249761Y-65603380D01*
X92154523Y-65555761D01*
X92106904Y-65508142D01*
X92059285Y-65412904D01*
X92059285Y-65222428D01*
X92106904Y-65127190D01*
X92154523Y-65079571D01*
X92249761Y-65031952D01*
X135604095Y-64603380D02*
X135604095Y-65412904D01*
X135556476Y-65508142D01*
X135508857Y-65555761D01*
X135413619Y-65603380D01*
X135223142Y-65603380D01*
X135127904Y-65555761D01*
X135080285Y-65508142D01*
X135032666Y-65412904D01*
X135032666Y-64603380D01*
X134604095Y-64698619D02*
X134556476Y-64651000D01*
X134461238Y-64603380D01*
X134223142Y-64603380D01*
X134127904Y-64651000D01*
X134080285Y-64698619D01*
X134032666Y-64793857D01*
X134032666Y-64889095D01*
X134080285Y-65031952D01*
X134651714Y-65603380D01*
X134032666Y-65603380D01*
X133699333Y-64603380D02*
X133032666Y-64603380D01*
X133461238Y-65603380D01*
%LPC*%
D13*
X14930000Y-27940000D03*
X134930000Y-27940000D03*
X74930000Y-27940000D03*
G36*
G01*
X28333000Y-94554000D02*
X29833000Y-94554000D01*
G75*
G02*
X30033000Y-94754000I0J-200000D01*
G01*
X30033000Y-96254000D01*
G75*
G02*
X29833000Y-96454000I-200000J0D01*
G01*
X28333000Y-96454000D01*
G75*
G02*
X28133000Y-96254000I0J200000D01*
G01*
X28133000Y-94754000D01*
G75*
G02*
X28333000Y-94554000I200000J0D01*
G01*
G37*
D14*
X105410000Y-59770000D03*
G36*
G01*
X106610000Y-66170000D02*
X104210000Y-66170000D01*
G75*
G02*
X104010000Y-65970000I0J200000D01*
G01*
X104010000Y-63570000D01*
G75*
G02*
X104210000Y-63370000I200000J0D01*
G01*
X106610000Y-63370000D01*
G75*
G02*
X106810000Y-63570000I0J-200000D01*
G01*
X106810000Y-65970000D01*
G75*
G02*
X106610000Y-66170000I-200000J0D01*
G01*
G37*
G36*
G01*
X24822000Y-66170000D02*
X22422000Y-66170000D01*
G75*
G02*
X22222000Y-65970000I0J200000D01*
G01*
X22222000Y-63570000D01*
G75*
G02*
X22422000Y-63370000I200000J0D01*
G01*
X24822000Y-63370000D01*
G75*
G02*
X25022000Y-63570000I0J-200000D01*
G01*
X25022000Y-65970000D01*
G75*
G02*
X24822000Y-66170000I-200000J0D01*
G01*
G37*
X23622000Y-59770000D03*
G36*
G01*
X65843000Y-66170000D02*
X63443000Y-66170000D01*
G75*
G02*
X63243000Y-65970000I0J200000D01*
G01*
X63243000Y-63570000D01*
G75*
G02*
X63443000Y-63370000I200000J0D01*
G01*
X65843000Y-63370000D01*
G75*
G02*
X66043000Y-63570000I0J-200000D01*
G01*
X66043000Y-65970000D01*
G75*
G02*
X65843000Y-66170000I-200000J0D01*
G01*
G37*
X64643000Y-59770000D03*
G36*
G01*
X44008000Y-67171000D02*
X44008000Y-65671000D01*
G75*
G02*
X44208000Y-65471000I200000J0D01*
G01*
X45708000Y-65471000D01*
G75*
G02*
X45908000Y-65671000I0J-200000D01*
G01*
X45908000Y-67171000D01*
G75*
G02*
X45708000Y-67371000I-200000J0D01*
G01*
X44208000Y-67371000D01*
G75*
G02*
X44008000Y-67171000I0J200000D01*
G01*
G37*
G36*
G01*
X125796000Y-67171000D02*
X125796000Y-65671000D01*
G75*
G02*
X125996000Y-65471000I200000J0D01*
G01*
X127496000Y-65471000D01*
G75*
G02*
X127696000Y-65671000I0J-200000D01*
G01*
X127696000Y-67171000D01*
G75*
G02*
X127496000Y-67371000I-200000J0D01*
G01*
X125996000Y-67371000D01*
G75*
G02*
X125796000Y-67171000I0J200000D01*
G01*
G37*
G36*
G01*
X3245000Y-79499000D02*
X5645000Y-79499000D01*
G75*
G02*
X5845000Y-79699000I0J-200000D01*
G01*
X5845000Y-82099000D01*
G75*
G02*
X5645000Y-82299000I-200000J0D01*
G01*
X3245000Y-82299000D01*
G75*
G02*
X3045000Y-82099000I0J200000D01*
G01*
X3045000Y-79699000D01*
G75*
G02*
X3245000Y-79499000I200000J0D01*
G01*
G37*
X4445000Y-84399000D03*
X4445000Y-87899000D03*
D15*
X149733000Y-113792000D03*
X152273000Y-116332000D03*
X149733000Y-118872000D03*
G36*
G01*
X150233000Y-117332000D02*
X149233000Y-117332000D01*
G75*
G02*
X148733000Y-116832000I0J500000D01*
G01*
X148733000Y-115832000D01*
G75*
G02*
X149233000Y-115332000I500000J0D01*
G01*
X150233000Y-115332000D01*
G75*
G02*
X150733000Y-115832000I0J-500000D01*
G01*
X150733000Y-116832000D01*
G75*
G02*
X150233000Y-117332000I-500000J0D01*
G01*
G37*
D16*
X158523000Y-111252000D03*
X158623000Y-121412000D03*
X158623000Y-98298000D03*
X158523000Y-88138000D03*
G36*
G01*
X150233000Y-94218000D02*
X149233000Y-94218000D01*
G75*
G02*
X148733000Y-93718000I0J500000D01*
G01*
X148733000Y-92718000D01*
G75*
G02*
X149233000Y-92218000I500000J0D01*
G01*
X150233000Y-92218000D01*
G75*
G02*
X150733000Y-92718000I0J-500000D01*
G01*
X150733000Y-93718000D01*
G75*
G02*
X150233000Y-94218000I-500000J0D01*
G01*
G37*
D15*
X149733000Y-95758000D03*
X152273000Y-93218000D03*
X149733000Y-90678000D03*
D17*
X131313000Y-89662000D03*
X131313000Y-92202000D03*
X131313000Y-135382000D03*
X131313000Y-137922000D03*
X86609000Y-89662000D03*
X86609000Y-92202000D03*
X84069000Y-89662000D03*
X84069000Y-92202000D03*
X81529000Y-89662000D03*
X81529000Y-92202000D03*
X78989000Y-89662000D03*
X78989000Y-92202000D03*
X76449000Y-89662000D03*
X76449000Y-92202000D03*
X73909000Y-89662000D03*
X73909000Y-92202000D03*
X71369000Y-89662000D03*
X71369000Y-92202000D03*
X68829000Y-89662000D03*
X68829000Y-92202000D03*
X66289000Y-89662000D03*
X66289000Y-92202000D03*
D18*
X110993000Y-104902000D03*
X60193000Y-89662000D03*
D17*
X128773000Y-89662000D03*
X128773000Y-92202000D03*
X126233000Y-89662000D03*
X126233000Y-92202000D03*
X123693000Y-89662000D03*
X123693000Y-92202000D03*
X121153000Y-89662000D03*
X121153000Y-92202000D03*
X118613000Y-89662000D03*
X118613000Y-92202000D03*
X116073000Y-89662000D03*
X116073000Y-92202000D03*
X113533000Y-89662000D03*
X113533000Y-92202000D03*
X110993000Y-89662000D03*
X110993000Y-92202000D03*
D18*
X135123000Y-90932000D03*
D17*
X108453000Y-89662000D03*
X108453000Y-92202000D03*
X105913000Y-89662000D03*
X105913000Y-92202000D03*
X103373000Y-89662000D03*
X103373000Y-92202000D03*
X100833000Y-89662000D03*
X100833000Y-92202000D03*
X98293000Y-89662000D03*
X98293000Y-92202000D03*
X95753000Y-89662000D03*
X95753000Y-92202000D03*
X93213000Y-89662000D03*
X93213000Y-92202000D03*
X90673000Y-89662000D03*
G36*
G01*
X91438000Y-93167000D02*
X89908000Y-93167000D01*
G75*
G02*
X89708000Y-92967000I0J200000D01*
G01*
X89708000Y-91437000D01*
G75*
G02*
X89908000Y-91237000I200000J0D01*
G01*
X91438000Y-91237000D01*
G75*
G02*
X91638000Y-91437000I0J-200000D01*
G01*
X91638000Y-92967000D01*
G75*
G02*
X91438000Y-93167000I-200000J0D01*
G01*
G37*
X63749000Y-89662000D03*
G36*
G01*
X64514000Y-93167000D02*
X62984000Y-93167000D01*
G75*
G02*
X62784000Y-92967000I0J200000D01*
G01*
X62784000Y-91437000D01*
G75*
G02*
X62984000Y-91237000I200000J0D01*
G01*
X64514000Y-91237000D01*
G75*
G02*
X64714000Y-91437000I0J-200000D01*
G01*
X64714000Y-92967000D01*
G75*
G02*
X64514000Y-93167000I-200000J0D01*
G01*
G37*
D18*
X135123000Y-136652000D03*
D17*
X128773000Y-135382000D03*
X128773000Y-137922000D03*
X126233000Y-135382000D03*
X126233000Y-137922000D03*
X123693000Y-135382000D03*
X123693000Y-137922000D03*
X121153000Y-135382000D03*
X121153000Y-137922000D03*
X118613000Y-135382000D03*
X118613000Y-137922000D03*
X116073000Y-135382000D03*
X116073000Y-137922000D03*
X113533000Y-135382000D03*
X113533000Y-137922000D03*
X110993000Y-135382000D03*
X110993000Y-137922000D03*
X108453000Y-135382000D03*
X108453000Y-137922000D03*
X105913000Y-135382000D03*
X105913000Y-137922000D03*
X103373000Y-135382000D03*
X103373000Y-137922000D03*
X100833000Y-135382000D03*
X100833000Y-137922000D03*
X98293000Y-135382000D03*
X98293000Y-137922000D03*
X95753000Y-135382000D03*
G36*
G01*
X96518000Y-138887000D02*
X94988000Y-138887000D01*
G75*
G02*
X94788000Y-138687000I0J200000D01*
G01*
X94788000Y-137157000D01*
G75*
G02*
X94988000Y-136957000I200000J0D01*
G01*
X96518000Y-136957000D01*
G75*
G02*
X96718000Y-137157000I0J-200000D01*
G01*
X96718000Y-138687000D01*
G75*
G02*
X96518000Y-138887000I-200000J0D01*
G01*
G37*
X90673000Y-135382000D03*
X90673000Y-137922000D03*
X88133000Y-135382000D03*
X88133000Y-137922000D03*
X85593000Y-135382000D03*
X85593000Y-137922000D03*
X83053000Y-135382000D03*
X83053000Y-137922000D03*
X80513000Y-135382000D03*
X80513000Y-137922000D03*
X77973000Y-135382000D03*
X77973000Y-137922000D03*
X75433000Y-135382000D03*
X75433000Y-137922000D03*
X72893000Y-135382000D03*
G36*
G01*
X73658000Y-138887000D02*
X72128000Y-138887000D01*
G75*
G02*
X71928000Y-138687000I0J200000D01*
G01*
X71928000Y-137157000D01*
G75*
G02*
X72128000Y-136957000I200000J0D01*
G01*
X73658000Y-136957000D01*
G75*
G02*
X73858000Y-137157000I0J-200000D01*
G01*
X73858000Y-138687000D01*
G75*
G02*
X73658000Y-138887000I-200000J0D01*
G01*
G37*
D18*
X58953000Y-137922000D03*
D19*
X151632920Y-145542000D03*
X151709120Y-143002000D03*
X151632920Y-84582000D03*
X151632920Y-82042000D03*
G36*
G01*
X64020000Y-128971000D02*
X65520000Y-128971000D01*
G75*
G02*
X65720000Y-129171000I0J-200000D01*
G01*
X65720000Y-130671000D01*
G75*
G02*
X65520000Y-130871000I-200000J0D01*
G01*
X64020000Y-130871000D01*
G75*
G02*
X63820000Y-130671000I0J200000D01*
G01*
X63820000Y-129171000D01*
G75*
G02*
X64020000Y-128971000I200000J0D01*
G01*
G37*
G36*
G01*
X14920000Y-86372000D02*
X14920000Y-87872000D01*
G75*
G02*
X14720000Y-88072000I-200000J0D01*
G01*
X13220000Y-88072000D01*
G75*
G02*
X13020000Y-87872000I0J200000D01*
G01*
X13020000Y-86372000D01*
G75*
G02*
X13220000Y-86172000I200000J0D01*
G01*
X14720000Y-86172000D01*
G75*
G02*
X14920000Y-86372000I0J-200000D01*
G01*
G37*
G36*
G01*
X7813000Y-65520000D02*
X7813000Y-64020000D01*
G75*
G02*
X8013000Y-63820000I200000J0D01*
G01*
X9513000Y-63820000D01*
G75*
G02*
X9713000Y-64020000I0J-200000D01*
G01*
X9713000Y-65520000D01*
G75*
G02*
X9513000Y-65720000I-200000J0D01*
G01*
X8013000Y-65720000D01*
G75*
G02*
X7813000Y-65520000I0J200000D01*
G01*
G37*
G36*
G01*
X51882000Y-92825000D02*
X51882000Y-91325000D01*
G75*
G02*
X52082000Y-91125000I200000J0D01*
G01*
X53582000Y-91125000D01*
G75*
G02*
X53782000Y-91325000I0J-200000D01*
G01*
X53782000Y-92825000D01*
G75*
G02*
X53582000Y-93025000I-200000J0D01*
G01*
X52082000Y-93025000D01*
G75*
G02*
X51882000Y-92825000I0J200000D01*
G01*
G37*
G36*
G01*
X150873000Y-73717000D02*
X150873000Y-71317000D01*
G75*
G02*
X151073000Y-71117000I200000J0D01*
G01*
X153473000Y-71117000D01*
G75*
G02*
X153673000Y-71317000I0J-200000D01*
G01*
X153673000Y-73717000D01*
G75*
G02*
X153473000Y-73917000I-200000J0D01*
G01*
X151073000Y-73917000D01*
G75*
G02*
X150873000Y-73717000I0J200000D01*
G01*
G37*
D14*
X157273000Y-72517000D03*
G36*
G01*
X44008000Y-70727000D02*
X44008000Y-69227000D01*
G75*
G02*
X44208000Y-69027000I200000J0D01*
G01*
X45708000Y-69027000D01*
G75*
G02*
X45908000Y-69227000I0J-200000D01*
G01*
X45908000Y-70727000D01*
G75*
G02*
X45708000Y-70927000I-200000J0D01*
G01*
X44208000Y-70927000D01*
G75*
G02*
X44008000Y-70727000I0J200000D01*
G01*
G37*
G36*
G01*
X84775000Y-70727000D02*
X84775000Y-69227000D01*
G75*
G02*
X84975000Y-69027000I200000J0D01*
G01*
X86475000Y-69027000D01*
G75*
G02*
X86675000Y-69227000I0J-200000D01*
G01*
X86675000Y-70727000D01*
G75*
G02*
X86475000Y-70927000I-200000J0D01*
G01*
X84975000Y-70927000D01*
G75*
G02*
X84775000Y-70727000I0J200000D01*
G01*
G37*
G36*
G01*
X125796000Y-70727000D02*
X125796000Y-69227000D01*
G75*
G02*
X125996000Y-69027000I200000J0D01*
G01*
X127496000Y-69027000D01*
G75*
G02*
X127696000Y-69227000I0J-200000D01*
G01*
X127696000Y-70727000D01*
G75*
G02*
X127496000Y-70927000I-200000J0D01*
G01*
X125996000Y-70927000D01*
G75*
G02*
X125796000Y-70727000I0J200000D01*
G01*
G37*
G36*
G01*
X84775000Y-67171000D02*
X84775000Y-65671000D01*
G75*
G02*
X84975000Y-65471000I200000J0D01*
G01*
X86475000Y-65471000D01*
G75*
G02*
X86675000Y-65671000I0J-200000D01*
G01*
X86675000Y-67171000D01*
G75*
G02*
X86475000Y-67371000I-200000J0D01*
G01*
X84975000Y-67371000D01*
G75*
G02*
X84775000Y-67171000I0J200000D01*
G01*
G37*
D20*
X7493000Y-59690000D03*
X10033000Y-59690000D03*
D21*
X22733000Y-73660000D03*
D22*
X25133000Y-73660000D03*
X24430056Y-75357056D03*
X22733000Y-76060000D03*
X21035944Y-75357056D03*
X20333000Y-73660000D03*
X21035944Y-71962944D03*
X22733000Y-71260000D03*
X24430056Y-71962944D03*
X139746056Y-81741944D03*
X138049000Y-81039000D03*
X136351944Y-81741944D03*
X135649000Y-83439000D03*
X136351944Y-85136056D03*
X138049000Y-85839000D03*
X139746056Y-85136056D03*
X140449000Y-83439000D03*
D21*
X138049000Y-83439000D03*
G36*
G01*
X65725000Y-79236000D02*
X65725000Y-77736000D01*
G75*
G02*
X65925000Y-77536000I200000J0D01*
G01*
X67425000Y-77536000D01*
G75*
G02*
X67625000Y-77736000I0J-200000D01*
G01*
X67625000Y-79236000D01*
G75*
G02*
X67425000Y-79436000I-200000J0D01*
G01*
X65925000Y-79436000D01*
G75*
G02*
X65725000Y-79236000I0J200000D01*
G01*
G37*
G36*
G01*
X159280000Y-13432000D02*
X155680000Y-13432000D01*
G75*
G02*
X155480000Y-13232000I0J200000D01*
G01*
X155480000Y-11152000D01*
G75*
G02*
X155680000Y-10952000I200000J0D01*
G01*
X159280000Y-10952000D01*
G75*
G02*
X159480000Y-11152000I0J-200000D01*
G01*
X159480000Y-13232000D01*
G75*
G02*
X159280000Y-13432000I-200000J0D01*
G01*
G37*
D23*
X157480000Y-7112000D03*
X157480000Y-22352000D03*
G36*
G01*
X159280000Y-28672000D02*
X155680000Y-28672000D01*
G75*
G02*
X155480000Y-28472000I0J200000D01*
G01*
X155480000Y-26392000D01*
G75*
G02*
X155680000Y-26192000I200000J0D01*
G01*
X159280000Y-26192000D01*
G75*
G02*
X159480000Y-26392000I0J-200000D01*
G01*
X159480000Y-28472000D01*
G75*
G02*
X159280000Y-28672000I-200000J0D01*
G01*
G37*
G36*
G01*
X159280000Y-43912000D02*
X155680000Y-43912000D01*
G75*
G02*
X155480000Y-43712000I0J200000D01*
G01*
X155480000Y-41632000D01*
G75*
G02*
X155680000Y-41432000I200000J0D01*
G01*
X159280000Y-41432000D01*
G75*
G02*
X159480000Y-41632000I0J-200000D01*
G01*
X159480000Y-43712000D01*
G75*
G02*
X159280000Y-43912000I-200000J0D01*
G01*
G37*
X157480000Y-37592000D03*
X157480000Y-52832000D03*
G36*
G01*
X159280000Y-59152000D02*
X155680000Y-59152000D01*
G75*
G02*
X155480000Y-58952000I0J200000D01*
G01*
X155480000Y-56872000D01*
G75*
G02*
X155680000Y-56672000I200000J0D01*
G01*
X159280000Y-56672000D01*
G75*
G02*
X159480000Y-56872000I0J-200000D01*
G01*
X159480000Y-58952000D01*
G75*
G02*
X159280000Y-59152000I-200000J0D01*
G01*
G37*
D24*
X4953000Y-141224000D03*
X7493000Y-141224000D03*
X4953000Y-138684000D03*
X7493000Y-138684000D03*
X4953000Y-136144000D03*
X7493000Y-136144000D03*
X4953000Y-133604000D03*
X7493000Y-133604000D03*
X4953000Y-131064000D03*
G36*
G01*
X8556600Y-130200400D02*
X8556600Y-131927600D01*
G75*
G02*
X8356600Y-132127600I-200000J0D01*
G01*
X6629400Y-132127600D01*
G75*
G02*
X6429400Y-131927600I0J200000D01*
G01*
X6429400Y-130200400D01*
G75*
G02*
X6629400Y-130000400I200000J0D01*
G01*
X8356600Y-130000400D01*
G75*
G02*
X8556600Y-130200400I0J-200000D01*
G01*
G37*
G36*
G01*
X8556600Y-105943400D02*
X8556600Y-107670600D01*
G75*
G02*
X8356600Y-107870600I-200000J0D01*
G01*
X6629400Y-107870600D01*
G75*
G02*
X6429400Y-107670600I0J200000D01*
G01*
X6429400Y-105943400D01*
G75*
G02*
X6629400Y-105743400I200000J0D01*
G01*
X8356600Y-105743400D01*
G75*
G02*
X8556600Y-105943400I0J-200000D01*
G01*
G37*
X4953000Y-106807000D03*
X7493000Y-109347000D03*
X4953000Y-109347000D03*
X7493000Y-111887000D03*
X4953000Y-111887000D03*
X7493000Y-114427000D03*
X4953000Y-114427000D03*
X7493000Y-116967000D03*
X4953000Y-116967000D03*
G36*
G01*
X53678000Y-61965000D02*
X53678000Y-63765000D01*
G75*
G02*
X53478000Y-63965000I-200000J0D01*
G01*
X51678000Y-63965000D01*
G75*
G02*
X51478000Y-63765000I0J200000D01*
G01*
X51478000Y-61965000D01*
G75*
G02*
X51678000Y-61765000I200000J0D01*
G01*
X53478000Y-61765000D01*
G75*
G02*
X53678000Y-61965000I0J-200000D01*
G01*
G37*
D25*
X50876200Y-57785000D03*
X49174400Y-62865000D03*
X47472600Y-57785000D03*
X45770800Y-62865000D03*
X44069000Y-57785000D03*
X42367200Y-62865000D03*
X40665400Y-57785000D03*
X38963600Y-62865000D03*
X37261800Y-57785000D03*
X35560000Y-62865000D03*
X52578000Y-56083200D03*
X49174400Y-56083200D03*
X45770800Y-56083200D03*
X42367200Y-56083200D03*
X38963600Y-56083200D03*
X35560000Y-56083200D03*
X76327000Y-56083200D03*
X79730600Y-56083200D03*
X83134200Y-56083200D03*
X86537800Y-56083200D03*
X89941400Y-56083200D03*
X93345000Y-56083200D03*
X76327000Y-62865000D03*
X78028800Y-57785000D03*
X79730600Y-62865000D03*
X81432400Y-57785000D03*
X83134200Y-62865000D03*
X84836000Y-57785000D03*
X86537800Y-62865000D03*
X88239600Y-57785000D03*
X89941400Y-62865000D03*
X91643200Y-57785000D03*
G36*
G01*
X94445000Y-61965000D02*
X94445000Y-63765000D01*
G75*
G02*
X94245000Y-63965000I-200000J0D01*
G01*
X92445000Y-63965000D01*
G75*
G02*
X92245000Y-63765000I0J200000D01*
G01*
X92245000Y-61965000D01*
G75*
G02*
X92445000Y-61765000I200000J0D01*
G01*
X94245000Y-61765000D01*
G75*
G02*
X94445000Y-61965000I0J-200000D01*
G01*
G37*
G36*
G01*
X135466000Y-61965000D02*
X135466000Y-63765000D01*
G75*
G02*
X135266000Y-63965000I-200000J0D01*
G01*
X133466000Y-63965000D01*
G75*
G02*
X133266000Y-63765000I0J200000D01*
G01*
X133266000Y-61965000D01*
G75*
G02*
X133466000Y-61765000I200000J0D01*
G01*
X135266000Y-61765000D01*
G75*
G02*
X135466000Y-61965000I0J-200000D01*
G01*
G37*
X132664200Y-57785000D03*
X130962400Y-62865000D03*
X129260600Y-57785000D03*
X127558800Y-62865000D03*
X125857000Y-57785000D03*
X124155200Y-62865000D03*
X122453400Y-57785000D03*
X120751600Y-62865000D03*
X119049800Y-57785000D03*
X117348000Y-62865000D03*
X134366000Y-56083200D03*
X130962400Y-56083200D03*
X127558800Y-56083200D03*
X124155200Y-56083200D03*
X120751600Y-56083200D03*
X117348000Y-56083200D03*
G36*
G01*
X83378000Y-79236000D02*
X83378000Y-77736000D01*
G75*
G02*
X83578000Y-77536000I200000J0D01*
G01*
X85078000Y-77536000D01*
G75*
G02*
X85278000Y-77736000I0J-200000D01*
G01*
X85278000Y-79236000D01*
G75*
G02*
X85078000Y-79436000I-200000J0D01*
G01*
X83578000Y-79436000D01*
G75*
G02*
X83378000Y-79236000I0J200000D01*
G01*
G37*
M02*
